<?xml version="1.0" encoding="UTF-8" standalone="no"?>
<!-- Created with Inkscape (http://www.inkscape.org/) -->

<svg
   xmlns:dc="http://purl.org/dc/elements/1.1/"
   xmlns:cc="http://creativecommons.org/ns#"
   xmlns:rdf="http://www.w3.org/1999/02/22-rdf-syntax-ns#"
   xmlns:svg="http://www.w3.org/2000/svg"
   xmlns="http://www.w3.org/2000/svg"
   xmlns:sodipodi="http://sodipodi.sourceforge.net/DTD/sodipodi-0.dtd"
   xmlns:inkscape="http://www.inkscape.org/namespaces/inkscape"
   id="svg42378"
   version="1.1"
   inkscape:version="0.48.4 r9939"
   width="720"
   height="450"
   xml:space="preserve"
   sodipodi:docname="bootstrapped_means.eps"><metadata
     id="metadata42384"><rdf:RDF><cc:Work
         rdf:about=""><dc:format>image/svg+xml</dc:format><dc:type
           rdf:resource="http://purl.org/dc/dcmitype/StillImage" /><dc:title></dc:title></cc:Work></rdf:RDF></metadata><defs
     id="defs42382"><clipPath
       clipPathUnits="userSpaceOnUse"
       id="clipPath42394"><path
         d="m 720,720 4320,0 0,2448 -4320,0 0,-2448 z"
         id="path42396" /></clipPath><clipPath
       clipPathUnits="userSpaceOnUse"
       id="clipPath42462"><path
         d="m 720,720 4320,0 0,2448 -4320,0 0,-2448 z"
         id="path42464" /></clipPath></defs><sodipodi:namedview
     pagecolor="#ffffff"
     bordercolor="#666666"
     borderopacity="1"
     objecttolerance="10"
     gridtolerance="10"
     guidetolerance="10"
     inkscape:pageopacity="0"
     inkscape:pageshadow="2"
     inkscape:window-width="934"
     inkscape:window-height="789"
     id="namedview42380"
     showgrid="false"
     inkscape:zoom="0.92777778"
     inkscape:cx="367.51225"
     inkscape:cy="263.40271"
     inkscape:window-x="0"
     inkscape:window-y="25"
     inkscape:window-maximized="0"
     inkscape:current-layer="g42386" /><g
     id="g42386"
     inkscape:groupmode="layer"
     inkscape:label="ink_ext_XXXXXX"
     transform="matrix(1.25,0,0,-1.25,0,450)"><g
       id="g42390"
       transform="scale(0.1,0.1)"><g
         clip-path="url(#clipPath42394)"
         id="g42392"><path
           inkscape:connector-curvature="0"
           id="path42398"
           style="fill:none;stroke:#000000;stroke-width:22.5;stroke-linecap:round;stroke-linejoin:round;stroke-miterlimit:10;stroke-opacity:1;stroke-dasharray:none"
           d="m 887.102,810.699 2.398,0 0.602,0.102 3.597,0 0.602,0.097 1.898,0 0.602,0.102 1.199,0 0.602,0.102 1.199,0 0.597,0.097 0.602,0 0.602,0.102 0.597,0 0.602,0.097 0.597,0 0.704,0.102 0.597,0.102 0.602,0 0.597,0.097 0.602,0.102 0.602,0.097 0.597,0 0.602,0.102 0.597,0.102 0.602,0.097 0.602,0.102 0.597,0.097 0.602,0.102 0.597,0.102 0.602,0.097 0.699,0.102 0.602,0.199 0.597,0.102 0.602,0.097 0.602,0.102 0.597,0.199 0.602,0.102 0.597,0.097 0.602,0.102 0.602,0.199 0.597,0.102 0.602,0.097 0.597,0.199 0.602,0.102 0.699,0.102 0.602,0.199 0.597,0.097 0.602,0.102 0.602,0.102 0.597,0.199 0.602,0.097 0.597,0.102 0.602,0.102 0.602,0.097 0.597,0.102 0.602,0.097 0.597,0.102 0.602,0.102 0.602,0.097 0.699,0.102 0.597,0.097 0.602,0.102 0.602,0.102 0.597,0 0.602,0.097 0.597,0.102 0.602,0 0.602,0.097 0.597,0 0.602,0.102 0.597,0 0.602,0.102 1.301,0 0.597,0.097 1.801,0 0.602,0.102 9.699,0 0.602,-0.102 2.398,0 0.602,-0.097 2.5,0 0.597,-0.102 8.5,0 0.602,0.102 0.597,0 0.602,0.097 0.602,0 0.597,0.102 0.602,0.097 0.597,0 0.602,0.102 0.602,0.102 0.597,0.097 0.602,0.102 0.699,0.199 0.602,0.102 0.597,0.199 0.602,0.097 0.597,0.204 0.602,0.199 0.602,0.199 0.597,0.199 0.602,0.199 0.597,0.204 0.602,0.199 0.602,0.301 0.597,0.199 0.602,0.301 0.597,0.199 0.704,0.301 0.597,0.296 0.602,0.301 0.597,0.301 0.602,0.301 0.602,0.398 0.597,0.301 0.602,0.301 0.597,0.398 0.602,0.301 0.602,0.398 0.597,0.403 0.602,0.301 0.597,0.398 0.704,0.398 0.597,0.403 0.602,0.398 0.597,0.403 0.602,0.398 0.602,0.398 0.597,0.403 0.602,0.398 0.597,0.5 0.602,0.403 0.602,0.398 0.597,0.5 0.602,0.398 0.597,0.403 0.602,0.5 0.7,0.5 0.6,0.398 0.6,0.5 0.6,0.5 0.6,0.403 0.6,0.5 0.6,0.5 0.6,0.597 0.6,0.5 0.6,0.5 0.6,0.602 0.6,0.5 0.6,0.597 0.6,0.602 0.7,0.699 0.6,0.602 0.6,0.699 0.6,0.699 0.6,0.699 0.6,0.704 0.6,0.796 0.6,0.801 0.6,0.801 0.6,0.898 0.6,0.903 0.6,0.898 0.6,1 0.6,1 0.6,1.102 0.7,1.097 0.6,1.102 0.6,1.199 0.6,1.199 0.6,1.301 0.6,1.301 0.6,1.301 0.6,1.398 0.6,1.403 0.6,1.5 0.6,1.597 0.6,1.5 0.6,1.699 0.6,1.602 0.7,1.699 0.6,1.699 0.6,1.801 0.6,1.903 0.6,1.796 0.6,1.903 0.6,2 0.6,2 0.6,2 0.6,2 0.6,2.097 0.6,2.204 0.6,2.097 0.6,2.199 0.6,2.204 0.7,2.296 0.6,2.301 0.6,2.301 0.6,2.301 0.6,2.398 0.6,2.403 0.6,2.398 0.6,2.5 0.6,2.5 0.6,2.5 0.6,2.602 0.6,2.5 0.6,2.597 0.6,2.699 0.7,2.704 0.6,2.699 0.6,2.699 0.6,2.801 0.6,2.801 0.6,2.796 0.6,2.903 0.6,2.898 0.6,2.903 0.6,3 0.6,3 0.6,3 0.6,3.097 0.6,3.102 0.6,3.199 0.7,3.199 0.6,3.199 0.6,3.301 0.6,3.403 0.6,3.296 0.6,3.403 0.6,3.499 0.6,3.5 0.6,3.5 0.6,3.6 0.6,3.6 0.6,3.6 0.6,3.7 0.6,3.8 0.7,3.7 0.6,3.9 0.6,3.8 0.6,3.9 0.6,3.9 0.6,4 0.6,4 0.6,4.1 0.6,4.1 0.6,4.1 0.6,4.2 0.6,4.2 0.6,4.3 0.6,4.3 0.6,4.3 0.7,4.4 0.6,4.4 0.6,4.5 0.6,4.5 0.6,4.5 0.6,4.6 0.6,4.6 0.6,4.7 0.6,4.7 0.6,4.7 0.6,4.8 0.6,4.9 0.6,4.8 0.6,4.9 0.7,5 0.6,4.9 0.6,5 0.6,5.1 0.6,5.1 0.6,5.1 0.6,5.1 0.6,5.2 0.6,5.2 0.6,5.2 0.6,5.2 0.6,5.3 0.6,5.3 0.6,5.2 0.6,5.3 0.7,5.3 0.6,5.3 0.6,5.3 0.6,5.3 0.6,5.3 0.6,5.2 0.6,5.3 0.6,5.2 0.6,5.2 0.6,5.2 0.6,5.1 0.6,5.1 0.6,5.1 0.6,5 0.7,5 0.6,4.9 0.6,4.9 0.6,4.9 0.6,4.8 0.6,4.8 0.6,4.7 0.6,4.7 0.6,4.6 0.6,4.6 0.6,4.6 0.6,4.5 0.6,4.6 0.6,4.5 0.6,4.4 0.7,4.5 0.6,4.5 0.6,4.5 0.6,4.4 0.6,4.6 0.6,4.5 0.6,4.6 0.6,4.6 0.6,4.7 0.6,4.8 0.6,4.8 0.6,4.9 0.6,5.1 0.6,5.1 0.7,5.2 0.6,5.4 0.6,5.5 0.6,5.7 0.6,5.7 0.6,6 0.6,6.1 0.6,6.3 0.6,6.5 0.6,6.7 0.6,6.8 0.6,7 0.6,7.2 0.6,7.4 0.6,7.7 0.7,7.8 0.6,7.9 0.6,8.2 0.6,8.4 0.6,8.6 0.6,8.7 0.6,9 0.6,9 0.6,9.3 0.6,9.4 0.6,9.6 0.6,9.7 0.6,9.8 0.6,10 0.7,10.1 0.6,10.2 0.6,10.3 0.6,10.4 0.6,10.4 0.6,10.5 0.6,10.6 0.6,10.6 0.6,10.7 0.6,10.7 0.6,10.7 0.6,10.7 0.6,10.7 0.6,10.7 0.6,10.7 0.7,10.7 0.6,10.6 0.6,10.6 0.6,10.5 0.6,10.5 0.6,10.4 0.6,10.4 0.6,10.2 0.6,10.3 0.6,10.1 0.6,10 0.6,10 0.6,9.9 0.6,9.8 0.7,9.7 0.6,9.6 0.6,9.5 0.6,9.5 0.6,9.3 0.6,9.3 0.6,9.1 0.6,9.1 0.6,9 0.6,8.9 0.6,8.8 0.6,8.8 0.6,8.6 0.6,8.6 0.6,8.5 0.7,8.5 0.6,8.4 0.6,8.3 0.6,8.2 0.6,8.2 0.6,8.1 0.6,8.1 0.6,8 0.6,8 0.6,7.9 0.6,7.9 0.6,7.8 0.6,7.8 0.6,7.8 0.7,7.7 0.6,7.6 0.6,7.6 0.6,7.6 0.6,7.5 0.6,7.5 0.6,7.4 0.6,7.4 0.6,7.4 0.6,7.2 0.6,7.3 0.6,7.1 0.6,7.1 0.6,7.1 0.6,6.9 0.7,7 0.6,6.8 0.6,6.7 0.6,6.7 0.6,6.6 0.6,6.5 0.6,6.4 0.6,6.3 0.6,6.2 0.6,6.1 0.6,6 0.6,5.9 0.6,5.8 0.6,5.7 0.7,5.5 0.6,5.5 0.6,5.3 0.6,5.2 0.6,5.1 0.6,5 0.6,4.8 0.6,4.8 0.6,4.6 0.6,4.5 0.6,4.4 0.6,4.3 0.6,4.2 0.6,4.1 0.6,3.9 0.7,3.9 0.6,3.8 0.6,3.7 0.6,3.6 0.6,3.5 0.6,3.4 0.6,3.4 0.6,3.3 0.6,3.2 0.6,3.2 0.6,3.1 0.6,3.1 0.6,3 0.6,2.9 0.7,2.9 0.6,2.9 0.6,2.8 0.6,2.8 0.6,2.8 0.6,2.7 0.6,2.7 0.6,2.6 0.6,2.6 0.6,2.6 0.6,2.6 0.6,2.5 0.6,2.5 0.6,2.4 0.6,2.4 0.7,2.4 0.6,2.3 0.6,2.3 0.6,2.2 0.6,2.2 0.6,2.1 0.6,2 0.6,2 0.6,1.8 0.6,1.8 0.6,1.7 0.6,1.6 0.6,1.5 0.6,1.4 0.7,1.2 0.6,1.1 0.6,1 0.6,0.8 0.6,0.7 0.6,0.6 0.6,0.3 0.6,0.1 0.6,0 0.6,-0.3 0.6,-0.4 0.6,-0.6 0.6,-0.9 0.6,-1.1 0.6,-1.4 0.7,-1.6 0.6,-1.8 0.6,-2.1 0.6,-2.3 0.6,-2.6 0.6,-2.9 0.6,-3.2 0.6,-3.4 0.6,-3.6 0.6,-3.9 0.6,-4.3 0.6,-4.4 0.6,-4.8 0.6,-5 0.7,-5.2 0.6,-5.4 0.6,-5.8 0.6,-5.9 0.6,-6.2 0.6,-6.4 0.6,-6.5 0.6,-6.7 0.6,-7 0.6,-7.1 0.6,-7.2 0.6,-7.3 0.6,-7.4 0.6,-7.6 0.6,-7.6 0.7,-7.7 0.6,-7.7 0.6,-7.7 0.6,-7.7 0.6,-7.7 0.6,-7.7 0.6,-7.7 0.6,-7.5 0.6,-7.5 0.6,-7.4 0.6,-7.2 0.6,-7.2 0.6,-6.9 0.6,-6.8 0.7,-6.7 0.6,-6.4 0.6,-6.3 0.6,-6.1 0.6,-5.8 0.6,-5.6 0.6,-5.4 0.6,-5.2 0.6,-4.9 0.6,-4.7 0.6,-4.5 0.6,-4.2 0.6,-4 0.6,-3.7 0.6,-3.5 0.7,-3.3 0.6,-3.1 0.6,-2.8 0.6,-2.7 0.6,-2.4 0.6,-2.3 0.6,-2.1 0.6,-2 0.6,-1.7 0.6,-1.7 0.6,-1.5 0.6,-1.4 0.6,-1.4 0.6,-1.2 0.7,-1.2 0.6,-1.2 0.6,-1.1 0.6,-1.1 0.6,-1.1 0.6,-1.2 0.6,-1.1 0.6,-1.3 0.6,-1.4 0.6,-1.4 0.6,-1.5 0.6,-1.7 0.6,-1.9 0.6,-2 0.6,-2.2 0.7,-2.4 0.6,-2.6 0.6,-2.9 0.6,-3.1 0.6,-3.4 0.6,-3.7 0.6,-3.9 0.6,-4.3 0.6,-4.5 0.6,-4.9 0.6,-5.3 0.6,-5.6 0.6,-6 0.6,-6.2 0.7,-6.7 0.6,-7 0.6,-7.4 0.6,-7.8 0.6,-8.1 0.6,-8.6 0.6,-8.8 0.6,-9.2 0.6,-9.7 0.6,-9.9 0.6,-10.4 0.6,-10.6 0.6,-11 0.6,-11.2 0.6,-11.7 0.7,-11.9 0.6,-12.2 0.6,-12.4 0.6,-12.7 0.6,-12.9 0.6,-13.2 0.6,-13.3 0.6,-13.6 0.6,-13.7 0.6,-13.8 0.6,-14 0.6,-14.1 0.6,-14.1 0.6,-14.3 0.7,-14.3 0.6,-14.3 0.6,-14.4 0.6,-14.4 0.6,-14.3 0.6,-14.3 0.6,-14.2 0.6,-14.2 0.6,-14.1 0.6,-14 0.6,-13.8 0.6,-13.8 0.6,-13.5 0.6,-13.5 0.6,-13.3 0.7,-13.1 0.6,-12.9 0.6,-12.7 0.6,-12.5 0.6,-12.3 0.6,-12 0.6,-11.9 0.6,-11.6 0.6,-11.4 0.6,-11.2 0.6,-10.9 0.6,-10.7 0.6,-10.4 0.6,-10.2 0.7,-10 0.6,-9.7 0.6,-9.5 0.6,-9.2 0.6,-9 0.6,-8.9 0.6,-8.5 0.6,-8.3 0.6,-8.2 0.6,-7.9 0.6,-7.7 0.6,-7.6 0.6,-7.3 0.6,-7.1 0.6,-7 0.7,-6.7 0.6,-6.7 0.6,-6.4 0.6,-6.3 0.6,-6.1 0.6,-6 0.6,-5.9 0.6,-5.7 0.6,-5.6 0.6,-5.5 0.6,-5.3 0.6,-5.3 0.6,-5.1 0.6,-5 0.7,-4.9 0.6,-4.9 0.6,-4.7 0.6,-4.6 0.6,-4.6 0.6,-4.5 0.6,-4.4 0.6,-4.3 0.6,-4.2 0.6,-4.2 0.6,-4.1 0.6,-4 0.6,-3.9 0.6,-3.9 0.6,-3.8 0.7,-3.8 0.6,-3.7 0.6,-3.6 0.6,-3.6 0.6,-3.5 0.6,-3.5 0.6,-3.4 0.6,-3.3 0.6,-3.3 0.6,-3.3 0.6,-3.2 0.6,-3.2 0.6,-3.1 0.6,-3 0.7,-3.1 0.6,-3 0.6,-2.9 0.6,-3 0.6,-2.8 0.6,-2.9 0.6,-2.8 0.6,-2.9 0.6,-2.8 0.6,-2.7 0.6,-2.8 0.6,-2.8 0.6,-2.7 0.6,-2.7 0.6,-2.8 0.7,-2.7 0.6,-2.7 0.6,-2.8 0.6,-2.7 0.6,-2.7 0.6,-2.8 0.6,-2.8 0.6,-2.7 0.6,-2.8 0.6,-2.8 0.6,-2.8 0.6,-2.8 0.6,-2.9 0.6,-2.8 0.7,-2.9 0.6,-2.9 0.6,-2.9 0.6,-3 0.6,-2.9 0.6,-3 0.6,-3 0.6,-3 0.6,-3 0.6,-3.1 0.6,-3.1 0.6,-3 0.6,-3.1 0.6,-3.1 0.6,-3.2 0.7,-3.1 0.6,-3.1 0.6,-3.2 0.6,-3.1 0.6,-3.199 0.6,-3.199 0.6,-3.204 0.6,-3.097 0.6,-3.199 0.6,-3.204 0.6,-3.097 0.6,-3.199 0.6,-3.102 0.6,-3.199 0.7,-3.102 0.6,-3.097 0.6,-3.102 0.6,-3.102 0.6,-3 0.6,-3 0.6,-3 0.6,-3 0.6,-2.898 0.6,-2.898 0.6,-2.903 0.6,-2.801 0.6,-2.796 0.6,-2.801 0.6,-2.699 0.7,-2.602 0.6,-2.602 0.6,-2.597 0.6,-2.5 0.6,-2.5 0.6,-2.403 0.6,-2.398 0.6,-2.301 0.6,-2.301 0.6,-2.199 0.6,-2.097 0.6,-2.102 0.6,-2.102 0.6,-1.898 0.7,-2 0.6,-1.801 0.6,-1.898 0.6,-1.699 0.6,-1.801 0.6,-1.602 0.6,-1.597 0.6,-1.602 0.6,-1.5 0.6,-1.398 0.6,-1.403 0.6,-1.398 0.6,-1.301 0.6,-1.301 0.6,-1.199 0.7,-1.102 0.6,-1.199 0.6,-1 0.6,-1.097 0.6,-1 0.6,-0.903 0.6,-1 0.6,-0.801 0.6,-0.898 0.6,-0.801 0.6,-0.801 0.6,-0.699 0.6,-0.699 0.6,-0.699 0.7,-0.602 0.6,-0.699 0.6,-0.5 0.6,-0.602 0.6,-0.597 0.6,-0.5 0.6,-0.5 0.6,-0.5 0.6,-0.403 0.6,-0.5 0.6,-0.398 0.6,-0.398 0.6,-0.403 0.6,-0.398 0.6,-0.403 0.7,-0.398 0.6,-0.398 0.6,-0.403 0.6,-0.301 0.6,-0.398 0.6,-0.398 0.6,-0.403 0.6,-0.301 0.6,-0.398 0.6,-0.398 0.6,-0.403 0.6,-0.398 0.6,-0.403 0.6,-0.5 0.7,-0.398 0.6,-0.398 0.6,-0.5 0.6,-0.5 0.6,-0.5 0.6,-0.5 0.6,-0.5 0.6,-0.5 0.6,-0.602 0.6,-0.5 0.6,-0.602 0.6,-0.5 0.6,-0.597 0.6,-0.602 0.6,-0.597 0.7,-0.704 0.6,-0.597 0.6,-0.602 0.6,-0.699 0.6,-0.602 0.6,-0.699 0.6,-0.597 0.6,-0.704 0.6,-0.699 0.6,-0.597 0.6,-0.704 0.6,-0.597 0.6,-0.699 0.6,-0.704 0.7,-0.597 0.6,-0.602 0.6,-0.699 0.6,-0.602 0.6,-0.597 0.6,-0.602 0.6,-0.597 0.6,-0.602 0.6,-0.5 0.6,-0.602 0.6,-0.5 0.6,-0.5 0.6,-0.5 0.6,-0.5 0.6,-0.5 0.7,-0.5 0.6,-0.398 0.6,-0.398 0.6,-0.403 0.6,-0.398 0.6,-0.403 0.6,-0.398 0.6,-0.301 0.6,-0.301 0.6,-0.296 0.6,-0.301 0.6,-0.301 0.6,-0.301 0.6,-0.199 0.7,-0.301 0.6,-0.199 0.6,-0.199 0.6,-0.199 0.6,-0.204 0.6,-0.199 0.6,-0.097 0.6,-0.204 0.6,-0.097 0.6,-0.199 0.6,-0.102 0.6,-0.102 0.6,-0.097 0.6,-0.102 0.6,-0.097" /><path
           inkscape:connector-curvature="0"
           id="path42400"
           style="fill:none;stroke:#000000;stroke-width:22.5;stroke-linecap:round;stroke-linejoin:round;stroke-miterlimit:10;stroke-opacity:1;stroke-dasharray:none"
           d="m 1493.3,811.602 0.7,-0.102 0.6,-0.102 0.6,0 0.6,-0.097 0.6,-0.102 0.6,0 0.6,-0.097 0.6,0 0.6,-0.102 1.2,0 0.6,-0.102 1.9,0 0.6,-0.097 3,0 0.6,-0.102 1.2,0" /></g></g><path
       inkscape:connector-curvature="0"
       id="path42402"
       style="fill:none;stroke:#000000;stroke-width:0.75;stroke-linecap:round;stroke-linejoin:round;stroke-miterlimit:10;stroke-opacity:1;stroke-dasharray:none"
       d="m 88,72 400,0" /><path
       inkscape:connector-curvature="0"
       id="path42404"
       style="fill:none;stroke:#000000;stroke-width:0.75;stroke-linecap:round;stroke-linejoin:round;stroke-miterlimit:10;stroke-opacity:1;stroke-dasharray:none"
       d="m 88,72 0,-7.2" /><path
       inkscape:connector-curvature="0"
       id="path42406"
       style="fill:none;stroke:#000000;stroke-width:0.75;stroke-linecap:round;stroke-linejoin:round;stroke-miterlimit:10;stroke-opacity:1;stroke-dasharray:none"
       d="m 154.67,72 0,-7.2" /><path
       inkscape:connector-curvature="0"
       id="path42408"
       style="fill:none;stroke:#000000;stroke-width:0.75;stroke-linecap:round;stroke-linejoin:round;stroke-miterlimit:10;stroke-opacity:1;stroke-dasharray:none"
       d="m 221.33,72 0,-7.2" /><path
       inkscape:connector-curvature="0"
       id="path42410"
       style="fill:none;stroke:#000000;stroke-width:0.75;stroke-linecap:round;stroke-linejoin:round;stroke-miterlimit:10;stroke-opacity:1;stroke-dasharray:none"
       d="m 288,72 0,-7.2" /><path
       inkscape:connector-curvature="0"
       id="path42412"
       style="fill:none;stroke:#000000;stroke-width:0.75;stroke-linecap:round;stroke-linejoin:round;stroke-miterlimit:10;stroke-opacity:1;stroke-dasharray:none"
       d="m 354.67,72 0,-7.2" /><path
       inkscape:connector-curvature="0"
       id="path42414"
       style="fill:none;stroke:#000000;stroke-width:0.75;stroke-linecap:round;stroke-linejoin:round;stroke-miterlimit:10;stroke-opacity:1;stroke-dasharray:none"
       d="m 421.33,72 0,-7.2" /><path
       inkscape:connector-curvature="0"
       id="path42416"
       style="fill:none;stroke:#000000;stroke-width:0.75;stroke-linecap:round;stroke-linejoin:round;stroke-miterlimit:10;stroke-opacity:1;stroke-dasharray:none"
       d="m 488,72 0,-7.2" /><g
       id="g42418"><text
         id="text42420"
         transform="matrix(1,0,0,-1,69.6523,46.0801)"><tspan
           id="tspan42422"
           sodipodi:role="line"
           y="0"
           x="0 12.232 24.464001 66.670341 78.902344 91.134338 133.33012 145.56212 157.79411 200.00002 212.23203 224.46402 266.67035 278.90237 291.13437 333.33014 345.56213 357.79413 400.00003 412.23203 424.46405"
           style="font-size:22px;font-variant:normal;font-weight:normal;writing-mode:lr-tb;fill:#000000;fill-opacity:1;fill-rule:nonzero;stroke:none;font-family:Arial;-inkscape-font-specification:Arial">290300310320330340350</tspan></text>
</g><path
       inkscape:connector-curvature="0"
       id="path42424"
       style="fill:none;stroke:#000000;stroke-width:0.75;stroke-linecap:round;stroke-linejoin:round;stroke-miterlimit:10;stroke-opacity:1;stroke-dasharray:none"
       d="M 72,81.0699 72,287.13" /><path
       inkscape:connector-curvature="0"
       id="path42426"
       style="fill:none;stroke:#000000;stroke-width:0.75;stroke-linecap:round;stroke-linejoin:round;stroke-miterlimit:10;stroke-opacity:1;stroke-dasharray:none"
       d="m 72,81.0699 -7.2,0" /><path
       inkscape:connector-curvature="0"
       id="path42428"
       style="fill:none;stroke:#000000;stroke-width:0.75;stroke-linecap:round;stroke-linejoin:round;stroke-miterlimit:10;stroke-opacity:1;stroke-dasharray:none"
       d="m 72,132.58 -7.2,0" /><path
       inkscape:connector-curvature="0"
       id="path42430"
       style="fill:none;stroke:#000000;stroke-width:0.75;stroke-linecap:round;stroke-linejoin:round;stroke-miterlimit:10;stroke-opacity:1;stroke-dasharray:none"
       d="m 72,184.1 -7.2,0" /><path
       inkscape:connector-curvature="0"
       id="path42432"
       style="fill:none;stroke:#000000;stroke-width:0.75;stroke-linecap:round;stroke-linejoin:round;stroke-miterlimit:10;stroke-opacity:1;stroke-dasharray:none"
       d="m 72,235.61 -7.2,0" /><path
       inkscape:connector-curvature="0"
       id="path42434"
       style="fill:none;stroke:#000000;stroke-width:0.75;stroke-linecap:round;stroke-linejoin:round;stroke-miterlimit:10;stroke-opacity:1;stroke-dasharray:none"
       d="m 72,287.13 -7.2,0" /><g
       id="g42436"><text
         id="text42438"
         transform="matrix(0,1,1,0,54.7199,65.7805)"><tspan
           id="tspan42440"
           sodipodi:role="line"
           y="0"
           x="0 12.232 18.348 51.510162 63.742161 69.858162 103.03007 115.26207 121.37807 154.54024 166.77223 172.88823 206.06013 218.29214 224.40814"
           style="font-size:22px;font-variant:normal;font-weight:normal;writing-mode:lr-tb;fill:#000000;fill-opacity:1;fill-rule:nonzero;stroke:none;font-family:Arial;-inkscape-font-specification:Arial">0.00.10.20.30.4</tspan></text>
</g><path
       inkscape:connector-curvature="0"
       id="path42442"
       style="fill:none;stroke:#000000;stroke-width:0.75;stroke-linecap:round;stroke-linejoin:round;stroke-miterlimit:10;stroke-opacity:1;stroke-dasharray:none"
       d="m 72,72 432,0 0,244.8 -432,0 L 72,72" /><text
       transform="scale(1,-1)"
       id="text42446"
       x="95.480103"
       y="-330.5"><tspan
         style="font-size:22px;font-variant:normal;font-weight:bold;writing-mode:lr-tb;fill:#000000;fill-opacity:1;fill-rule:nonzero;stroke:none;font-family:Arial;-inkscape-font-specification:Arial"
         x="95.480103 111.3641 117.4801 129.7121 137.0381 145.5961 151.7121 164.7141 178.1561 185.4821 191.5981 205.0401 218.4821 230.7141 236.83011 250.27211 257.59808 263.71408 277.1561 290.59808 304.0401 311.36609 323.59808 330.9241 339.48209 351.71411 365.1561 378.59811 390.83011 404.27209 410.38809 429.94611 442.1781 454.4101 467.85211"
         y="-330.5"
         sodipodi:role="line"
         id="tspan42448">Distributions of bootstrapped means</tspan></text>
<text
       transform="scale(1,-1)"
       id="text42450"
       x="224.4321"
       y="-17.280001"><tspan
         style="font-size:22px;font-variant:normal;font-weight:normal;writing-mode:lr-tb;fill:#000000;fill-opacity:1;fill-rule:nonzero;stroke:none;font-family:Arial;-inkscape-font-specification:Arial"
         x="224.4321 236.66409 248.8961 255.0121 267.24411 279.4761 290.4761 301.4761 307.5921 314.91809 333.24411 344.24411"
         y="-17.280001"
         sodipodi:role="line"
         id="tspan42452">Latency (ms)</tspan></text>
<text
       transform="matrix(0,1,1,0,0,0)"
       id="text42454"
       x="157.72701"
       y="25.919901"><tspan
         style="font-size:22px;font-variant:normal;font-weight:normal;writing-mode:lr-tb;fill:#000000;fill-opacity:1;fill-rule:nonzero;stroke:none;font-family:Arial;-inkscape-font-specification:Arial"
         x="157.72701 173.61099 185.843 198.075 209.075 213.959 220.075"
         y="25.919901"
         sodipodi:role="line"
         id="tspan42456">Density</tspan></text>
<g
       id="g42458"
       transform="scale(0.1,0.1)"><g
         clip-path="url(#clipPath42462)"
         id="g42460"><path
           inkscape:connector-curvature="0"
           id="path42466"
           style="fill:none;stroke:#bebebe;stroke-width:0.80000001;stroke-linecap:round;stroke-linejoin:round;stroke-miterlimit:10;stroke-opacity:1;stroke-dasharray:none"
           d="m 720,810.699 4320,0" /><path
           inkscape:connector-curvature="0"
           id="path42468"
           style="fill:none;stroke:#000000;stroke-width:15;stroke-linecap:round;stroke-linejoin:round;stroke-miterlimit:10;stroke-opacity:1;stroke-dasharray:45, 75;stroke-dashoffset:0"
           d="m 1222.7,720 0,2448" /><path
           inkscape:connector-curvature="0"
           id="path42470"
           style="fill:none;stroke:#000000;stroke-width:15;stroke-linecap:round;stroke-linejoin:round;stroke-miterlimit:10;stroke-opacity:1;stroke-dasharray:15, 45, 75, 45;stroke-dashoffset:0"
           d="m 1004.7,720 0,2448" /><path
           inkscape:connector-curvature="0"
           id="path42472"
           style="fill:none;stroke:#000000;stroke-width:15;stroke-linecap:round;stroke-linejoin:round;stroke-miterlimit:10;stroke-opacity:1;stroke-dasharray:15, 45, 75, 45;stroke-dashoffset:0"
           d="m 1448.2,720 0,2448" /><path
           inkscape:connector-curvature="0"
           id="path42474"
           style="fill:none;stroke:#5581b4;stroke-width:22.5;stroke-linecap:round;stroke-linejoin:round;stroke-miterlimit:10;stroke-opacity:1;stroke-dasharray:none"
           d="m 3630.9,810.699 0.7,0.102 3.8,0 0.6,0.097 1.9,0 0.7,0.102 0.6,0 0.6,0.102 1.3,0 0.7,0.097 0.6,0 0.6,0.102 0.7,0.097 0.6,0 0.6,0.102 0.7,0.102 0.6,0.097 0.6,0.102 0.7,0.097 0.6,0.102 0.7,0.102 0.6,0.097 0.6,0.102 0.7,0.199 0.6,0.102 0.6,0.199 0.7,0.199 0.6,0.102 0.7,0.199 0.6,0.199 0.6,0.199 0.7,0.301 0.6,0.199 0.6,0.199 0.7,0.301 0.6,0.301 0.6,0.199 0.7,0.301 0.6,0.301 0.7,0.301 0.6,0.398 0.6,0.301 0.7,0.301 0.6,0.398 0.6,0.398 0.7,0.301 0.6,0.403 0.6,0.398 0.7,0.398 0.6,0.403 0.7,0.398 0.6,0.5 0.6,0.403 0.7,0.398 0.6,0.5 0.6,0.398 0.7,0.403 0.6,0.5 0.6,0.398 0.7,0.5 0.6,0.403 0.7,0.5 0.6,0.398 0.6,0.398 0.7,0.5 0.6,0.403 0.6,0.398 0.7,0.403 0.6,0.398 0.7,0.398 0.6,0.403 0.6,0.398 0.7,0.301 0.6,0.398 0.6,0.301 0.7,0.403 0.6,0.296 0.6,0.301 0.7,0.301 0.6,0.199 0.7,0.301 0.6,0.199 0.6,0.301 0.7,0.199 0.6,0.199 0.6,0.204 0.7,0.199 0.6,0.097 0.6,0.204 0.7,0.097 0.6,0.199 0.7,0.102 0.6,0.102 0.6,0.097 0.7,0.102 0.6,0.097 0.6,0 0.7,0.102 0.6,0.102 0.6,0 0.7,0.097 0.6,0.102 0.7,0 0.6,0.097 0.6,0 0.7,0.102 0.6,0 0.6,0.102 0.7,0 0.6,0.097 0.7,0.102 0.6,0.097 0.6,0.102 0.7,0.102 0.6,0.097 0.6,0.102 0.7,0.199 0.6,0.102 0.6,0.199 0.7,0.199 0.6,0.199 0.7,0.301 0.6,0.199 0.6,0.301 0.7,0.301 0.6,0.301 0.6,0.398 0.7,0.398 0.6,0.403 0.6,0.398 0.7,0.5 0.6,0.5 0.7,0.5 0.6,0.602 0.6,0.597 0.7,0.602 0.6,0.699 0.6,0.699 0.7,0.704 0.6,0.796 0.6,0.801 0.7,0.903 0.6,0.796 0.7,1 0.6,0.903 0.6,1 0.7,1 0.6,1.097 0.6,1.102 0.7,1.102 0.6,1.097 0.7,1.199 0.6,1.204 0.6,1.296 0.7,1.301 0.6,1.301 0.6,1.301 0.7,1.398 0.6,1.403 0.6,1.398 0.7,1.398 0.6,1.5 0.7,1.5 0.6,1.5 0.6,1.5 0.7,1.5 0.6,1.602 0.6,1.602 0.7,1.597 0.6,1.602 0.6,1.597 0.7,1.602 0.6,1.699 0.7,1.699 0.6,1.704 0.6,1.699 0.7,1.699 0.6,1.699 0.6,1.699 0.7,1.801 0.6,1.699 0.6,1.801 0.7,1.801 0.6,1.801 0.7,1.801 0.6,1.898 0.6,1.801 0.7,1.898 0.6,1.903 0.6,1.898 0.7,1.898 0.6,1.903 0.7,2 0.6,1.898 0.6,2 0.7,2 0.6,2 0.6,2 0.7,2.102 0.6,2.097 0.6,2.102 0.7,2.102 0.6,2.097 0.7,2.199 0.6,2.102 0.6,2.199 0.7,2.199 0.6,2.301 0.6,2.199 0.7,2.301 0.6,2.301 0.6,2.398 0.7,2.301 0.6,2.403 0.7,2.398 0.6,2.5 0.6,2.5 0.7,2.5 0.6,2.5 0.6,2.602 0.7,2.597 0.6,2.699 0.7,2.704 0.6,2.699 0.6,2.801 0.7,2.798 0.6,2.9 0.6,3 0.7,2.9 0.6,3.1 0.6,3.1 0.7,3.1 0.6,3.3 0.7,3.3 0.6,3.3 0.6,3.4 0.7,3.5 0.6,3.6 0.6,3.7 0.7,3.7 0.6,3.8 0.6,3.9 0.7,4 0.6,4.1 0.7,4.1 0.6,4.3 0.6,4.3 0.7,4.4 0.6,4.5 0.6,4.7 0.7,4.7 0.6,4.8 0.6,4.8 0.7,5 0.6,5.1 0.7,5.1 0.6,5.3 0.6,5.3 0.7,5.4 0.6,5.5 0.6,5.6 0.7,5.6 0.6,5.8 0.7,5.8 0.6,5.8 0.6,6 0.7,6 0.6,6.1 0.6,6.2 0.7,6.2 0.6,6.3 0.6,6.3 0.7,6.4 0.6,6.4 0.7,6.5 0.6,6.6 0.6,6.5 0.7,6.7 0.6,6.6 0.6,6.7 0.7,6.8 0.6,6.7 0.6,6.8 0.7,6.9 0.6,6.8 0.7,6.9 0.6,6.9 0.6,6.9 0.7,7 0.6,6.9 0.6,7 0.7,7 0.6,7 0.6,7 0.7,7 0.6,7 0.7,7.1 0.6,7 0.6,7.1 0.7,7 0.6,7 0.6,7.1 0.7,7 0.6,7 0.7,7.1 0.6,7 0.6,7 0.7,7 0.6,7 0.6,6.9 0.7,7 0.6,6.9 0.6,6.9 0.7,6.9 0.6,6.9 0.7,6.8 0.6,6.8 0.6,6.8 0.7,6.8 0.6,6.8 0.6,6.7 0.7,6.7 0.6,6.6 0.6,6.6 0.7,6.6 0.6,6.6 0.7,6.5 0.6,6.6 0.6,6.4 0.7,6.5 0.6,6.4 0.6,6.4 0.7,6.4 0.6,6.3 0.6,6.3 0.7,6.3 0.6,6.3 0.7,6.2 0.6,6.3 0.6,6.2 0.7,6.1 0.6,6.2 0.6,6.2 0.7,6.1 0.6,6.2 0.7,6.1 0.6,6.2 0.6,6.1 0.7,6.1 0.6,6.1 0.6,6.2 0.7,6.1 0.6,6.1 0.6,6.2 0.7,6.1 0.6,6.2 0.7,6.2 0.6,6.1 0.6,6.2 0.7,6.3 0.6,6.2 0.6,6.2 0.7,6.3 0.6,6.3 0.6,6.3 0.7,6.3 0.6,6.3 0.7,6.4 0.6,6.4 0.6,6.4 0.7,6.4 0.6,6.4 0.6,6.4 0.7,6.5 0.6,6.5 0.6,6.5 0.7,6.5 0.6,6.5 0.7,6.5 0.6,6.5 0.6,6.5 0.7,6.5 0.6,6.6 0.6,6.5 0.7,6.5 0.6,6.5 0.7,6.5 0.6,6.5 0.6,6.5 0.7,6.5 0.6,6.5 0.6,6.5 0.7,6.4 0.6,6.4 0.6,6.5 0.7,6.4 0.6,6.4 0.7,6.3 0.6,6.4 0.6,6.3 0.7,6.4 0.6,6.3 0.6,6.3 0.7,6.4 0.6,6.3 0.6,6.3 0.7,6.3 0.6,6.4 0.7,6.3 0.6,6.4 0.6,6.3 0.7,6.4 0.6,6.5 0.6,6.4 0.7,6.5 0.6,6.6 0.7,6.6 0.6,6.6 0.6,6.7 0.7,6.7 0.6,6.9 0.6,6.8 0.7,7 0.6,7 0.6,7.1 0.7,7.1 0.6,7.2 0.7,7.3 0.6,7.3 0.6,7.4 0.7,7.5 0.6,7.5 0.6,7.5 0.7,7.6 0.6,7.7 0.6,7.6 0.7,7.7 0.6,7.7 0.7,7.6 0.6,7.7 0.6,7.6 0.7,7.6 0.6,7.5 0.6,7.4 0.7,7.3 0.6,7.2 0.6,7.1 0.7,7 0.6,6.8 0.7,6.6 0.6,6.4 0.6,6.2 0.7,6 0.6,5.7 0.6,5.5 0.7,5.2 0.6,5 0.7,4.6 0.6,4.3 0.6,3.9 0.7,3.7 0.6,3.3 0.6,2.9 0.7,2.6 0.6,2.2 0.6,1.8 0.7,1.5 0.6,1.1 0.7,0.8 0.6,0.3 0.6,0 0.7,-0.4 0.6,-0.7 0.6,-1.1 0.7,-1.4 0.6,-1.8 0.6,-2 0.7,-2.4 0.6,-2.6 0.7,-2.9 0.6,-3.2 0.6,-3.4 0.7,-3.7 0.6,-3.8 0.6,-4 0.7,-4.2 0.6,-4.3 0.6,-4.4 0.7,-4.6 0.6,-4.6 0.7,-4.7 0.6,-4.8 0.6,-4.7 0.7,-4.8 0.6,-4.8 0.6,-4.7 0.7,-4.7 0.6,-4.6 0.7,-4.6 0.6,-4.5 0.6,-4.3 0.7,-4.3 0.6,-4.1 0.6,-4 0.7,-3.9 0.6,-3.7 0.6,-3.5 0.7,-3.4 0.6,-3.2 0.7,-3.1 0.6,-2.9 0.6,-2.7 0.7,-2.6 0.6,-2.4 0.6,-2.3 0.7,-2.2 0.6,-1.9 0.6,-1.9 0.7,-1.7 0.6,-1.6 0.7,-1.5 0.6,-1.4 0.6,-1.4 0.7,-1.2 0.6,-1.2 0.6,-1.2 0.7,-1.1 0.6,-1.1 0.6,-1.2 0.7,-1.1 0.6,-1.1 0.7,-1.2 0.6,-1.2 0.6,-1.3 0.7,-1.4 0.6,-1.5 0.6,-1.6 0.7,-1.7 0.6,-1.8 0.7,-2 0.6,-2.1 0.6,-2.3 0.7,-2.4 0.6,-2.6 0.6,-2.8 0.7,-3 0.6,-3.1 0.6,-3.4 0.7,-3.6 0.6,-3.7 0.7,-4 0.6,-4.1 0.6,-4.4 0.7,-4.6 0.6,-4.7 0.6,-5 0.7,-5.1 0.6,-5.3 0.6,-5.5 0.7,-5.7 0.6,-5.8 0.7,-6 0.6,-6.2 0.6,-6.2 0.7,-6.5 0.6,-6.5 0.6,-6.7 0.7,-6.7 0.6,-6.9 0.6,-6.9 0.7,-7 0.6,-7.1 0.7,-7.1 0.6,-7.2 0.6,-7.2 0.7,-7.2 0.6,-7.2 0.6,-7.3 0.7,-7.2 0.6,-7.2 0.7,-7.2 0.6,-7.2 0.6,-7.2 0.7,-7.1 0.6,-7.1 0.6,-7 0.7,-7 0.6,-6.9 0.6,-6.8 0.7,-6.8 0.6,-6.7 0.7,-6.7 0.6,-6.6 0.6,-6.5 0.7,-6.5 0.6,-6.4 0.6,-6.3 0.7,-6.3 0.6,-6.2 0.6,-6.1 0.7,-6.1 0.6,-6 0.7,-6 0.6,-5.9 0.6,-5.9 0.7,-5.8 0.6,-5.8 0.6,-5.8 0.7,-5.7 0.6,-5.7 0.7,-5.7 0.6,-5.6 0.6,-5.6 0.7,-5.7 0.6,-5.6 0.6,-5.5 0.7,-5.6 0.6,-5.6 0.6,-5.6 0.7,-5.6 0.6,-5.6 0.7,-5.5 0.6,-5.6 0.6,-5.6 0.7,-5.6 0.6,-5.7 0.6,-5.6 0.7,-5.6 0.6,-5.7 0.6,-5.7 0.7,-5.7 0.6,-5.7 0.7,-5.7 0.6,-5.7 0.6,-5.7 0.7,-5.8 0.6,-5.7 0.6,-5.8 0.7,-5.8 0.6,-5.8 0.6,-5.8 0.7,-5.8 0.6,-5.8 0.7,-5.9 0.6,-5.8 0.6,-5.9 0.7,-5.8 0.6,-5.9 0.6,-5.8 0.7,-5.9 0.6,-5.8 0.7,-5.9 0.6,-5.9 0.6,-5.8 0.7,-5.9 0.6,-5.9 0.6,-5.9 0.7,-5.8 0.6,-5.9 0.6,-5.9 0.7,-5.8 0.6,-5.9 0.7,-5.9 0.6,-5.8 0.6,-5.9 0.7,-5.9 0.6,-5.8 0.6,-5.9 0.7,-5.9 0.6,-5.9 0.6,-5.8 0.7,-5.9 0.6,-5.9 0.7,-5.9 0.6,-5.9 0.6,-5.9 0.7,-5.9 0.6,-5.9 0.6,-5.9 0.7,-6 0.6,-5.9 0.6,-5.9 0.7,-6 0.6,-5.9 0.7,-6 0.6,-6 0.6,-6 0.7,-5.9 0.6,-6 0.6,-6.1 0.7,-6 0.6,-6 0.7,-6 0.6,-6.1 0.6,-6 0.7,-6 0.6,-6.1 0.6,-6.1 0.7,-6 0.6,-6.1 0.6,-6 0.7,-6.1 0.6,-6 0.7,-6.1 0.6,-6 0.6,-6.1 0.7,-6 0.6,-6 0.6,-6 0.7,-6 0.6,-6 0.6,-6 0.7,-6 0.6,-5.9 0.7,-5.9 0.6,-5.9 0.6,-5.9 0.7,-5.9 0.6,-5.8 0.6,-5.8 0.7,-5.8 0.6,-5.7 0.6,-5.7 0.7,-5.7 0.6,-5.6 0.7,-5.6 0.6,-5.6 0.6,-5.5 0.7,-5.5 0.6,-5.4 0.6,-5.4 0.7,-5.3 0.6,-5.3 0.7,-5.2 0.6,-5.2 0.6,-5.2 0.7,-5 0.6,-5.1 0.6,-4.9 0.7,-4.9 0.6,-4.9 0.6,-4.8 0.7,-4.7 0.6,-4.7 0.7,-4.6 0.6,-4.5 0.6,-4.5 0.7,-4.4 0.6,-4.3 0.6,-4.3 0.7,-4.2 0.6,-4.1 0.6,-4.1 0.7,-4 0.6,-4 0.7,-3.8 0.6,-3.8 0.6,-3.8 0.7,-3.7 0.6,-3.6 0.6,-3.5 0.7,-3.5 0.6,-3.5 0.6,-3.3 0.7,-3.3 0.6,-3.3 0.7,-3.2 0.6,-3.2 0.6,-3 0.7,-3.1 0.6,-3 0.6,-3 0.7,-2.901 0.6,-2.801 0.7,-2.796 0.6,-2.801 0.6,-2.801 0.7,-2.699 0.6,-2.699 0.6,-2.602 0.7,-2.602 0.6,-2.597 0.6,-2.602 0.7,-2.5 0.6,-2.5 0.7,-2.5 0.6,-2.398 0.6,-2.5 0.7,-2.403 0.6,-2.398 0.6,-2.301 0.7,-2.398 0.6,-2.301 0.6,-2.301 0.7,-2.199 0.6,-2.301 0.7,-2.199 0.6,-2.199 0.6,-2.199 0.7,-2.204 0.6,-2.097 0.6,-2.102 0.7,-2.097 0.6,-2.102 0.6,-2 0.7,-2 0.6,-2 0.7,-1.898 0.6,-1.903 0.6,-1.898 0.7,-1.903 0.6,-1.796 0.6,-1.801 0.7,-1.699 0.6,-1.704 0.7,-1.699 0.6,-1.699 0.6,-1.602 0.7,-1.597 0.6,-1.5 0.6,-1.5 0.7,-1.5 0.6,-1.403 0.6,-1.398 0.7,-1.398 0.6,-1.403 0.7,-1.301 0.6,-1.296 0.6,-1.204 0.7,-1.296 0.6,-1.204 0.6,-1.199 0.7,-1.199 0.6,-1.102 0.6,-1.097 0.7,-1.199 0.6,-1.102 0.7,-1 0.6,-1.102 0.6,-1 0.7,-1.097 0.6,-1 0.6,-1 0.7,-1 0.6,-1 0.7,-1 0.6,-1 0.6,-1 0.7,-1 0.6,-0.903 0.6,-1 0.7,-1 0.6,-0.898 0.6,-1 0.7,-0.898 0.6,-0.903 0.7,-1 0.6,-0.898 0.6,-0.903 0.7,-0.898 0.6,-0.898 0.6,-0.801 0.7,-0.903 0.6,-0.898 0.6,-0.801 0.7,-0.801 0.6,-0.898 0.7,-0.801 0.6,-0.699 0.6,-0.801 0.7,-0.801 0.6,-0.699 0.6,-0.699 0.7,-0.699 0.6,-0.602 0.6,-0.699 0.7,-0.602 0.6,-0.597 0.7,-0.602 0.6,-0.5 0.6,-0.597 0.7,-0.5 0.6,-0.5 0.6,-0.403 0.7,-0.5 0.6,-0.398 0.7,-0.403 0.6,-0.296 0.6,-0.403 0.7,-0.301 0.6,-0.296 0.6,-0.301 0.7,-0.301 0.6,-0.199 0.6,-0.199 0.7,-0.301 0.6,-0.199 0.7,-0.204 0.6,-0.097 0.6,-0.199 0.7,-0.102 0.6,-0.199 0.6,-0.102 0.7,-0.199 0.6,-0.102 0.6,-0.097 0.7,-0.102 0.6,-0.097 0.7,-0.102 0.6,-0.102 0.6,-0.097 0.7,-0.102 0.6,-0.097 0.6,-0.102 0.7,-0.199 0.6,-0.102 0.6,-0.097 0.7,-0.102 0.6,-0.102 0.7,-0.199 0.6,-0.097 0.6,-0.204 0.7,-0.097 0.6,-0.199 0.6,-0.204 0.7,-0.097 0.6,-0.199 0.7,-0.204 0.6,-0.199 0.6,-0.199 0.7,-0.199 0.6,-0.199 0.6,-0.301 0.7,-0.199 0.6,-0.204 0.6,-0.296 0.7,-0.204 0.6,-0.296 0.7,-0.301 0.6,-0.199 0.6,-0.301 0.7,-0.301 0.6,-0.199 0.6,-0.301 0.7,-0.301 0.6,-0.301 0.6,-0.296 0.7,-0.301 0.6,-0.199 0.7,-0.301 0.6,-0.301 0.6,-0.301 0.7,-0.301 0.6,-0.199 0.6,-0.301 0.7,-0.296 0.6,-0.204 0.6,-0.296 0.7,-0.301 0.6,-0.199 0.7,-0.301 0.6,-0.199 0.6,-0.204 0.7,-0.296 0.6,-0.204 0.6,-0.199 0.7,-0.199 0.6,-0.199 0.7,-0.199 0.6,-0.204 0.6,-0.199 0.7,-0.199 0.6,-0.102 0.6,-0.199 0.7,-0.199 0.6,-0.102 0.6,-0.199 0.7,-0.097 0.6,-0.102 0.7,-0.102 0.6,-0.199 0.6,-0.097 0.7,-0.102 0.6,-0.102 0.6,-0.097 0.7,-0.102 0.6,0 0.6,-0.097 0.7,-0.102 0.6,-0.102 0.7,0 0.6,-0.097" /><path
           inkscape:connector-curvature="0"
           id="path42476"
           style="fill:none;stroke:#5581b4;stroke-width:22.5;stroke-linecap:round;stroke-linejoin:round;stroke-miterlimit:10;stroke-opacity:1;stroke-dasharray:none"
           d="m 4266.9,811.301 0.6,0 0.7,-0.102 0.6,0 0.6,-0.097 0.7,0 0.6,-0.102 1.9,0 0.7,-0.102 1.9,0 0.6,-0.097 3.8,0 0.7,-0.102 1.9,0" /><path
           inkscape:connector-curvature="0"
           id="path42478"
           style="fill:none;stroke:#5581b4;stroke-width:15;stroke-linecap:round;stroke-linejoin:round;stroke-miterlimit:10;stroke-opacity:1;stroke-dasharray:45, 75;stroke-dashoffset:0"
           d="m 3948.8,720 0,2448" /><path
           inkscape:connector-curvature="0"
           id="path42480"
           style="fill:none;stroke:#5581b4;stroke-width:15;stroke-linecap:round;stroke-linejoin:round;stroke-miterlimit:10;stroke-opacity:1;stroke-dasharray:15, 45, 75, 45;stroke-dashoffset:0"
           d="m 3696,720 0,2448" /><path
           inkscape:connector-curvature="0"
           id="path42482"
           style="fill:none;stroke:#5581b4;stroke-width:15;stroke-linecap:round;stroke-linejoin:round;stroke-miterlimit:10;stroke-opacity:1;stroke-dasharray:15, 45, 75, 45;stroke-dashoffset:0"
           d="m 4197.9,720 0,2448" /><path
           inkscape:connector-curvature="0"
           id="path42484"
           style="fill:none;stroke:#fb0006;stroke-width:22.5;stroke-linecap:round;stroke-linejoin:round;stroke-miterlimit:10;stroke-opacity:1;stroke-dasharray:none"
           d="m 4110.7,810.699 4.7,0 1,0.102 4.7,0 1,0.097 2.8,0 1,0.102 1.9,0 0.9,0.102 1,0 0.9,0.097 1,0 0.9,0.102 1,0 0.9,0.097 0.9,0.102 1,0 0.9,0.102 1,0.097 0.9,0.102 1,0.097 0.9,0.102 1,0.102 0.9,0.199 1,0.097 0.9,0.102 1,0.199 0.9,0.199 1,0.102 0.9,0.199 1,0.199 0.9,0.204 1,0.199 0.9,0.301 1,0.199 0.9,0.301 1,0.296 0.9,0.301 0.9,0.301 1,0.301 0.9,0.301 1,0.398 0.9,0.398 1,0.403 0.9,0.398 1,0.403 0.9,0.398 1,0.5 0.9,0.398 1,0.5 0.9,0.602 1,0.5 0.9,0.5 1,0.602 0.9,0.597 1,0.602 0.9,0.597 1,0.602 0.9,0.699 1,0.602 0.9,0.699 0.9,0.699 1,0.699 0.9,0.704 1,0.796 0.9,0.704 1,0.796 0.9,0.801 1,0.699 0.9,0.801 1,0.801 0.9,0.801 1,0.801 0.9,0.796 1,0.903 0.9,0.801 1,0.796 0.9,0.801 1,0.801 0.9,0.801 1,0.898 0.9,0.801 1,0.801 0.9,0.801 0.9,0.699 1,0.801 0.9,0.796 1,0.704 0.9,0.796 1,0.704 0.9,0.699 1,0.699 0.9,0.699 1,0.602 0.9,0.699 1,0.602 0.9,0.597 1,0.602 0.9,0.597 1,0.602 0.9,0.602 1,0.5 0.9,0.5 1,0.597 0.9,0.5 1,0.5 0.9,0.5 0.9,0.5 1,0.5 0.9,0.5 1,0.403 0.9,0.5 1,0.5 0.9,0.5 1,0.5 0.9,0.5 1,0.597 0.9,0.5 1,0.602 0.9,0.597 1,0.602 0.9,0.602 1,0.597 0.9,0.699 1,0.704 0.9,0.796 1,0.704 0.9,0.796 1,0.903 0.9,0.898 0.9,0.903 1,1 0.9,1 1,1 0.9,1.097 1,1.102 0.9,1.199 1,1.199 0.9,1.301 1,1.301 0.9,1.301 1,1.398 0.9,1.398 1,1.403 0.9,1.5 1,1.5 0.9,1.5 1,1.597 0.9,1.602 1,1.602 0.9,1.597 1,1.699 0.9,1.704 0.9,1.597 1,1.699 0.9,1.704 1,1.796 0.9,1.704 1,1.699 0.9,1.699 1,1.699 0.9,1.699 1,1.704 0.9,1.699 1,1.699 0.9,1.699 1,1.699 0.9,1.602 1,1.699 0.9,1.602 1,1.597 0.9,1.704 1,1.597 0.9,1.5 1,1.602 0.9,1.597 0.9,1.5 1,1.602 0.9,1.602 1,1.5 0.9,1.5 1,1.597 0.9,1.5 1,1.602 0.9,1.597 1,1.5 0.9,1.602 1,1.602 0.9,1.597 1,1.699 0.9,1.602 1,1.699 0.9,1.699 1,1.704 0.9,1.796 1,1.801 0.9,1.801 1,1.898 0.9,1.903 0.9,1.898 1,2 0.9,2 1,2 0.9,2.102 1,2.097 0.9,2.204 1,2.097 0.9,2.301 1,2.3 0.9,2.3 1,2.3 0.9,2.4 1,2.5 0.9,2.4 1,2.6 0.9,2.5 1,2.6 0.9,2.6 1,2.7 0.9,2.7 1,2.7 0.9,2.8 0.9,2.8 1,2.9 0.9,2.9 1,2.9 0.9,3 1,3 0.9,3.1 1,3.1 0.9,3.2 1,3.2 0.9,3.2 1,3.3 0.9,3.4 1,3.4 0.9,3.5 1,3.5 0.9,3.6 1,3.7 0.9,3.7 1,3.8 0.9,3.9 1,4 0.9,4 0.9,4.1 1,4.2 0.9,4.3 1,4.3 0.9,4.5 1,4.5 0.9,4.7 1,4.7 0.9,4.8 1,4.9 0.9,5 1,5.1 0.9,5.2 1,5.3 0.9,5.4 1,5.5 0.9,5.5 1,5.7 0.9,5.8 1,5.8 0.9,5.9 1,6.1 0.9,6.1 0.9,6.2 1,6.2 0.9,6.4 1,6.4 0.9,6.5 1,6.5 0.9,6.6 1,6.7 0.9,6.7 1,6.8 0.9,6.8 1,6.8 0.9,6.9 1,6.9 0.9,6.9 1,6.9 0.9,7 1,7 0.9,6.9 1,7 0.9,7 1,6.9 0.9,7 0.9,6.9 1,7 0.9,6.9 1,6.8 0.9,6.9 1,6.8 0.9,6.8 1,6.7 0.9,6.8 1,6.6 0.9,6.7 1,6.6 0.9,6.6 1,6.5 0.9,6.5 1,6.4 0.9,6.4 1,6.4 0.9,6.3 1,6.3 0.9,6.2 1,6.2 0.9,6.2 0.9,6.1 1,6.1 0.9,6.1 1,6 0.9,6 1,6 0.9,5.9 1,5.9 0.9,5.9 1,5.8 0.9,5.8 1,5.8 0.9,5.8 1,5.7 0.9,5.8 1,5.6 0.9,5.7 1,5.6 0.9,5.6 1,5.6 0.9,5.5 1,5.4 0.9,5.5 0.9,5.4 1,5.3 0.9,5.4 1,5.2 0.9,5.2 1,5.2 0.9,5.1 1,5 0.9,5 1,4.9 0.9,4.8 1,4.7 0.9,4.7 1,4.5 0.9,4.5 1,4.4 0.9,4.3 1,4.2 0.9,4.1 1,4.1 0.9,3.9 1,3.7 0.9,3.7 0.9,3.6 1,3.4 0.9,3.3 1,3.3 0.9,3.1 1,2.9 0.9,2.9 1,2.7 0.9,2.6 1,2.5 0.9,2.4 1,2.3 0.9,2.1 1,2.1 0.9,1.9 1,1.8 0.9,1.8 1,1.6 0.9,1.5 1,1.5 0.9,1.3 1,1.3 0.9,1.2 0.9,1.1 1,1 0.9,1 1,0.9 0.9,0.9 1,0.8 0.9,0.8 1,0.8 0.9,0.7 1,0.7 0.9,0.6 1,0.7 0.9,0.6 1,0.7 0.9,0.6 1,0.7 0.9,0.6 1,0.7 0.9,0.7 1,0.8 0.9,0.7 1,0.8 0.9,0.9 0.9,0.8 1,1 0.9,0.9 1,1.1 0.9,1.1 1,1.1 0.9,1.2 1,1.3 0.9,1.3 1,1.4 0.9,1.4 1,1.6 0.9,1.6 1,1.6 0.9,1.7 1,1.8 0.9,1.8 1,1.9 0.9,2 1,2 0.9,2.1 1,2.1 0.9,2.2 0.9,2.2 1,2.2 0.9,2.3 1,2.3 0.9,2.3 1,2.3 0.9,2.4 1,2.3 0.9,2.4 1,2.3 0.9,2.4 1,2.3 0.9,2.2 1,2.3 0.9,2.1 1,2.2 0.9,2.1 1,2 0.9,1.9 1,1.8 0.9,1.8 1,1.7 0.9,1.5 0.9,1.5 1,1.3 0.9,1.2 1,1.1 0.9,0.9 1,0.8 0.9,0.7 1,0.5 0.9,0.4 1,0.2 0.9,0 1,-0.1 0.9,-0.3 1,-0.4 0.9,-0.6 1,-0.8 0.9,-0.9 1,-1.1 0.9,-1.2 1,-1.5 0.9,-1.5 1,-1.8 0.9,-1.8 0.9,-2 1,-2.2 0.9,-2.3 1,-2.5 0.9,-2.5 1,-2.7 0.9,-2.8 1,-2.9 0.9,-3 1,-3.2 0.9,-3.2 1,-3.3 0.9,-3.4 1,-3.4 0.9,-3.6 1,-3.6 0.9,-3.7 1,-3.8 0.9,-3.8 1,-3.9 0.9,-3.9 1,-4 0.9,-4.1 0.9,-4.1 1,-4.1 0.9,-4.2 1,-4.2 0.9,-4.3 1,-4.4 0.9,-4.4 1,-4.4 0.9,-4.5 1,-4.6 0.9,-4.6 1,-4.7 0.9,-4.7 1,-4.8 0.9,-4.8 1,-4.9 0.9,-5 1,-5.1 0.9,-5.1 1,-5.2 0.9,-5.2 1,-5.3 0.9,-5.4 0.9,-5.4 1,-5.5 0.9,-5.6 1,-5.6 0.9,-5.7 1,-5.8 0.9,-5.7 1,-5.9 0.9,-5.9 1,-5.9 0.9,-5.9 1,-6 0.9,-6 1,-6 0.9,-6.1 1,-6 0.9,-6.1 1,-6 0.9,-6.1 1,-6 0.9,-6 1,-6 0.9,-6 0.9,-5.9 1,-5.9 0.9,-5.8 1,-5.9 0.9,-5.7 1,-5.7 0.9,-5.7 1,-5.6 0.9,-5.6 1,-5.5 0.9,-5.5 1,-5.4 0.9,-5.3 1,-5.3 0.9,-5.2 1,-5.2 0.9,-5.2 1,-5.1 0.9,-5 1,-5 0.9,-5 1,-4.9 0.9,-4.9 0.9,-4.9 1,-4.8 0.9,-4.8 1,-4.8 0.9,-4.8 1,-4.8 0.9,-4.7 1,-4.8 0.9,-4.7 1,-4.7 0.9,-4.7 1,-4.8 0.9,-4.7 1,-4.7 0.9,-4.7 1,-4.7 0.9,-4.7 1,-4.8 0.9,-4.7 1,-4.7 0.9,-4.7 1,-4.7 0.9,-4.7 0.9,-4.7 1,-4.7 0.9,-4.7 1,-4.7 0.9,-4.6 1,-4.7 0.9,-4.6 1,-4.6 0.9,-4.5 1,-4.6 0.9,-4.5 1,-4.4 0.9,-4.5 1,-4.4 0.9,-4.3 1,-4.3 0.9,-4.3 1,-4.2 0.9,-4.2 1,-4.1 0.9,-4.1 1,-4 0.9,-4 0.9,-4 1,-3.9 0.9,-3.8 1,-3.8 0.9,-3.8 1,-3.7 0.9,-3.6 1,-3.7 0.9,-3.6 1,-3.5 0.9,-3.6 1,-3.5 0.9,-3.4 1,-3.5 0.9,-3.4 1,-3.4 0.9,-3.3 1,-3.4 0.9,-3.3 1,-3.4 0.9,-3.3 1,-3.3 0.9,-3.3 0.9,-3.3 1,-3.4 0.9,-3.3 1,-3.3 0.9,-3.3 1,-3.3 0.9,-3.3 1,-3.4 0.9,-3.3 1,-3.3 0.9,-3.4 1,-3.4 0.9,-3.3 1,-3.4 0.9,-3.4 1,-3.4 0.9,-3.4 1,-3.4 0.9,-3.4 1,-3.4 0.9,-3.5 0.9,-3.4 1,-3.4 0.9,-3.5 1,-3.4 0.9,-3.5 1,-3.4 0.9,-3.4 1,-3.5 0.9,-3.4 1,-3.5 0.9,-3.4 1,-3.5 0.9,-3.4 1,-3.4 0.9,-3.4 1,-3.4 0.9,-3.4 1,-3.4 0.9,-3.4 1,-3.4 0.9,-3.4 1,-3.4 0.9,-3.3 0.9,-3.4 1,-3.3 0.9,-3.3 1,-3.3 0.9,-3.3 1,-3.3 0.9,-3.3 1,-3.3 0.9,-3.2 1,-3.3 0.9,-3.2 1,-3.2 0.9,-3.2 1,-3.198 0.9,-3.204 1,-3.199 0.9,-3.097 1,-3.204 0.9,-3.097 1,-3.102 0.9,-3.097 1,-3 0.9,-3.102 0.9,-3 1,-3 0.9,-3 1,-3 0.9,-3 1,-2.898 0.9,-2.903 1,-2.898 0.9,-2.903 1,-2.796 0.9,-2.801 1,-2.801 0.9,-2.801 1,-2.801 0.9,-2.699 1,-2.699 0.9,-2.602 1,-2.699 0.9,-2.597 1,-2.602 0.9,-2.5 1,-2.5 0.9,-2.5 0.9,-2.398 1,-2.403 0.9,-2.398 1,-2.403 0.9,-2.296 1,-2.204 0.9,-2.199 1,-2.199 0.9,-2.102 1,-2.097 0.9,-2.102 1,-2 0.9,-1.898 1,-2 0.9,-1.801 1,-1.898 0.9,-1.704 1,-1.796 0.9,-1.602 1,-1.699 0.9,-1.5 1,-1.602 0.9,-1.5 0.9,-1.398 1,-1.403 0.9,-1.296 1,-1.301 0.9,-1.199 1,-1.204 0.9,-1.097 1,-1.102 0.9,-1 1,-1 0.9,-0.898 1,-0.903 0.9,-0.898 1,-0.801 0.9,-0.699 1,-0.699 0.9,-0.699 1,-0.602 0.9,-0.602 1,-0.597 0.9,-0.5 1,-0.5 0.9,-0.403 0.9,-0.5 1,-0.398 0.9,-0.301 1,-0.398 0.9,-0.301 1,-0.301 0.9,-0.301 1,-0.199 0.9,-0.301 1,-0.199 0.9,-0.301 1,-0.199 0.9,-0.199 1,-0.199 0.9,-0.301 1,-0.199 0.9,-0.199 1,-0.204 0.9,-0.199 1,-0.199 0.9,-0.301 1,-0.199 0.9,-0.301 0.9,-0.199 1,-0.301 0.9,-0.301 1,-0.296 0.9,-0.301 1,-0.301 0.9,-0.398 1,-0.301 0.9,-0.403 1,-0.398 0.9,-0.398 1,-0.403 0.9,-0.398 1,-0.403 0.9,-0.5 1,-0.398 0.9,-0.5 1,-0.398 0.9,-0.5 1,-0.5 0.9,-0.5 1,-0.5 0.9,-0.5 0.9,-0.5 1,-0.5 0.9,-0.403 1,-0.5 0.9,-0.5 1,-0.5 0.9,-0.5 1,-0.5 0.9,-0.5 1,-0.398 0.9,-0.5 1,-0.403 0.9,-0.5 1,-0.398 0.9,-0.398 1,-0.403 0.9,-0.398 1,-0.403 0.9,-0.296 1,-0.403 0.9,-0.301 1,-0.398 0.9,-0.301 0.9,-0.301 1,-0.296 0.9,-0.204 1,-0.296 0.9,-0.204 1,-0.296 0.9,-0.204 1,-0.199 0.9,-0.199 1,-0.199 0.9,-0.102 1,-0.199 0.9,-0.102 1,-0.199 0.9,-0.097 1,-0.102 0.9,-0.102 1,-0.199 0.9,0 1,-0.097 0.9,-0.102 1,-0.102 0.9,-0.097 0.9,0 1,-0.102 0.9,0 1,-0.097 1.9,0 0.9,-0.102 3.8,0 1,-0.102 5.7,0 0.9,0.102 4.7,0 1,0.102 2.8,0 1,0.097 0.9,0 1,0.102 1.9,0 0.9,0.097 1,0 0.9,0.102 1,0 0.9,0.102 1,0.097 0.9,0 1,0.102 0.9,0 1,0.097 0.9,0.102 1,0 0.9,0.102 0.9,0.097 1,0 0.9,0.102 1,0.097 0.9,0.102 1,0 0.9,0.102 1,0.097 0.9,0 1,0.102 0.9,0.097 1,0.102 0.9,0 1,0.102 0.9,0 1,0.097 0.9,0 1,0.102 0.9,0 1,0.097 0.9,0 1,0.102 2.8,0 0.9,0.102 6.7,0 0.9,-0.102 1.9,0 1,-0.102 1.9,0 0.9,-0.097 1,0 0.9,-0.102 1,0 0.9,-0.097 1,-0.102 0.9,0 0.9,-0.102 1,0 0.9,-0.097 1,-0.102 0.9,-0.097 1,0 0.9,-0.102 1,-0.102 0.9,0 1,-0.097 0.9,-0.102 1,-0.097 0.9,0 1,-0.102 0.9,-0.102 1,0 0.9,-0.097 1,-0.102 0.9,0 1,-0.097 0.9,0 1,-0.102 0.9,0 0.9,-0.102 1,0 0.9,-0.097 1,0 0.9,-0.102 1,0 0.9,-0.097 1.9,0 1,-0.102" /><path
           inkscape:connector-curvature="0"
           id="path42486"
           style="fill:none;stroke:#fb0006;stroke-width:15;stroke-linecap:round;stroke-linejoin:round;stroke-miterlimit:10;stroke-opacity:1;stroke-dasharray:45, 75;stroke-dashoffset:0"
           d="m 4543.7,720 0,2448" /><path
           inkscape:connector-curvature="0"
           id="path42488"
           style="fill:none;stroke:#fb0006;stroke-width:15;stroke-linecap:round;stroke-linejoin:round;stroke-miterlimit:10;stroke-opacity:1;stroke-dasharray:15, 45, 75, 45;stroke-dashoffset:0"
           d="m 4207.9,720 0,2448" /><path
           inkscape:connector-curvature="0"
           id="path42490"
           style="fill:none;stroke:#fb0006;stroke-width:15;stroke-linecap:round;stroke-linejoin:round;stroke-miterlimit:10;stroke-opacity:1;stroke-dasharray:15, 45, 75, 45;stroke-dashoffset:0"
           d="m 4879.2,720 0,2448" /><path
           inkscape:connector-curvature="0"
           id="path42492"
           style="fill:#ffffff;fill-opacity:1;fill-rule:nonzero;stroke:none"
           d="m 1546.7,2437.6 2083.4,0 0,691.199 -2083.4,0 0,-691.199 z" /><path
           inkscape:connector-curvature="0"
           id="path42494"
           style="fill:none;stroke:#000000;stroke-width:7.5;stroke-linecap:round;stroke-linejoin:round;stroke-miterlimit:10;stroke-opacity:1;stroke-dasharray:none"
           d="m 1546.7,2437.6 2083.4,0 0,691.199 -2083.4,0 0,-691.199 z" /><path
           inkscape:connector-curvature="0"
           id="path42496"
           style="fill:none;stroke:#000000;stroke-width:22.5;stroke-linecap:round;stroke-linejoin:round;stroke-miterlimit:10;stroke-opacity:1;stroke-dasharray:none"
           d="m 1676.3,2956 259.2,0" /><path
           inkscape:connector-curvature="0"
           id="path42498"
           style="fill:none;stroke:#5581b4;stroke-width:22.5;stroke-linecap:round;stroke-linejoin:round;stroke-miterlimit:10;stroke-opacity:1;stroke-dasharray:none"
           d="m 1676.3,2783.2 259.2,0" /><path
           inkscape:connector-curvature="0"
           id="path42500"
           style="fill:none;stroke:#fb0006;stroke-width:22.5;stroke-linecap:round;stroke-linejoin:round;stroke-miterlimit:10;stroke-opacity:1;stroke-dasharray:none"
           d="m 1676.3,2610.4 259.2,0" /><g
           transform="scale(10,10)"
           id="g42502"><text
             id="text42504"
             transform="matrix(1,0,0,-1,206.51,290.58)"><tspan
               id="tspan42506"
               sodipodi:role="line"
               y="0"
               x="0 10.108 17.892 21.784 29.568001 32.675999 39.675999 43.568001 48.08984 55.87384 62.87384 66.765839 74.549835"
               style="font-size:14px;font-variant:normal;font-weight:normal;writing-mode:lr-tb;fill:#000000;fill-opacity:1;fill-rule:nonzero;stroke:none;font-family:Arial;-inkscape-font-specification:Arial">No distractor</tspan><tspan
               id="tspan42508"
               sodipodi:role="line"
               y="17.2801"
               x="0 9.3380003 16.337999 24.122 31.122 38.905998 43.568001 51.352001 59.136002 66.919998 74.704002 81.704002 85.596001 93.379997 96.487999 103.488 107.38 111.90196 119.68596 126.68596 130.57796 138.36195"
               style="font-size:14px;font-variant:normal;font-weight:normal;writing-mode:lr-tb;fill:#000000;fill-opacity:1;fill-rule:nonzero;stroke:none;font-family:Arial;-inkscape-font-specification:Arial">Synchronous distractor</tspan><tspan
               id="tspan42510"
               sodipodi:role="line"
               y="34.5602"
               x="0 9.3380003 16.337999 23.337999 31.122 38.122002 45.905998 50.568001 58.352001 66.136002 73.919998 81.704002 88.704002 92.596001 100.38 103.488 110.488 114.38 118.90196 126.68596 133.68596 137.57796 145.36195"
               style="font-size:14px;font-variant:normal;font-weight:normal;writing-mode:lr-tb;fill:#000000;fill-opacity:1;fill-rule:nonzero;stroke:none;font-family:Arial;-inkscape-font-specification:Arial">Asynchronous distractor</tspan></text>
</g></g></g></g></svg>