<?xml version="1.0" encoding="UTF-8" standalone="no"?>
<!-- Created with Inkscape (http://www.inkscape.org/) -->

<svg
   xmlns:dc="http://purl.org/dc/elements/1.1/"
   xmlns:cc="http://creativecommons.org/ns#"
   xmlns:rdf="http://www.w3.org/1999/02/22-rdf-syntax-ns#"
   xmlns:svg="http://www.w3.org/2000/svg"
   xmlns="http://www.w3.org/2000/svg"
   xmlns:sodipodi="http://sodipodi.sourceforge.net/DTD/sodipodi-0.dtd"
   xmlns:inkscape="http://www.inkscape.org/namespaces/inkscape"
   id="svg45694"
   version="1.1"
   inkscape:version="0.91 r13725"
   width="720"
   height="450"
   xml:space="preserve"
   sodipodi:docname="bootstrap_errors.svg"
   inkscape:export-filename="/home/seb/models/linetask2014/paper/figures/bootstrap_errors.png"
   inkscape:export-xdpi="300"
   inkscape:export-ydpi="300"><metadata
     id="metadata45700"><rdf:RDF><cc:Work
         rdf:about=""><dc:format>image/svg+xml</dc:format><dc:type
           rdf:resource="http://purl.org/dc/dcmitype/StillImage" /><dc:title /></cc:Work></rdf:RDF></metadata><defs
     id="defs45698"><clipPath
       clipPathUnits="userSpaceOnUse"
       id="clipPath45710"><path
         d="m 720,720 4320,0 0,2448 -4320,0 0,-2448 z"
         id="path45712" /></clipPath><clipPath
       clipPathUnits="userSpaceOnUse"
       id="clipPath45774"><path
         d="m 720,720 4320,0 0,2448 -4320,0 0,-2448 z"
         id="path45776" /></clipPath></defs><sodipodi:namedview
     pagecolor="#ffffff"
     bordercolor="#666666"
     borderopacity="1"
     objecttolerance="10"
     gridtolerance="10"
     guidetolerance="10"
     inkscape:pageopacity="0"
     inkscape:pageshadow="2"
     inkscape:window-width="1328"
     inkscape:window-height="823"
     id="namedview45696"
     showgrid="false"
     inkscape:zoom="0.92777778"
     inkscape:cx="351.62816"
     inkscape:cy="241.07983"
     inkscape:window-x="0"
     inkscape:window-y="25"
     inkscape:window-maximized="0"
     inkscape:current-layer="g45702" /><g
     id="g45702"
     inkscape:groupmode="layer"
     inkscape:label="ink_ext_XXXXXX"
     transform="matrix(1.25,0,0,-1.25,0,450)"><g
       id="g45706"
       transform="scale(0.1,0.1)"><g
         clip-path="url(#clipPath45710)"
         id="g45708"><path
           inkscape:connector-curvature="0"
           id="path45714"
           style="fill:none;stroke:#000000;stroke-width:22.5;stroke-linecap:round;stroke-linejoin:round;stroke-miterlimit:10;stroke-opacity:1;stroke-dasharray:none"
           d="m 783.199,811 3,0.699 3,1 3,1.403 3,1.898 3,2.699 3,3.602 3.102,4.699 3,6.102 3,7.597 3,9.199 3,11.102 3,13 3,14.801 3,16.597 3,18.204 3,19.597 3,20.699 3,21.602 3,22.1 3,22.7 3,23.3 3,24 3.097,25.1 3,26.7 3,29.1 3,32.1 3,35.9 3,40.5 3,45.8 3,51.3 3,57.1 3,62.9 3,68.4 3,73.2 3,77.3 3,80.1 3,82 3,82.6 3,81.7 3.102,79.7 3,76.5 3,72.1 3,67 3,61 3,54.6 3,48.1 3,41.4 3,34.9 3,28.9 3,23.4 3,18.8 3,15.1 3,12.3 3,10.5 3,10.1 3.102,10.7 3,12.3 3,15 3,18.7 3,22.9 3,27.4 3,31.8 3,35.8 3,38.6 3,40 3,39.3 3,36.2 3,30.6 3,22.4 3,11.8 3,-0.6 3.097,-14.4 3.001,-28.6 3,-42.7 3,-56.1 3,-67.3 3,-76.4 3,-82.8 3,-86.3 3,-87.1 3,-85.3 3,-81.4 3,-75.8 3,-69.1 3,-61.8 3,-54.7 3,-48 3.1,-42.4 3,-37.9 3,-34.9 3,-33.5 3,-33.7 3,-35.1 3,-37.8 3,-41.4 3,-45.7 3,-49.9 3,-54 3,-57.5 3,-60.1 3,-61.8 3,-62.2 3,-61.4 3,-59.6 3.1,-56.6 3,-53 3,-48.7 3,-44.1 3,-39.4 3,-34.598 3,-30 3,-25.704 3,-21.699 3,-18.199 3,-15 3,-12.199 3,-9.801 3,-7.801 3,-6.097 3,-4.704 3.1,-3.597 3,-2.602 3,-2 3,-1.398 3,-1 3,-0.699 3,-0.403" /></g></g><path
       inkscape:connector-curvature="0"
       id="path45716"
       style="fill:none;stroke:#000000;stroke-width:0.75;stroke-linecap:round;stroke-linejoin:round;stroke-miterlimit:10;stroke-opacity:1;stroke-dasharray:none"
       d="M 154.67,72 488,72" /><path
       inkscape:connector-curvature="0"
       id="path45718"
       style="fill:none;stroke:#000000;stroke-width:0.75;stroke-linecap:round;stroke-linejoin:round;stroke-miterlimit:10;stroke-opacity:1;stroke-dasharray:none"
       d="m 154.67,72 0,-7.2" /><path
       inkscape:connector-curvature="0"
       id="path45720"
       style="fill:none;stroke:#000000;stroke-width:0.75;stroke-linecap:round;stroke-linejoin:round;stroke-miterlimit:10;stroke-opacity:1;stroke-dasharray:none"
       d="m 238,72 0,-7.2" /><path
       inkscape:connector-curvature="0"
       id="path45722"
       style="fill:none;stroke:#000000;stroke-width:0.75;stroke-linecap:round;stroke-linejoin:round;stroke-miterlimit:10;stroke-opacity:1;stroke-dasharray:none"
       d="m 321.33,72 0,-7.2" /><path
       inkscape:connector-curvature="0"
       id="path45724"
       style="fill:none;stroke:#000000;stroke-width:0.75;stroke-linecap:round;stroke-linejoin:round;stroke-miterlimit:10;stroke-opacity:1;stroke-dasharray:none"
       d="m 404.67,72 0,-7.2" /><path
       inkscape:connector-curvature="0"
       id="path45726"
       style="fill:none;stroke:#000000;stroke-width:0.75;stroke-linecap:round;stroke-linejoin:round;stroke-miterlimit:10;stroke-opacity:1;stroke-dasharray:none"
       d="m 488,72 0,-7.2" /><g
       id="g45728"><text
         id="text45730"
         transform="matrix(1,0,0,-1,133.265,38.8801)"><tspan
           id="tspan45732"
           sodipodi:role="line"
           y="0"
           x="0 12.232 18.348 30.58 83.330063 95.562057 101.67806 113.91006 166.65968 178.89168 185.00768 197.23969 249.99986 262.23187 268.34787 280.57986 333.32993 345.56192 351.67792 363.90991"
           style="font-size:22px;font-variant:normal;font-weight:normal;writing-mode:lr-tb;fill:#000000;fill-opacity:1;fill-rule:nonzero;stroke:none;font-family:Arial;-inkscape-font-specification:Arial">0.050.100.150.200.25</tspan></text>
</g><path
       inkscape:connector-curvature="0"
       id="path45734"
       style="fill:none;stroke:#000000;stroke-width:0.75;stroke-linecap:round;stroke-linejoin:round;stroke-miterlimit:10;stroke-opacity:1;stroke-dasharray:none"
       d="M 72,80.9801 72,294.77" /><path
       inkscape:connector-curvature="0"
       id="path45736"
       style="fill:none;stroke:#000000;stroke-width:0.75;stroke-linecap:round;stroke-linejoin:round;stroke-miterlimit:10;stroke-opacity:1;stroke-dasharray:none"
       d="m 72,80.9801 -7.2,0" /><path
       inkscape:connector-curvature="0"
       id="path45738"
       style="fill:none;stroke:#000000;stroke-width:0.75;stroke-linecap:round;stroke-linejoin:round;stroke-miterlimit:10;stroke-opacity:1;stroke-dasharray:none"
       d="m 72,123.74 -7.2,0" /><path
       inkscape:connector-curvature="0"
       id="path45740"
       style="fill:none;stroke:#000000;stroke-width:0.75;stroke-linecap:round;stroke-linejoin:round;stroke-miterlimit:10;stroke-opacity:1;stroke-dasharray:none"
       d="m 72,166.5 -7.2,0" /><path
       inkscape:connector-curvature="0"
       id="path45742"
       style="fill:none;stroke:#000000;stroke-width:0.75;stroke-linecap:round;stroke-linejoin:round;stroke-miterlimit:10;stroke-opacity:1;stroke-dasharray:none"
       d="m 72,209.25 -7.2,0" /><path
       inkscape:connector-curvature="0"
       id="path45744"
       style="fill:none;stroke:#000000;stroke-width:0.75;stroke-linecap:round;stroke-linejoin:round;stroke-miterlimit:10;stroke-opacity:1;stroke-dasharray:none"
       d="m 72,252.01 -7.2,0" /><path
       inkscape:connector-curvature="0"
       id="path45746"
       style="fill:none;stroke:#000000;stroke-width:0.75;stroke-linecap:round;stroke-linejoin:round;stroke-miterlimit:10;stroke-opacity:1;stroke-dasharray:none"
       d="m 72,294.77 -7.2,0" /><g
       id="g45748"><text
         id="text45750"
         transform="matrix(0,1,1,0,47.5199,74.8641)"><tspan
           id="tspan45752"
           sodipodi:role="line"
           y="0"
           x="0 36.644081 48.87608 122.15434 134.38634 201.55872 213.79073 226.02272"
           style="font-size:22px;font-variant:normal;font-weight:normal;writing-mode:lr-tb;fill:#000000;fill-opacity:1;fill-rule:nonzero;stroke:none;font-family:Arial;-inkscape-font-specification:Arial">02060100</tspan></text>
</g><path
       inkscape:connector-curvature="0"
       id="path45754"
       style="fill:none;stroke:#000000;stroke-width:0.75;stroke-linecap:round;stroke-linejoin:round;stroke-miterlimit:10;stroke-opacity:1;stroke-dasharray:none"
       d="m 72,72 432,0 0,244.8 -432,0 L 72,72" /><text
       transform="scale(1,-1)"
       id="text45758"
       x="76.849998"
       y="-331.57999"><tspan
         style="font-size:19px;font-variant:normal;font-weight:bold;writing-mode:lr-tb;fill:#000000;fill-opacity:1;fill-rule:nonzero;stroke:none;font-family:Arial;-inkscape-font-specification:Arial"
         x="76.849998 90.568001 95.849998 106.414 112.741 120.132 125.414 136.64297 148.25197 154.57898 159.86098 171.46997 183.07898 193.64297 198.92497 210.53398 216.86098 222.14297 233.75198 245.36098 256.96997 263.29697 273.86096 280.18796 287.57898 298.14297 309.75198 321.36096 331.92496 343.53397 348.81598 359.37997 366.77097 373.78204 385.39105 392.78204 398.06406 405.45505 416.01904 422.34604 432.91003 438.19205 455.08304 465.64703 476.21106 487.82004"
         y="-331.57999"
         sodipodi:role="line"
         id="tspan45760">Distributions of bootstrapped error rate means</tspan></text>
<text
       transform="scale(1,-1)"
       id="text45762"
       x="241.55"
       y="-10.08"><tspan
         style="font-size:22px;font-variant:normal;font-weight:normal;writing-mode:lr-tb;fill:#000000;fill-opacity:1;fill-rule:nonzero;stroke:none;font-family:Arial;-inkscape-font-specification:Arial"
         x="241.55 256.224 263.54999 270.87601 283.108 290.43399 296.54999 303.65585 315.88785 322.00385"
         y="-10.08"
         sodipodi:role="line"
         id="tspan45764">Error rate</tspan></text>
<text
       transform="matrix(0,1,1,0,0,0)"
       id="text45766"
       x="157.72701"
       y="18.7199"><tspan
         style="font-size:22px;font-variant:normal;font-weight:normal;writing-mode:lr-tb;fill:#000000;fill-opacity:1;fill-rule:nonzero;stroke:none;font-family:Arial;-inkscape-font-specification:Arial"
         x="157.72701 173.61099 185.843 198.075 209.075 213.959 220.075"
         y="18.7199"
         sodipodi:role="line"
         id="tspan45768">Density</tspan></text>
<g
       id="g45770"
       transform="scale(0.1,0.1)"><g
         clip-path="url(#clipPath45774)"
         id="g45772"><path
           inkscape:connector-curvature="0"
           id="path45778"
           style="fill:none;stroke:#bebebe;stroke-width:0.80000001;stroke-linecap:round;stroke-linejoin:round;stroke-miterlimit:10;stroke-opacity:1;stroke-dasharray:none"
           d="m 720,809.801 4320,0" /><path
           inkscape:connector-curvature="0"
           id="path45780"
           style="fill:none;stroke:#000000;stroke-width:15;stroke-linecap:round;stroke-linejoin:round;stroke-miterlimit:10;stroke-opacity:1;stroke-dasharray:45, 75;stroke-dashoffset:0"
           d="m 984.199,720 0,2448" /><path
           inkscape:connector-curvature="0"
           id="path45782"
           style="fill:none;stroke:#000000;stroke-width:15;stroke-linecap:round;stroke-linejoin:round;stroke-miterlimit:10;stroke-opacity:1;stroke-dasharray:15, 45, 75, 45;stroke-dashoffset:0"
           d="m 888.102,720 0,2448" /><path
           inkscape:connector-curvature="0"
           id="path45784"
           style="fill:none;stroke:#000000;stroke-width:15;stroke-linecap:round;stroke-linejoin:round;stroke-miterlimit:10;stroke-opacity:1;stroke-dasharray:15, 45, 75, 45;stroke-dashoffset:0"
           d="m 1072.4,720 0,2448" /><path
           inkscape:connector-curvature="0"
           id="path45786"
           style="fill:none;stroke:#5581b4;stroke-width:22.5;stroke-linecap:round;stroke-linejoin:round;stroke-miterlimit:10;stroke-opacity:1;stroke-dasharray:none"
           d="m 2258.7,810.301 10.1,0.301 10.1,0.5 10,0.699 10.1,1.097 10.1,1.5 10.1,2.102 10.1,2.898 10.1,3.903 10.1,5.097 10.1,6.403 10,7.898 10.1,9.5 10.1,11.301 10.1,13 10.1,14.801 10.1,16.301 10.1,17.796 10.1,18.903 10,19.898 10.1,20.403 10.1,20.598 10.1,20.4 10.1,20.1 10.1,19.3 10.1,18.4 10.1,17.5 10,16.3 10.1,15.4 10.1,14.5 10.1,13.7 10.1,13.1 10.1,12.6 10.1,12.4 10.1,12.5 10,12.6 10.1,13.2 10.1,13.9 10.1,14.9 10.1,16.1 10.1,17.5 10.1,18.7 10.1,19.9 10,20.8 10.1,21.3 10.1,21.4 10.1,20.9 10.1,20.1 10.1,19 10.1,17.6 10.1,16.3 10,14.9 10.1,13.7 10.1,12.6 10.1,11.5 10.1,10.5 10.1,9.2 10.1,7.6 10.1,5.7 10,3.1 10.1,0.2 10.1,-3.1 10.1,-6.7 10.1,-10.4 10.1,-14 10.1,-17.4 10.1,-20.3 10,-23 10.1,-25.2 10.1,-27.2 10.1,-28.7 10.1,-30.1 10.1,-31.4 10.1,-32.5 10.1,-33.5 10,-34.2 10.1,-34.7 10.1,-34.8 10.1,-34.5 10.1,-33.7 10.1,-32.5 10.1,-30.9 10.1,-28.9 10.1,-26.599 10,-24.102 10.1,-21.597 10.1,-19.102 10.1,-16.602 10.1,-14.398 10.1,-12.199 10.1,-10.199 10.1,-8.301 10,-6.403 10.1,-4.597 10.1,-2.801 10.1,-1.102 10.1,0.403 10.1,1.801 10.1,2.796 10.1,3.704 10,4 10.1,4 10.1,3.597 10.1,2.801 10.1,1.801 10.1,0.597 10.1,-0.796 10.1,-2.102 10,-3.301 10.1,-4.301 10.1,-5.097 10.1,-5.5 10.1,-5.801 10.1,-5.699 10.1,-5.403 10.1,-5 10,-4.398 10.1,-3.898 10.1,-3.204 10.1,-2.597 10.1,-2.102 10.1,-1.5 10.1,-1.199 10.1,-0.898 10,-0.602 10.1,-0.398 10.1,-0.301 10.1,-0.199" /><path
           inkscape:connector-curvature="0"
           id="path45788"
           style="fill:none;stroke:#5581b4;stroke-width:15;stroke-linecap:round;stroke-linejoin:round;stroke-miterlimit:10;stroke-opacity:1;stroke-dasharray:45, 75;stroke-dashoffset:0"
           d="m 2800,720 0,2448" /><path
           inkscape:connector-curvature="0"
           id="path45790"
           style="fill:none;stroke:#5581b4;stroke-width:15;stroke-linecap:round;stroke-linejoin:round;stroke-miterlimit:10;stroke-opacity:1;stroke-dasharray:15, 45, 75, 45;stroke-dashoffset:0"
           d="m 2525.3,720 0,2448" /><path
           inkscape:connector-curvature="0"
           id="path45792"
           style="fill:none;stroke:#5581b4;stroke-width:15;stroke-linecap:round;stroke-linejoin:round;stroke-miterlimit:10;stroke-opacity:1;stroke-dasharray:15, 45, 75, 45;stroke-dashoffset:0"
           d="m 3063.2,720 0,2448" /><path
           inkscape:connector-curvature="0"
           id="path45794"
           style="fill:none;stroke:#fb0006;stroke-width:22.5;stroke-linecap:round;stroke-linejoin:round;stroke-miterlimit:10;stroke-opacity:1;stroke-dasharray:none"
           d="m 3090.9,810 13,0.102 13,0.199 13,0.199 13,0.301 13.1,0.398 13,0.602 13,0.801 13,1 13,1.199 13,1.597 13.1,2 13,2.301 13,2.801 13,3.398 13,3.801 13,4.5 13.1,5 13,5.699 13,6.403 13,7 13,7.699 13,8.398 13.1,9 13,9.704 13,10.097 13,10.699 13,11.102 13,11.301 13.1,11.699 13,11.699 13,12 13,12 13,12.199 13,12.302 13.1,12.4 13,12.8 13,13.1 13,13.6 13,14.2 13,14.9 13.1,15.7 13,16.5 13,17.4 13,18.2 13,19.1 13,19.6 13.1,20.2 13,20.4 13,20.2 13,19.7 13,18.8 13,17.3 13.1,15.4 13,12.8 13,10 13,6.6 13,3.1 13,-0.7 13.1,-4.5 13,-8 13,-11.1 13,-13.7 13,-15.5 13.1,-16.6 13,-16.7 13,-16 13,-14.6 13,-12.5 13,-10 13.1,-7.2 13,-4.7 13,-2.3 13,-0.5 13,0.8 13,1.3 13.1,1.2 13,0.4 13,-1 13,-2.6 13,-4.4 13,-6.3 13.1,-8.1 13,-9.4 13,-10.7 13,-11.4 13,-11.9 13,-12.1 13.1,-12.2 13,-12.3 13,-12.4 13,-12.7 13,-13.1 13,-13.6 13.1,-14.4 13,-15.1 13,-15.8 13,-16.3 13,-16.699 13,-16.801 13.1,-16.398 13,-15.903 13,-15.097 13,-13.903 13,-12.801 13,-11.398 13.1,-10.102 13,-8.796 13,-7.602 13,-6.5 13,-5.602 13,-4.699 13.1,-4.097 13,-3.403 13,-2.898 13,-2.403 13,-2 13,-1.699 13.1,-1.398 13,-1.102 13,-0.898 13,-0.602 13,-0.597 13,-0.403 13.1,-0.199 13,-0.199 13,-0.199 13,-0.102" /><path
           inkscape:connector-curvature="0"
           id="path45796"
           style="fill:none;stroke:#fb0006;stroke-width:15;stroke-linecap:round;stroke-linejoin:round;stroke-miterlimit:10;stroke-opacity:1;stroke-dasharray:45, 75;stroke-dashoffset:0"
           d="m 3937.3,720 0,2448" /><path
           inkscape:connector-curvature="0"
           id="path45798"
           style="fill:none;stroke:#fb0006;stroke-width:15;stroke-linecap:round;stroke-linejoin:round;stroke-miterlimit:10;stroke-opacity:1;stroke-dasharray:15, 45, 75, 45;stroke-dashoffset:0"
           d="m 3522.2,720 0,2448" /><path
           inkscape:connector-curvature="0"
           id="path45800"
           style="fill:none;stroke:#fb0006;stroke-width:15;stroke-linecap:round;stroke-linejoin:round;stroke-miterlimit:10;stroke-opacity:1;stroke-dasharray:15, 45, 75, 45;stroke-dashoffset:0"
           d="m 4315.4,720 0,2448" /><path
           inkscape:connector-curvature="0"
           id="path45802"
           style="fill:#ffffff;fill-opacity:1;fill-rule:nonzero;stroke:none"
           d="m 1380,2105.1 988.898,0 0,864 -988.898,0 0,-864 z" /><path
           inkscape:connector-curvature="0"
           id="path45804"
           style="fill:none;stroke:#000000;stroke-width:7.5;stroke-linecap:round;stroke-linejoin:round;stroke-miterlimit:10;stroke-opacity:1;stroke-dasharray:none"
           d="m 1380,2105.1 988.898,0 0,864 -988.898,0 0,-864 z" /><path
           inkscape:connector-curvature="0"
           id="path45806"
           style="fill:none;stroke:#000000;stroke-width:22.5;stroke-linecap:round;stroke-linejoin:round;stroke-miterlimit:10;stroke-opacity:1;stroke-dasharray:none"
           d="m 1542,2753.1 324,0" /><path
           inkscape:connector-curvature="0"
           id="path45808"
           style="fill:none;stroke:#5581b4;stroke-width:22.5;stroke-linecap:round;stroke-linejoin:round;stroke-miterlimit:10;stroke-opacity:1;stroke-dasharray:none"
           d="m 1542,2537.1 324,0" /><path
           inkscape:connector-curvature="0"
           id="path45810"
           style="fill:none;stroke:#fb0006;stroke-width:22.5;stroke-linecap:round;stroke-linejoin:round;stroke-miterlimit:10;stroke-opacity:1;stroke-dasharray:none"
           d="m 1542,2321.1 324,0" /><g
           transform="scale(10,10)"
           id="g45812"><text
             id="text45814"
             transform="matrix(1,0,0,-1,202.8,268.84)"><tspan
               id="tspan45816"
               sodipodi:role="line"
               y="0"
               x="0 12.996"
               style="font-size:18px;font-variant:normal;font-weight:normal;writing-mode:lr-tb;fill:#000000;fill-opacity:1;fill-rule:nonzero;stroke:none;font-family:Arial;-inkscape-font-specification:Arial">ND</tspan><tspan
               id="tspan45818"
               sodipodi:role="line"
               y="21.6"
               x="0 12.006"
               style="font-size:18px;font-variant:normal;font-weight:normal;writing-mode:lr-tb;fill:#000000;fill-opacity:1;fill-rule:nonzero;stroke:none;font-family:Arial;-inkscape-font-specification:Arial">SD</tspan><tspan
               id="tspan45820"
               sodipodi:role="line"
               y="43.200001"
               x="0 12.006"
               style="font-size:18px;font-variant:normal;font-weight:normal;writing-mode:lr-tb;fill:#000000;fill-opacity:1;fill-rule:nonzero;stroke:none;font-family:Arial;-inkscape-font-specification:Arial">AD</tspan></text>
</g></g></g></g></svg>