<?xml version="1.0" encoding="UTF-8" standalone="no"?>
<!-- Created with Inkscape (http://www.inkscape.org/) -->

<svg
   xmlns:dc="http://purl.org/dc/elements/1.1/"
   xmlns:cc="http://creativecommons.org/ns#"
   xmlns:rdf="http://www.w3.org/1999/02/22-rdf-syntax-ns#"
   xmlns:svg="http://www.w3.org/2000/svg"
   xmlns="http://www.w3.org/2000/svg"
   xmlns:sodipodi="http://sodipodi.sourceforge.net/DTD/sodipodi-0.dtd"
   xmlns:inkscape="http://www.inkscape.org/namespaces/inkscape"
   id="svg42104"
   version="1.1"
   inkscape:version="0.91 r13725"
   width="720"
   height="450"
   xml:space="preserve"
   sodipodi:docname="data_density.svg"
   inkscape:export-filename="/home/seb/models/linetask2014/paper/figures/data_density.png"
   inkscape:export-xdpi="300"
   inkscape:export-ydpi="300"><metadata
     id="metadata42110"><rdf:RDF><cc:Work
         rdf:about=""><dc:format>image/svg+xml</dc:format><dc:type
           rdf:resource="http://purl.org/dc/dcmitype/StillImage" /><dc:title /></cc:Work></rdf:RDF></metadata><defs
     id="defs42108"><clipPath
       clipPathUnits="userSpaceOnUse"
       id="clipPath42120"><path
         d="m 720,720 4320,0 0,2448 -4320,0 0,-2448 z"
         id="path42122" /></clipPath><clipPath
       clipPathUnits="userSpaceOnUse"
       id="clipPath42192"><path
         d="m 720,720 4320,0 0,2448 -4320,0 0,-2448 z"
         id="path42194" /></clipPath></defs><sodipodi:namedview
     pagecolor="#ffffff"
     bordercolor="#666666"
     borderopacity="1"
     objecttolerance="10"
     gridtolerance="10"
     guidetolerance="10"
     inkscape:pageopacity="0"
     inkscape:pageshadow="2"
     inkscape:window-width="1600"
     inkscape:window-height="828"
     id="namedview42106"
     showgrid="false"
     inkscape:zoom="0.92777778"
     inkscape:cx="194.69519"
     inkscape:cy="212.52033"
     inkscape:window-x="0"
     inkscape:window-y="25"
     inkscape:window-maximized="1"
     inkscape:current-layer="g42112" /><g
     id="g42112"
     inkscape:groupmode="layer"
     inkscape:label="ink_ext_XXXXXX"
     transform="matrix(1.25,0,0,-1.25,0,450)"><g
       id="g42116"
       transform="scale(0.1,0.1)"><g
         clip-path="url(#clipPath42120)"
         id="g42118"><path
           inkscape:connector-curvature="0"
           id="path42124"
           style="fill:none;stroke:#000000;stroke-width:22.5;stroke-linecap:round;stroke-linejoin:round;stroke-miterlimit:10;stroke-opacity:1;stroke-dasharray:none"
           d="m 70.6992,810.699 7.1992,0 3.6016,0.102 10.8008,0 3.5976,0.097 7.2036,0 3.597,0.102 3.699,0 3.602,0.102 3.602,0 3.597,0.097 3.602,0.102 3.597,0.097 3.602,0.102 3.602,0.102 3.597,0.097 3.602,0.102 3.597,0.199 3.602,0.102 3.699,0.199 3.602,0.199 3.597,0.199 3.602,0.199 3.602,0.301 3.597,0.199 3.602,0.301 3.597,0.301 3.602,0.199 3.602,0.403 3.597,0.296 3.699,0.301 3.602,0.403 3.602,0.296 3.597,0.403 3.602,0.398 3.597,0.301 3.602,0.398 3.602,0.403 3.597,0.398 3.602,0.403 3.597,0.296 3.704,0.403 3.597,0.398 3.602,0.301 3.597,0.301 3.602,0.301 3.602,0.296 3.597,0.301 3.602,0.301 3.597,0.199 3.602,0.199 3.602,0.204 3.699,0.097 3.597,0.102 3.602,0.097 3.602,0.102 3.597,0.102 10.801,0 3.602,-0.102 3.597,0 3.602,-0.102 3.699,0 3.602,-0.097 3.597,-0.102 3.602,0 3.597,-0.097 10.801,0 3.602,0.097 3.597,0.102 3.602,0.097 3.699,0.204 3.602,0.199 3.597,0.301 3.602,0.296 3.602,0.403 3.597,0.398 3.602,0.5 3.597,0.602 3.602,0.597 3.602,0.704 3.597,0.699 3.699,0.801 3.602,0.898 3.602,0.898 3.597,0.903 3.602,1 3.597,1 3.602,1.097 3.602,1.102 3.597,1.102 3.602,1.199 3.597,1.097 3.704,1.102 3.597,1.199 3.602,1.102 3.597,1.199 3.602,1 3.602,1.102 3.597,1.097 3.602,1 3.597,0.903 3.602,0.898 3.602,0.898 3.699,0.801 3.597,0.699 3.602,0.704 3.602,0.597 3.597,0.602 3.602,0.5 3.597,0.398 3.602,0.301 3.602,0.301 3.597,0.199 3.602,0.102 3.699,0.097 3.602,0 3.597,-0.097 3.602,-0.102 3.597,-0.199 3.602,-0.199 3.602,-0.403 3.597,-0.301 3.602,-0.5 3.597,-0.398 3.602,-0.602 3.699,-0.597 3.602,-0.602 3.597,-0.597 3.602,-0.704 3.602,-0.699 3.597,-0.699 3.602,-0.801 3.597,-0.801 3.602,-0.699 3.602,-0.801 3.597,-0.796 3.699,-0.704 3.602,-0.796 3.602,-0.704 3.597,-0.699 3.602,-0.597 3.597,-0.602 3.602,-0.602 3.602,-0.5 3.597,-0.5 3.602,-0.398 3.597,-0.398 3.704,-0.301 3.597,-0.301 3.602,-0.199 3.597,-0.199 3.602,-0.102 7.199,0 3.602,0.102 3.597,0.097 3.602,0.102 3.602,0.199 3.597,0.301 3.699,0.301 3.602,0.296 3.602,0.301 3.597,0.301 3.602,0.398 3.597,0.403 3.602,0.398 3.602,0.403 3.597,0.5 3.602,0.398 3.597,0.5 3.704,0.5 3.597,0.5 3.602,0.5 3.597,0.5 3.602,0.602 3.602,0.597 3.597,0.602 3.602,0.699 3.597,0.699 3.602,0.699 3.602,0.801 3.699,0.903 3.597,0.898 3.602,1 3.602,1.102 3.597,1.199 3.602,1.199 3.597,1.398 3.602,1.403 3.602,1.5 3.597,1.699 3.602,1.699 3.699,1.699 3.602,1.903 3.597,2 3.602,2.097 3.597,2.102 3.602,2.301 3.602,2.301 3.597,2.398 3.602,2.398 3.597,2.5 3.602,2.602 3.699,2.699 3.602,2.602 3.597,2.801 3.602,2.796 3.602,2.801 3.597,2.903 3.602,2.898 3.597,3 3.602,3 3.602,3.102 3.597,3.199 3.699,3.199 3.602,3.301 3.602,3.398 3.597,3.403 3.602,3.597 3.597,3.602 3.602,3.801 3.602,3.898 3.597,4.102 3.602,4.199 3.597,4.398 3.704,4.5 3.597,4.801 3.602,4.898 3.597,5.102 3.602,5.301 3.602,5.5 3.597,5.801 3.602,5.998 3.597,6.2 3.602,6.4 3.602,6.6 3.699,6.9 3.597,7 3.602,7.3 3.602,7.5 3.597,7.7 3.602,7.9 3.597,8 3.602,8.2 3.602,8.4 3.597,8.5 3.602,8.7 3.699,8.9 3.602,8.9 3.597,9.1 3.601,9.3 3.6,9.3 3.6,9.5 3.6,9.6 3.6,9.7 3.6,9.9 3.6,10 3.6,10.2 3.7,10.3 3.6,10.4 3.6,10.6 3.6,10.8 3.6,11 3.6,11.2 3.6,11.3 3.6,11.6 3.6,11.8 3.6,12.1 3.6,12.2 3.7,12.5 3.6,12.8 3.6,13 3.6,13.2 3.6,13.5 3.6,13.7 3.6,14.1 3.6,14.2 3.6,14.5 3.6,14.8 3.6,15 3.7,15.2 3.6,15.5 3.6,15.8 3.6,16 3.6,16.4 3.6,16.5 3.6,16.9 3.6,17.1 3.6,17.4 3.6,17.7 3.6,18 3.6,18.4 3.7,18.7 3.6,19 3.6,19.3 3.6,19.7 3.6,20 3.6,20.3 3.6,20.6 3.6,21 3.6,21.2 3.6,21.6 3.6,21.8 3.7,21.9 3.6,22.2 3.6,22.2 3.6,22.4 3.6,22.4 3.6,22.3 3.6,22.3 3.6,22 3.6,21.9 3.6,21.5 3.6,21.2 3.7,20.8 3.6,20.3 3.6,19.7 3.6,19.1 3.6,18.4 3.6,17.6 3.6,16.9 3.6,16 3.6,15.3 3.6,14.3 3.6,13.5 3.7,12.6 3.6,11.7 3.6,10.7 3.6,9.9 3.6,9 3.6,8.1 3.6,7.4 3.6,6.7 3.6,6 3.6,5.3 3.6,4.7 3.7,4 3.6,3.6 3.6,3.2 3.6,2.7 3.6,2.5 3.6,2.2 3.6,1.9 3.6,1.7 3.6,1.6 3.6,1.5 3.6,1.4 3.7,1.4 3.6,1.3 3.6,1.4 3.6,1.3 3.6,1.4 3.6,1.4 3.6,1.4 3.6,1.5 3.6,1.4 3.6,1.5 3.6,1.5 3.7,1.5 3.6,1.4 3.6,1.4 3.6,1.4 3.6,1.3 3.6,1.3 3.6,1.2 3.6,1 3.6,1 3.6,0.9 3.6,0.7 3.7,0.6 3.6,0.5 3.6,0.4 3.6,0.2 3.6,0.1 3.6,-0.1 3.6,-0.2 3.6,-0.3 3.6,-0.5 3.6,-0.7 3.6,-0.8 3.7,-1 3.6,-1.2 3.6,-1.3 3.6,-1.6 3.6,-1.8 3.6,-2 3.6,-2.3 3.6,-2.6 3.6,-2.8 3.6,-3.1 3.6,-3.5 3.7,-3.8 3.6,-4.2 3.6,-4.5 3.6,-4.9 3.6,-5.2 3.6,-5.7 3.6,-6 3.6,-6.5 3.6,-6.9 3.6,-7.3 3.6,-7.7 3.7,-8 3.6,-8.4 3.6,-8.8 3.6,-9 3.6,-9.4 3.6,-9.7 3.6,-9.9 3.6,-10.2 3.6,-10.5 3.6,-10.6 3.6,-10.8 3.7,-10.9 3.6,-11.1 3.6,-11.3 3.6,-11.3 3.6,-11.5 3.6,-11.6 3.6,-11.7 3.6,-11.7 3.6,-11.9 3.6,-11.9 3.6,-12.1 3.6,-12.1 3.7,-12.3 3.6,-12.4 3.6,-12.5 3.6,-12.6 3.6,-12.8 3.6,-12.9 3.6,-13 3.6,-13.2 3.6,-13.3 3.6,-13.4 3.6,-13.5 3.7,-13.7 3.6,-13.7 3.6,-13.8 3.6,-13.9 3.6,-13.8 3.6,-13.9 3.6,-13.9 3.6,-13.8 3.6,-13.7 3.6,-13.7 3.6,-13.5 3.7,-13.3 3.6,-13.1 3.6,-12.9 3.6,-12.7 3.6,-12.3 3.6,-12.1 3.6,-11.7 3.6,-11.5 3.6,-11.1 3.6,-10.7 3.6,-10.4 3.7,-10 3.6,-9.7 3.6,-9.2 3.6,-8.9 3.6,-8.6 3.6,-8.2 3.6,-7.9 3.6,-7.6 3.6,-7.3 3.6,-7 3.6,-6.8 3.7,-6.5 3.6,-6.3 3.6,-6.2 3.6,-5.9 3.6,-5.9 3.6,-5.7 3.6,-5.7 3.6,-5.7 3.6,-5.6 3.6,-5.6 3.6,-5.7 3.7,-5.8 3.6,-5.8 3.6,-6 3.6,-6.1 3.6,-6.3 3.6,-6.5 3.6,-6.6 3.6,-6.9 3.6,-7.2 3.6,-7.3 3.6,-7.6 3.7,-7.9 3.6,-8 3.6,-8.3 3.6,-8.4 3.6,-8.7 3.6,-8.8 3.6,-8.9 3.6,-9.1 3.6,-9.1 3.6,-9.2 3.6,-9.2 3.7,-9.2 3.6,-9.1 3.6,-9 3.6,-9 3.6,-8.7 3.6,-8.6 3.6,-8.4 3.6,-8.2 3.6,-8 3.6,-7.7 3.6,-7.5 3.7,-7.2 3.6,-7 3.6,-6.7 3.6,-6.5 3.6,-6.3 3.6,-6 3.6,-5.9 3.6,-5.7 3.6,-5.6 3.6,-5.5 3.6,-5.4 3.7,-5.4 3.6,-5.3 3.6,-5.3 3.6,-5.4 3.6,-5.4 3.6,-5.5 3.6,-5.5 3.6,-5.7 3.6,-5.8 3.6,-5.9 3.6,-6.1 3.7,-6.1 3.6,-6.3 3.6,-6.4 3.6,-6.5 3.6,-6.6 3.6,-6.7 3.6,-6.7 3.6,-6.8 3.6,-6.8 3.6,-6.8 3.6,-6.8 3.7,-6.7 3.6,-6.7 3.6,-6.5 3.6,-6.5 3.6,-6.3 3.6,-6.2 3.6,-6 3.6,-5.9 3.6,-5.6 3.6,-5.5 3.6,-5.3 3.6,-5.1 3.7,-4.9 3.6,-4.7 3.6,-4.5 3.6,-4.3 3.6,-4.2 3.6,-4 3.6,-3.8 3.6,-3.6 3.6,-3.5 3.6,-3.3 3.6,-3.302 3.7,-3.097 3.6,-2.903 3.6,-2.898 3.6,-2.801 3.6,-2.699 3.6,-2.602 3.6,-2.597 3.6,-2.403 3.6,-2.398 3.6,-2.301 3.6,-2.199 3.7,-2.199 3.6,-2 3.6,-2.102 3.6,-1.898 3.6,-1.903 3.6,-1.796 3.6,-1.704 3.6,-1.699 3.6,-1.5 3.6,-1.597 3.6,-1.403 3.7,-1.398 3.6,-1.301 3.6,-1.301 3.6,-1.199 3.6,-1.102 3.6,-1.199 3.6,-1.097 3.6,-1 3.6,-1.102 3.6,-1 3.6,-1 3.7,-1 3.6,-1 3.6,-1.102 3.6,-1 3.6,-1.097 3.6,-1.102 3.6,-1.097 3.6,-1.204 3.6,-1.199 3.6,-1.301 3.6,-1.199 3.7,-1.398 3.6,-1.301 3.6,-1.398 3.6,-1.403 3.6,-1.5 3.6,-1.398 3.6,-1.5 3.6,-1.5 3.6,-1.5 3.6,-1.602 3.6,-1.5 3.7,-1.5 3.6,-1.597 3.6,-1.5 3.6,-1.5 3.6,-1.5 3.6,-1.5 3.6,-1.5 3.6,-1.5 3.6,-1.403 3.6,-1.5 3.6,-1.398 3.7,-1.301 3.6,-1.398 3.6,-1.403 3.6,-1.301 3.6,-1.296 3.6,-1.204 3.6,-1.296 3.6,-1.204 3.6,-1.199 3.6,-1.199 3.6,-1.102 3.7,-1.097 3.6,-1.102 3.6,-1.097 3.6,-1 3.6,-1 3.6,-0.903 3.6,-0.898 3.6,-0.903 3.6,-0.796 3.6,-0.801 3.6,-0.801 3.7,-0.699 3.6,-0.602 3.6,-0.597 3.6,-0.602 3.6,-0.5 3.6,-0.5 3.6,-0.5 3.6,-0.398 3.6,-0.403 3.6,-0.301 3.6,-0.296 3.7,-0.301 3.6,-0.301 3.6,-0.199 3.6,-0.301 3.6,-0.199 3.6,-0.199 3.6,-0.301 3.6,-0.199 3.6,-0.301 3.6,-0.199 3.6,-0.301 3.7,-0.301 3.6,-0.301 3.6,-0.398 3.6,-0.301 3.6,-0.5 3.6,-0.398 3.6,-0.5 3.6,-0.5 3.6,-0.602 3.6,-0.5 3.6,-0.699 3.6,-0.602 3.7,-0.699 3.6,-0.699 3.6,-0.801 3.6,-0.801 3.6,-0.801 3.6,-0.796 3.6,-0.903 3.6,-0.801 3.6,-0.898 3.6,-0.898 3.6,-1 3.7,-0.903 3.6,-0.898 3.6,-1 3.6,-0.903 3.6,-1 3.6,-0.898 3.6,-0.898 3.6,-0.903 3.6,-0.898 3.6,-0.801 3.6,-0.898 3.7,-0.704 3.6,-0.796 3.6,-0.704 3.6,-0.699 3.6,-0.597 3.6,-0.602 3.6,-0.5 3.6,-0.5 3.6,-0.398 3.6,-0.403 3.6,-0.301 3.7,-0.296 3.6,-0.204 3.6,-0.199 3.6,-0.097 3.6,-0.102 3.6,-0.102 10.8,0 3.6,0.102 3.6,0 3.7,0.102 3.6,0 3.6,0.097 7.2,0 3.6,0.102 3.6,-0.102 3.6,0 3.6,-0.097 3.6,-0.102 3.6,-0.102 3.7,-0.097 3.6,-0.199 3.6,-0.204 3.6,-0.199 3.6,-0.301 3.6,-0.199 3.6,-0.301 3.6,-0.296 3.6,-0.204 3.6,-0.296 3.6,-0.301 3.7,-0.199 3.6,-0.301 3.6,-0.199 3.6,-0.204 3.6,-0.199 3.6,-0.097 3.6,-0.204 3.6,0 3.6,-0.097 7.2,0 3.7,0.097 3.6,0.102 3.6,0.102 3.6,0.097 3.6,0.199 3.6,0.204 3.6,0.199 3.6,0.199 3.6,0.301 3.6,0.199 3.6,0.301 3.7,0.199 3.6,0.301 3.6,0.199 3.6,0.199 3.6,0.199 3.6,0.204 3.6,0.199 3.6,0.199 3.6,0.102 3.6,0.097 3.6,0.102 3.7,0.097 14.4,0 3.6,-0.097 3.6,-0.102 3.6,-0.097 3.6,-0.204 3.6,-0.097 3.6,-0.199 3.7,-0.204 3.6,-0.296 3.6,-0.204 3.6,-0.296 3.6,-0.301 3.6,-0.301 3.6,-0.301 3.6,-0.398 3.6,-0.403 3.6,-0.398 3.6,-0.398 3.7,-0.403 3.6,-0.398 3.6,-0.5 3.6,-0.403 3.6,-0.5 3.6,-0.5 3.6,-0.5 3.6,-0.398 3.6,-0.5 3.6,-0.5 3.6,-0.5 3.6,-0.5 3.7,-0.5 3.6,-0.5 3.6,-0.398 3.6,-0.5 3.6,-0.403 3.6,-0.5 3.6,-0.398 3.6,-0.403 3.6,-0.398 3.6,-0.398 3.6,-0.301 3.7,-0.403 3.6,-0.296 3.6,-0.301 3.6,-0.301 3.6,-0.301 3.6,-0.199 3.6,-0.199 3.6,-0.301 3.6,-0.199 3.6,-0.102 3.6,-0.199 3.7,-0.199 3.6,-0.102 3.6,-0.097 3.6,-0.102 3.6,-0.102 3.6,-0.097 3.6,-0.102 3.6,-0.097 3.6,0 3.6,-0.102 3.6,0 3.7,-0.102 3.6,0 3.6,-0.097 14.4,0 3.6,-0.102 202.1,0 3.6,0.102 14.5,0 3.6,0.097 7.2,0 3.6,0.102 3.6,0 3.6,0.102 3.6,0 3.6,0.097 3.7,0.102 3.6,0 3.6,0.097 3.6,0.102 3.6,0.102 3.6,0.097 3.6,0.102 3.6,0.097 3.6,0.204 3.6,0.097 3.6,0.102 3.7,0.199 3.6,0.102 3.6,0.199 3.6,0.097 3.6,0.204 3.6,0.199 3.6,0.097 3.6,0.204 3.6,0.097 3.6,0.199 3.6,0.102 3.6,0.199 3.7,0.102 3.6,0.097 3.6,0.102 3.6,0.102 3.6,0.097 3.6,0.102 3.6,0 3.6,0.097 18.1,0 3.6,-0.097 3.6,-0.102 3.6,0 3.6,-0.097 3.6,-0.102 3.6,-0.199 3.6,-0.102 3.6,-0.097 3.6,-0.204 3.7,-0.097 3.6,-0.199 3.6,-0.102 3.6,-0.199 3.6,-0.102 3.6,-0.199 3.6,-0.102 3.6,-0.199 3.6,-0.199 3.6,-0.102 3.6,-0.097 3.7,-0.199 3.6,-0.102" /><path
           inkscape:connector-curvature="0"
           id="path42126"
           style="fill:none;stroke:#000000;stroke-width:22.5;stroke-linecap:round;stroke-linejoin:round;stroke-miterlimit:10;stroke-opacity:1;stroke-dasharray:none"
           d="m 3676.1,812 3.6,-0.102 3.6,-0.097 3.6,-0.102 3.6,-0.097 3.6,-0.102 3.6,-0.102 3.6,-0.097 3.6,-0.102 3.6,0 3.7,-0.097 3.6,-0.102 7.2,0 3.6,-0.102 7.2,0 3.6,-0.097 10.8,0 3.7,-0.102 10.8,0" /></g></g><path
       inkscape:connector-curvature="0"
       id="path42128"
       style="fill:none;stroke:#000000;stroke-width:0.75;stroke-linecap:round;stroke-linejoin:round;stroke-miterlimit:10;stroke-opacity:1;stroke-dasharray:none"
       d="m 88,72 400,0" /><path
       inkscape:connector-curvature="0"
       id="path42130"
       style="fill:none;stroke:#000000;stroke-width:0.75;stroke-linecap:round;stroke-linejoin:round;stroke-miterlimit:10;stroke-opacity:1;stroke-dasharray:none"
       d="m 88,72 0,-7.2" /><path
       inkscape:connector-curvature="0"
       id="path42132"
       style="fill:none;stroke:#000000;stroke-width:0.75;stroke-linecap:round;stroke-linejoin:round;stroke-miterlimit:10;stroke-opacity:1;stroke-dasharray:none"
       d="m 154.67,72 0,-7.2" /><path
       inkscape:connector-curvature="0"
       id="path42134"
       style="fill:none;stroke:#000000;stroke-width:0.75;stroke-linecap:round;stroke-linejoin:round;stroke-miterlimit:10;stroke-opacity:1;stroke-dasharray:none"
       d="m 221.33,72 0,-7.2" /><path
       inkscape:connector-curvature="0"
       id="path42136"
       style="fill:none;stroke:#000000;stroke-width:0.75;stroke-linecap:round;stroke-linejoin:round;stroke-miterlimit:10;stroke-opacity:1;stroke-dasharray:none"
       d="m 288,72 0,-7.2" /><path
       inkscape:connector-curvature="0"
       id="path42138"
       style="fill:none;stroke:#000000;stroke-width:0.75;stroke-linecap:round;stroke-linejoin:round;stroke-miterlimit:10;stroke-opacity:1;stroke-dasharray:none"
       d="m 354.67,72 0,-7.2" /><path
       inkscape:connector-curvature="0"
       id="path42140"
       style="fill:none;stroke:#000000;stroke-width:0.75;stroke-linecap:round;stroke-linejoin:round;stroke-miterlimit:10;stroke-opacity:1;stroke-dasharray:none"
       d="m 421.33,72 0,-7.2" /><path
       inkscape:connector-curvature="0"
       id="path42142"
       style="fill:none;stroke:#000000;stroke-width:0.75;stroke-linecap:round;stroke-linejoin:round;stroke-miterlimit:10;stroke-opacity:1;stroke-dasharray:none"
       d="m 488,72 0,-7.2" /><g
       id="g42144"><text
         id="text42146"
         transform="matrix(1,0,0,-1,69.6523,46.0801)"><tspan
           id="tspan42148"
           sodipodi:role="line"
           y="0"
           x="0 12.232 24.464001 66.670341 78.902344 91.134338 133.33012 145.56212 157.79411 200.00002 212.23203 224.46402 266.67035 278.90237 291.13437 333.33014 345.56213 357.79413 400.00003 412.23203 424.46405"
           style="font-size:22px;font-variant:normal;font-weight:normal;writing-mode:lr-tb;fill:#000000;fill-opacity:1;fill-rule:nonzero;stroke:none;font-family:Arial;-inkscape-font-specification:Arial">200300400500600700800</tspan></text>
</g><path
       inkscape:connector-curvature="0"
       id="path42150"
       style="fill:none;stroke:#000000;stroke-width:0.75;stroke-linecap:round;stroke-linejoin:round;stroke-miterlimit:10;stroke-opacity:1;stroke-dasharray:none"
       d="M 72,81.0699 72,307.73" /><path
       inkscape:connector-curvature="0"
       id="path42152"
       style="fill:none;stroke:#000000;stroke-width:0.75;stroke-linecap:round;stroke-linejoin:round;stroke-miterlimit:10;stroke-opacity:1;stroke-dasharray:none"
       d="m 72,81.0699 -7.2,0" /><path
       inkscape:connector-curvature="0"
       id="path42154"
       style="fill:none;stroke:#000000;stroke-width:0.75;stroke-linecap:round;stroke-linejoin:round;stroke-miterlimit:10;stroke-opacity:1;stroke-dasharray:none"
       d="m 72,118.84 -7.2,0" /><path
       inkscape:connector-curvature="0"
       id="path42156"
       style="fill:none;stroke:#000000;stroke-width:0.75;stroke-linecap:round;stroke-linejoin:round;stroke-miterlimit:10;stroke-opacity:1;stroke-dasharray:none"
       d="m 72,156.62 -7.2,0" /><path
       inkscape:connector-curvature="0"
       id="path42158"
       style="fill:none;stroke:#000000;stroke-width:0.75;stroke-linecap:round;stroke-linejoin:round;stroke-miterlimit:10;stroke-opacity:1;stroke-dasharray:none"
       d="m 72,194.4 -7.2,0" /><path
       inkscape:connector-curvature="0"
       id="path42160"
       style="fill:none;stroke:#000000;stroke-width:0.75;stroke-linecap:round;stroke-linejoin:round;stroke-miterlimit:10;stroke-opacity:1;stroke-dasharray:none"
       d="m 72,232.18 -7.2,0" /><path
       inkscape:connector-curvature="0"
       id="path42162"
       style="fill:none;stroke:#000000;stroke-width:0.75;stroke-linecap:round;stroke-linejoin:round;stroke-miterlimit:10;stroke-opacity:1;stroke-dasharray:none"
       d="m 72,269.96 -7.2,0" /><path
       inkscape:connector-curvature="0"
       id="path42164"
       style="fill:none;stroke:#000000;stroke-width:0.75;stroke-linecap:round;stroke-linejoin:round;stroke-miterlimit:10;stroke-opacity:1;stroke-dasharray:none"
       d="m 72,307.73 -7.2,0" /><g
       id="g42166"><text
         id="text42168"
         transform="matrix(0,1,1,0,54.7199,53.5488)"><tspan
           id="tspan42170"
           sodipodi:role="line"
           y="0"
           x="0 12.232 18.348 30.58 42.812 75.550003 87.782005 93.898003 106.13 118.362 151.11017 163.34216 169.45816 181.69017 193.92216 226.66017 238.89217 245.00816 257.24017 269.47217"
           style="font-size:22px;font-variant:normal;font-weight:normal;writing-mode:lr-tb;fill:#000000;fill-opacity:1;fill-rule:nonzero;stroke:none;font-family:Arial;-inkscape-font-specification:Arial">0.0000.0040.0080.012</tspan></text>
</g><path
       inkscape:connector-curvature="0"
       id="path42172"
       style="fill:none;stroke:#000000;stroke-width:0.75;stroke-linecap:round;stroke-linejoin:round;stroke-miterlimit:10;stroke-opacity:1;stroke-dasharray:none"
       d="m 72,72 432,0 0,244.8 -432,0 L 72,72" /><text
       transform="scale(1,-1)"
       id="text42176"
       x="102.18"
       y="-330.5"><tspan
         style="font-size:22px;font-variant:normal;font-weight:bold;writing-mode:lr-tb;fill:#000000;fill-opacity:1;fill-rule:nonzero;stroke:none;font-family:Arial;-inkscape-font-specification:Arial"
         x="102.18 115.622 127.854 135.17999 147.412 160.854 172.86592 185.09793 191.21393 210.77193 223.00392 235.23593 247.46793 260.90994 269.46793 281.69992 301.25793 313.48993 326.93195 334.25793 340.37393 353.81592 359.93192 372.16391 379.48993 388.04791 394.16391 407.16592 420.60791 427.93393 434.04993 447.49191 460.93393"
         y="-330.5"
         sodipodi:role="line"
         id="tspan42178">Latency measurement distributions</tspan></text>
<text
       transform="scale(1,-1)"
       id="text42180"
       x="224.43201"
       y="-17.280001"><tspan
         style="font-size:22px;font-variant:normal;font-weight:normal;writing-mode:lr-tb;fill:#000000;fill-opacity:1;fill-rule:nonzero;stroke:none;font-family:Arial;-inkscape-font-specification:Arial"
         x="224.43201 236.664 248.896 255.01199 267.24399 279.47601 290.47601 301.47601 307.59201 314.918 333.24399 344.24399"
         y="-17.280001"
         sodipodi:role="line"
         id="tspan42182">Latency (ms)</tspan></text>
<text
       transform="matrix(0,1,1,0,0,0)"
       id="text42184"
       x="157.72701"
       y="25.919901"><tspan
         style="font-size:22px;font-variant:normal;font-weight:normal;writing-mode:lr-tb;fill:#000000;fill-opacity:1;fill-rule:nonzero;stroke:none;font-family:Arial;-inkscape-font-specification:Arial"
         x="157.72701 173.61099 185.843 198.075 209.075 213.959 220.075"
         y="25.919901"
         sodipodi:role="line"
         id="tspan42186">Density</tspan></text>
<g
       id="g42188"
       transform="scale(0.1,0.1)"><g
         clip-path="url(#clipPath42192)"
         id="g42190"><path
           inkscape:connector-curvature="0"
           id="path42196"
           style="fill:none;stroke:#bebebe;stroke-width:0.80000001;stroke-linecap:round;stroke-linejoin:round;stroke-miterlimit:10;stroke-opacity:1;stroke-dasharray:none"
           d="m 720,810.699 4320,0" /><path
           inkscape:connector-curvature="0"
           id="path42198"
           style="fill:none;stroke:#000000;stroke-width:15;stroke-linecap:round;stroke-linejoin:round;stroke-miterlimit:10;stroke-opacity:1;stroke-dasharray:45, 75;stroke-dashoffset:0"
           d="m 1514.3,720 0,2448" /><path
           inkscape:connector-curvature="0"
           id="path42200"
           style="fill:none;stroke:#5581b4;stroke-width:22.5;stroke-linecap:round;stroke-linejoin:round;stroke-miterlimit:10;stroke-opacity:1;stroke-dasharray:none"
           d="m 219.699,810.801 14.301,0 3.602,0.097 7.199,0 3.5,0.102 3.597,0 3.602,0.102 3.602,0 3.597,0.097 3.5,0 3.602,0.102 3.597,0.097 3.602,0.102 3.5,0.102 3.602,0.097 3.597,0.102 3.602,0.199 3.597,0.102 3.5,0.199 3.602,0.097 3.602,0.204 3.597,0.199 3.602,0.199 3.5,0.199 3.597,0.199 3.602,0.204 3.602,0.199 3.5,0.301 3.597,0.199 3.602,0.301 3.597,0.199 3.602,0.301 3.5,0.296 3.602,0.204 3.597,0.296 3.602,0.301 3.5,0.199 3.597,0.301 3.602,0.199 3.602,0.204 3.597,0.296 3.5,0.204 3.602,0.199 3.597,0.199 3.602,0.102 3.602,0.199 3.5,0.097 3.597,0.102 3.602,0.102 3.597,0.097 3.5,0.102 3.602,0 3.602,0.097 7.199,0 3.5,-0.097 3.597,0 3.602,-0.102 3.602,0 3.5,-0.097 3.597,-0.102 3.602,-0.102 3.597,0 3.602,-0.097 3.5,-0.102 3.602,-0.097 3.597,-0.102 3.602,0 3.597,-0.102 3.5,0 3.602,-0.097 10.699,0 3.602,0.097 3.597,0 3.602,0.102 3.602,0.102 3.5,0.199 3.597,0.097 3.602,0.204 3.597,0.199 3.5,0.199 3.602,0.301 3.602,0.199 3.597,0.301 3.602,0.301 3.5,0.398 3.597,0.301 3.602,0.398 3.602,0.403 3.597,0.398 3.5,0.398 3.602,0.403 3.597,0.398 3.602,0.5 3.5,0.403 3.602,0.5 3.597,0.398 3.602,0.398 3.597,0.5 3.5,0.403 3.602,0.398 3.602,0.403 3.597,0.296 3.5,0.403 3.602,0.301 3.597,0.296 3.602,0.301 3.602,0.199 3.5,0.204 3.597,0.199 3.602,0.097 3.597,0.102 3.602,0.102 7.102,0 3.597,-0.102 3.602,-0.102 3.5,-0.097 3.597,-0.102 L 667,829 l 3.602,-0.199 3.597,-0.301 3.5,-0.301 3.602,-0.199 3.597,-0.398 3.602,-0.301 3.5,-0.301 3.602,-0.398 3.597,-0.301 3.602,-0.403 3.597,-0.296 3.5,-0.301 3.602,-0.403 3.602,-0.296 3.597,-0.301 3.602,-0.199 3.5,-0.301 3.597,-0.199 3.602,-0.204 3.602,-0.199 3.5,-0.097 3.597,-0.102 3.602,-0.102 10.699,0 3.602,0.102 3.597,0.102 3.602,0.199 3.5,0.097 3.597,0.204 3.602,0.296 3.602,0.301 3.597,0.301 3.5,0.301 3.602,0.301 3.597,0.398 3.602,0.301 3.602,0.398 3.5,0.403 3.597,0.398 3.602,0.398 3.597,0.5 3.5,0.403 3.602,0.398 3.602,0.403 3.597,0.398 3.602,0.398 3.5,0.403 3.597,0.398 3.602,0.403 3.602,0.398 3.5,0.398 3.597,0.5 3.602,0.403 3.597,0.398 3.602,0.5 3.5,0.403 3.602,0.5 3.597,0.5 3.602,0.5 3.597,0.597 3.5,0.602 3.602,0.699 3.602,0.699 3.597,0.801 3.5,0.801 3.602,0.898 3.597,1 3.602,1 3.602,1.102 3.5,1.199 3.597,1.301 3.602,1.301 3.597,1.5 3.5,1.597 3.602,1.602 3.602,1.801 3.597,1.796 3.602,2 3.5,2.102 3.597,2.102 3.602,2.296 3.602,2.403 3.597,2.5 3.5,2.699 3.602,2.699 3.597,2.801 3.602,3 3.5,3.102 3.602,3.199 3.597,3.301 3.602,3.296 3.599,3.5 3.5,3.602 3.6,3.699 3.6,3.801 3.6,3.801 3.5,4 3.6,4 3.6,4 3.6,4.097 3.6,4.204 3.5,4.199 3.6,4.199 3.6,4.199 3.6,4.199 3.6,4.204 3.5,4.199 3.6,4.199 3.6,4.102 3.6,4 3.5,4 3.6,3.898 3.6,3.898 3.6,3.704 3.6,3.597 3.5,3.5 3.6,3.5 3.6,3.301 3.6,3.1 3.5,3.1 3.6,3 3.6,2.8 3.6,2.8 3.6,2.6 3.5,2.6 3.6,2.5 3.6,2.5 3.6,2.4 3.6,2.4 3.5,2.3 3.6,2.4 3.6,2.5 3.6,2.5 3.5,2.5 3.6,2.7 3.6,2.8 3.6,3 3.6,3.1 3.5,3.4 3.6,3.5 3.6,3.8 3.6,4.1 3.5,4.3 3.6,4.7 3.6,4.9 3.6,5.3 3.6,5.6 3.5,5.9 3.6,6.2 3.6,6.7 3.6,7 3.6,7.3 3.5,7.7 3.6,8 3.6,8.3 3.6,8.7 3.5,8.9 3.6,9.2 3.6,9.5 3.6,9.8 3.6,10 3.5,10.3 3.6,10.4 3.6,10.6 3.6,10.7 3.5,10.9 3.6,11 3.6,11.1 3.6,11.2 3.6,11.3 3.5,11.3 3.6,11.4 3.6,11.4 3.6,11.4 3.6,11.5 3.5,11.4 3.6,11.5 3.6,11.5 3.6,11.5 3.5,11.5 3.6,11.5 3.6,11.5 3.6,11.5 3.6,11.6 3.5,11.6 3.6,11.6 3.6,11.7 3.6,11.7 3.5,11.8 3.6,11.8 3.6,11.9 3.6,11.9 3.6,12 3.5,12.1 3.6,12.1 3.6,12.2 3.6,12.2 3.6,12.2 3.5,12.3 3.6,12.4 3.6,12.3 3.6,12.4 3.5,12.3 3.6,12.4 3.6,12.4 3.6,12.3 3.6,12.3 3.5,12.3 3.6,12.2 3.6,12.2 3.6,12.2 3.5,12.1 3.6,12.1 3.6,12 3.6,12 3.6,12 3.5,11.9 3.6,12 3.6,12 3.6,12 3.6,12 3.5,12 3.6,12.2 3.6,12.2 3.6,12.3 3.5,12.4 3.6,12.6 3.6,12.7 3.6,12.8 3.6,13 3.5,13.1 3.6,13.2 3.6,13.5 3.6,13.5 3.5,13.7 3.6,13.8 3.6,13.9 3.6,14 3.6,14.1 3.5,14 3.6,14.1 3.6,14 3.6,13.9 3.6,13.8 3.5,13.6 3.6,13.5 3.6,13.2 3.6,12.8 3.5,12.5 3.6,12.2 3.6,11.7 3.6,11.2 3.6,10.7 3.5,10.2 3.6,9.6 3.6,8.9 3.6,8.2 3.5,7.5 3.6,6.9 3.6,6.1 3.6,5.4 3.6,4.7 3.5,3.9 3.6,3.1 3.6,2.3 3.6,1.5 3.6,0.8 3.5,0.1 3.6,-0.6 3.6,-1.3 3.6,-2 3.5,-2.7 3.6,-3.4 3.6,-3.9 3.6,-4.5 3.6,-5 3.5,-5.4 3.6,-6 3.6,-6.3 3.6,-6.7 3.5,-7.1 3.6,-7.3 3.6,-7.6 3.6,-7.8 3.6,-7.9 3.5,-8.1 3.6,-8.2 3.6,-8.2 3.6,-8.2 3.6,-8.2 3.5,-8.1 3.6,-8.1 3.6,-7.9 3.6,-7.8 3.5,-7.7 3.6,-7.4 3.6,-7.2 3.6,-7 3.6,-6.8 3.5,-6.5 3.6,-6.2 3.6,-6 3.6,-5.7 3.5,-5.5 3.6,-5.1 3.6,-4.9 3.6,-4.6 3.6,-4.4 3.5,-4.1 3.6,-3.9 3.6,-3.6 3.6,-3.4 3.6,-3.2 3.5,-3.1 3.6,-2.8 3.6,-2.7 3.6,-2.5 3.5,-2.4 3.6,-2.3 3.6,-2.2 3.6,-2.1 3.6,-2.1 3.5,-2 3.6,-2 3.6,-1.9 3.6,-2 3.5,-2 3.6,-2.1 3.6,-2.1 3.6,-2.2 3.6,-2.3 3.5,-2.4 3.6,-2.5 3.6,-2.7 3.6,-2.9 3.6,-3.1 3.5,-3.3 3.6,-3.5 3.6,-3.8 3.6,-4 3.5,-4.4 3.6,-4.6 3.6,-4.9 3.6,-5.2 3.6,-5.6 3.5,-6 3.6,-6.3 3.6,-6.6 3.6,-7.1 3.5,-7.3 3.6,-7.7 3.6,-8.1 3.6,-8.5 3.6,-8.8 3.5,-9.1 3.6,-9.4 3.6,-9.7 3.6,-10 3.6,-10.3 3.5,-10.4 3.6,-10.7 3.6,-10.9 3.6,-11 3.5,-11.2 3.6,-11.2 3.6,-11.3 3.6,-11.3 3.6,-11.3 3.5,-11.2 3.6,-11.2 3.6,-11.1 3.6,-11 3.5,-10.9 3.6,-10.7 3.6,-10.5 3.6,-10.3 3.6,-10.1 3.5,-9.9 3.6,-9.6 3.6,-9.4 3.6,-9.2 3.6,-8.9 3.5,-8.7 3.6,-8.4 3.6,-8.2 3.6,-8 3.5,-7.8 3.6,-7.6 3.6,-7.4 3.6,-7.2 3.6,-7.2 3.5,-6.9 3.6,-6.9 3.6,-6.8 3.6,-6.7 3.6,-6.7 3.5,-6.6 3.6,-6.6 3.6,-6.6 3.6,-6.6 3.5,-6.6 3.6,-6.6 3.6,-6.7 3.6,-6.8 3.6,-6.7 3.5,-6.9 3.6,-6.9 3.6,-6.9 3.6,-7 3.5,-7.1 3.6,-7.1 3.6,-7.2 3.6,-7.2 3.6,-7.3 3.5,-7.2 3.6,-7.3 3.6,-7.4 3.6,-7.3 3.6,-7.3 3.5,-7.3 3.6,-7.2 3.6,-7.3 3.6,-7.2 3.5,-7.2 3.6,-7.1 3.6,-7 3.6,-7 3.6,-6.9 3.5,-6.9 3.6,-6.7 3.6,-6.7 3.6,-6.7 3.5,-6.5 3.6,-6.4 3.6,-6.4 3.6,-6.3 3.6,-6.2 3.5,-6.1 3.6,-6.1 3.6,-6 3.6,-5.9 3.6,-5.8 3.5,-5.8 3.6,-5.7 3.6,-5.6 3.6,-5.6 3.5,-5.5 3.6,-5.5 3.6,-5.4 3.6,-5.3 3.6,-5.2 3.5,-5.2 3.6,-5.2 3.6,-5 3.6,-5.1 3.5,-4.9 3.6,-4.9 3.6,-4.8 3.6,-4.8 3.6,-4.7 3.5,-4.6 3.6,-4.6 3.6,-4.5 3.6,-4.5 3.6,-4.3 3.5,-4.4 3.6,-4.2 3.6,-4.3 3.6,-4.1 3.5,-4.2 3.6,-4 3.6,-4.1 3.6,-4 3.6,-3.9 3.5,-4 3.6,-3.9 3.6,-3.8 3.6,-3.9 3.5,-3.8 3.6,-3.8 3.6,-3.8 3.6,-3.8 3.6,-3.8 3.5,-3.8 3.6,-3.8 3.6,-3.7 3.6,-3.8 3.6,-3.7 3.5,-3.7 3.6,-3.8 3.6,-3.6 3.6,-3.7 3.5,-3.6 3.6,-3.7 3.6,-3.5 3.6,-3.6 3.6,-3.5 3.5,-3.4 3.6,-3.4 3.6,-3.4 3.6,-3.2 3.5,-3.2 3.6,-3.2 3.6,-3.1 3.6,-3 3.6,-2.9 3.5,-2.9 3.6,-2.7 3.6,-2.702 3.6,-2.699 3.6,-2.5 3.5,-2.5 3.6,-2.398 3.6,-2.403 3.6,-2.296 3.5,-2.204 3.6,-2.097 3.6,-2.199 3.6,-2 3.6,-2.102 3.5,-2 3.6,-1.898 3.6,-2 3.6,-1.903 3.5,-1.898 3.6,-1.903 3.6,-1.898 3.6,-1.801 3.6,-1.898 3.5,-1.903 3.6,-1.796 3.6,-1.801 3.6,-1.903 3.6,-1.796 3.5,-1.801 3.6,-1.801 3.6,-1.801 3.6,-1.699 3.5,-1.801 3.6,-1.699 3.6,-1.699 3.6,-1.602 3.6,-1.597 3.5,-1.5 3.6,-1.5 3.6,-1.403 3.6,-1.398 3.5,-1.301 3.6,-1.199 3.6,-1.199 3.6,-1.102 3.6,-1 3.5,-0.898 3.6,-0.801 3.6,-0.801 3.6,-0.699 3.6,-0.602 3.5,-0.597 3.6,-0.403 3.6,-0.398 3.6,-0.403 3.5,-0.296 3.6,-0.204 3.6,-0.199 3.6,-0.199 3.6,-0.102 3.5,-0.097 3.6,0 3.6,-0.102 3.6,0 3.5,-0.097 3.6,0 3.6,-0.102 3.6,-0.102 3.6,-0.097 3.5,-0.102 3.6,-0.199 3.6,-0.199 3.6,-0.199 3.6,-0.301 3.5,-0.301 3.6,-0.398 3.6,-0.403 3.6,-0.5 3.5,-0.5 3.6,-0.597 3.6,-0.602 3.6,-0.699 3.6,-0.699 3.5,-0.704 3.6,-0.796 3.6,-0.801 3.6,-0.903 3.5,-0.898 3.6,-0.898 3.6,-0.903 3.6,-1 3.6,-1 3.5,-1 3.6,-1 3.6,-1 3.6,-1.097 3.6,-1 3.5,-1.102 3.6,-1 3.6,-1.102 3.6,-1 3.5,-1 3.6,-1.097 3.6,-1 3.6,-1 3.6,-1.102 3.5,-1 3.6,-1 3.6,-1.097 3.6,-1 3.5,-1 3.6,-1 3.6,-1.102 3.6,-1 3.6,-1.102 3.5,-1 3.6,-1.097 3.6,-1 3.6,-1.102 3.6,-1.097 3.5,-1.102 3.6,-1.102 3.6,-1.097 3.6,-1.199 3.5,-1.102 3.6,-1.102 3.6,-1.199 3.6,-1.097 3.6,-1.102 3.5,-1.199 3.6,-1.102 3.6,-1.097 3.6,-1.102 3.5,-1.102 3.6,-1.097 3.6,-1.102 3.6,-1 3.6,-1.097 3.5,-0.903 3.6,-1 3.6,-0.898 3.6,-1 3.6,-0.801 3.5,-0.898 3.6,-0.801 3.6,-0.699 3.6,-0.801 3.5,-0.602 3.6,-0.699 3.6,-0.602 3.6,-0.597 3.6,-0.5 3.5,-0.5 3.6,-0.5 3.6,-0.403 3.6,-0.398 3.5,-0.301 3.6,-0.301 3.6,-0.296 3.6,-0.301 3.6,-0.199 3.5,-0.204 3.6,-0.199 3.6,-0.199 3.6,-0.102 3.6,-0.199 3.5,-0.097 3.6,-0.102 3.6,0 3.6,-0.102 3.5,-0.097 3.6,0 3.6,-0.102 3.6,0 3.6,-0.097 3.5,-0.102 3.6,0 3.6,-0.102 3.6,-0.097 3.5,0 3.6,-0.199 3.6,-0.102 3.6,-0.102 3.6,-0.199 3.5,-0.097 3.6,-0.204 3.6,-0.296 3.6,-0.204 3.6,-0.296 3.5,-0.301 3.6,-0.301 3.6,-0.301 3.6,-0.398 3.5,-0.403 3.6,-0.398 3.6,-0.5 3.6,-0.398 3.6,-0.5 3.5,-0.5 3.6,-0.5 3.6,-0.5 3.6,-0.602 3.5,-0.5 3.6,-0.602 3.6,-0.597 3.6,-0.5 3.6,-0.602 3.5,-0.597 3.6,-0.5 3.6,-0.602 3.6,-0.5 3.6,-0.602 3.5,-0.5 3.6,-0.5 3.6,-0.5 3.6,-0.5 3.5,-0.5 3.6,-0.398 3.6,-0.398 3.6,-0.403 3.6,-0.398 3.5,-0.301 3.6,-0.398 3.6,-0.301 3.6,-0.199 3.5,-0.301 3.6,-0.199 3.6,-0.204 3.6,-0.199 3.6,-0.199 3.5,-0.102 3.6,-0.097 3.6,-0.102 3.6,-0.097 7.1,0 3.6,-0.102 3.6,0 3.6,0.102 7.1,0 3.6,0.097 3.6,0 3.6,0.102 3.5,0.097 3.6,0 3.6,0.102 3.6,0.102 3.5,0.097 3.6,0 3.6,0.102 3.6,0.097 3.6,0 3.5,0.102 7.2,0 3.6,0.102 10.7,0 3.6,-0.102 7.1,0 3.6,-0.102 3.6,0 3.6,-0.097 3.6,-0.102 3.5,-0.097 3.6,-0.102 3.6,-0.102 3.6,-0.097 3.5,-0.102 3.6,-0.097 3.6,-0.102 3.6,-0.102 3.6,-0.199 3.5,-0.097 3.6,-0.102 3.6,-0.102 3.6,-0.097 3.6,-0.199 3.5,-0.102 3.6,-0.102 3.6,-0.097 3.6,-0.102 3.5,0 3.6,-0.097 3.6,-0.102 3.6,0 3.6,-0.102 3.5,0 3.6,-0.097 14.3,0 3.6,0.097 3.6,0 3.6,0.102 3.5,0.102 3.6,0 3.6,0.097 3.6,0.199 3.6,0.102 3.5,0.102 3.6,0.199 3.6,0.097 3.6,0.204 3.5,0.199 3.6,0.199 3.6,0.199 3.6,0.199 3.6,0.301 3.5,0.199 3.6,0.301 3.6,0.199 3.6,0.301 3.5,0.199 3.6,0.301 3.6,0.199 3.6,0.301 3.6,0.199 3.5,0.301 3.6,0.199 3.6,0.204 3.6,0.199 3.6,0.199 3.5,0.199 3.6,0.199 3.6,0.102 3.6,0.102 3.5,0.097 3.6,0.102 3.6,0.097 10.7,0 3.6,-0.097 3.6,0 3.6,-0.102 3.5,-0.097 3.6,-0.102 3.6,-0.199 3.6,-0.102 3.6,-0.199 3.5,-0.199 3.6,-0.199 3.6,-0.301 3.6,-0.199 3.6,-0.204 3.5,-0.296 3.6,-0.204 3.6,-0.296 3.6,-0.301 3.5,-0.199 3.6,-0.301 3.6,-0.199 3.6,-0.301 3.6,-0.199 3.5,-0.301 3.6,-0.199 3.6,-0.204 3.6,-0.199 3.5,-0.199 3.6,-0.199 3.6,-0.199" /><path
           inkscape:connector-curvature="0"
           id="path42202"
           style="fill:none;stroke:#5581b4;stroke-width:22.5;stroke-linecap:round;stroke-linejoin:round;stroke-miterlimit:10;stroke-opacity:1;stroke-dasharray:none"
           d="m 3794.4,812.602 3.6,-0.204 3.6,-0.097 3.5,-0.199 3.6,-0.102 3.6,-0.199 3.6,-0.102 3.6,-0.097 3.5,-0.102 3.6,-0.102 3.6,-0.097 3.6,-0.102 3.5,0 3.6,-0.097 3.6,0 3.6,-0.102 3.6,0 3.5,-0.102 7.2,0 3.6,-0.097 14.3,0" /><path
           inkscape:connector-curvature="0"
           id="path42204"
           style="fill:none;stroke:#5581b4;stroke-width:15;stroke-linecap:round;stroke-linejoin:round;stroke-miterlimit:10;stroke-opacity:1;stroke-dasharray:45, 75;stroke-dashoffset:0"
           d="m 1786.9,720 0,2448" /><path
           inkscape:connector-curvature="0"
           id="path42206"
           style="fill:none;stroke:#fb0006;stroke-width:22.5;stroke-linecap:round;stroke-linejoin:round;stroke-miterlimit:10;stroke-opacity:1;stroke-dasharray:none"
           d="m 0,811.102 4.80078,0.097 5.09766,0 5.10156,0.102 5.1016,0.097 5.0976,0.102 5.1016,0.199 5.0976,0.102 5.1016,0.199 5.1016,0.102 5.0976,0.199 5.1016,0.199 5.0976,0.301 L 66,813 l 5.1016,0.301 5.0976,0.301 5.1016,0.296 5.0976,0.403 5.1016,0.301 5.1016,0.398 5.0974,0.398 5.102,0.5 5.097,0.403 5.102,0.5 5.102,0.5 5.097,0.597 5.102,0.5 5,0.602 5.097,0.602 5.102,0.597 5.102,0.602 5.097,0.597 5.102,0.602 5.097,0.602 5.102,0.699 5.102,0.597 5.097,0.602 5.102,0.602 5.097,0.699 5.102,0.597 5.102,0.5 5.097,0.602 5.102,0.602 5.097,0.5 5.102,0.5 5.102,0.5 5.097,0.5 5.102,0.5 5.097,0.398 5.102,0.398 5.102,0.403 5.097,0.398 5.102,0.403 5.097,0.296 5.102,0.301 5.102,0.301 5.097,0.301 5.102,0.301 5.097,0.199 5.102,0.301 5.102,0.199 5.097,0.199 5.102,0.199 5.097,0.199 5.102,0.204 5.102,0.199 5.097,0.199 5.102,0.102 5.097,0.199 5.102,0.097 5.102,0.102 5.097,0.102 5.102,0.097 5.097,0.102 5.102,0.097 5.102,0.102 30.597,0 5.102,-0.102 5.097,0 5,-0.097 5.102,-0.102 5.102,-0.199 5.097,-0.102 5.102,-0.097 5.097,-0.199 5.102,-0.102 5.102,-0.199 5.097,-0.199 5.102,-0.102 5.097,-0.199 5.102,-0.199 5.102,-0.204 5.097,-0.097 5.102,-0.199 5.097,-0.204 5.102,-0.097 5.102,-0.102 5.097,-0.199 5.102,-0.102 5.097,-0.097 5.102,0 5.102,-0.102 25.5,0 5.097,0.102 5.102,0.097 5.097,0.102 5.102,0.102 5.102,0.199 5.097,0.199 5.102,0.301 5.097,0.199 5.102,0.301 5.102,0.301 5.097,0.398 5.102,0.398 5.097,0.403 5.102,0.5 5.102,0.5 5.097,0.597 5.102,0.5 5.097,0.602 5.102,0.699 5.102,0.699 5.097,0.704 5.102,0.699 5.097,0.801 5.102,0.796 5.102,0.801 5.097,0.903 5.102,0.796 5.097,0.903 5.102,0.898 5.102,0.903 5,0.796 5.097,0.903 5.102,0.898 5.097,0.801 5.102,0.801 5.102,0.801 5.097,0.796 5.102,0.704 5.097,0.699 5.102,0.699 5.102,0.699 5.097,0.602 5.102,0.5 5.097,0.5 5.102,0.5 5.102,0.5 5.097,0.398 5.102,0.403 5.097,0.398 5.102,0.398 5.102,0.301 5.097,0.403 5.102,0.398 5.097,0.398 5.102,0.403 5.102,0.398 5.097,0.5 5.102,0.5 5.097,0.602 5.102,0.699 5.102,0.699 5.097,0.903 5.102,0.898 5.097,1 5.102,1.199 5.102,1.199 5.097,1.403 5.102,1.5 5.097,1.699 5.102,1.801 5.102,2 5.097,2.097 5.102,2.301 5.097,2.403 5.102,2.699 5.102,2.699 5.097,3 5.102,3.102 5.097,3.398 5.102,3.398 5.102,3.704 5.097,3.898 5.102,4 5.097,4.199 5.102,4.301 5.1,4.5 5.1,4.699 5,4.801 5.1,5 5.1,5.199 5.1,5.199 5.1,5.5 5.1,5.5 5.1,5.704 5.1,5.796 5.1,6 5.1,6.102 5.1,6.199 5.1,6.301 5.1,6.4 5.1,6.5 5.1,6.6 5.1,6.7 5.1,6.8 5.1,7 5.1,7 5.1,7.1 5.1,7.2 5.1,7.3 5.1,7.4 5.1,7.5 5.1,7.5 5.1,7.7 5.1,7.7 5.1,7.8 5.1,7.9 5.1,7.9 5.1,8 5.1,8.1 5.1,8.2 5.1,8.2 5.1,8.2 5.1,8.3 5.1,8.4 5.1,8.4 5.1,8.4 5.1,8.5 5.1,8.6 5.1,8.6 5.1,8.7 5.1,8.7 5.1,8.8 5.1,8.9 5.1,8.9 5.1,9.1 5.1,9.1 5.1,9.3 5.1,9.4 5.1,9.6 5.1,9.8 5.1,9.9 5.1,10.2 5.1,10.3 5.1,10.7 5,10.8 5.1,11.2 5.1,11.4 5.1,11.8 5.1,12.1 5.1,12.5 5.1,12.7 5.1,13.1 5.1,13.5 5.1,13.8 5.1,14.1 5.1,14.5 5.1,14.8 5.1,15.2 5.1,15.4 5.1,15.7 5.1,15.9 5.1,16.2 5.1,16.3 5.1,16.6 5.1,16.6 5.1,16.7 5.1,16.7 5.1,16.8 5.1,16.6 5.1,16.6 5.1,16.5 5.1,16.3 5.1,16 5.1,15.8 5.1,15.5 5.1,15.1 5.1,14.8 5.1,14.4 5.1,14 5.1,13.5 5.1,13 5.1,12.4 5.1,12 5.1,11.4 5.1,10.9 5.1,10.4 5.1,9.8 5.1,9.3 5.1,8.7 5.1,8.1 5.1,7.5 5.1,7 5.1,6.5 5.1,5.9 5.1,5.4 5.1,4.9 5.1,4.4 5.1,3.9 5.1,3.3 5.1,2.9 5.1,2.5 5,2 5.1,1.5 5.1,1.1 5.1,0.8 5.1,0.3 5.1,-0.1 5.1,-0.4 5.1,-0.8 5.1,-1.1 5.1,-1.4 5.1,-1.6 5.1,-2 5.1,-2.1 5.1,-2.4 5.1,-2.6 5.1,-2.7 5.1,-2.9 5.1,-2.9 5.1,-3.1 5.1,-3.1 5.1,-3.2 5.1,-3.3 5.1,-3.2 5.1,-3.3 5.1,-3.2 5.1,-3.3 5.1,-3.2 5.1,-3.2 5.1,-3.2 5.1,-3.2 5.1,-3.2 5.1,-3.3 5.1,-3.2 5.1,-3.3 5.1,-3.4 5.1,-3.4 5.1,-3.6 5.1,-3.7 5.1,-3.8 5.1,-4.1 5.1,-4.2 5.1,-4.5 5.1,-4.7 5.1,-5 5.1,-5.3 5.1,-5.6 5.1,-5.8 5.1,-6.3 5.1,-6.5 5.1,-6.9 5.1,-7.2 5.1,-7.5 5.1,-7.8 5.1,-8.1 5.1,-8.3 5.1,-8.6 5.1,-8.9 5.1,-9.1 5,-9.2 5.1,-9.4 5.1,-9.5 5.1,-9.6 5.1,-9.7 5.1,-9.7 5.1,-9.7 5.1,-9.6 5.1,-9.5 5.1,-9.5 5.1,-9.3 5.1,-9.2 5.1,-9 5.1,-8.9 5.1,-8.6 5.1,-8.4 5.1,-8.1 5.1,-7.9 5.1,-7.7 5.1,-7.4 5.1,-7.1 5.1,-6.9 5.1,-6.7 5.1,-6.4 5.1,-6.2 5.1,-6 5.1,-5.8 5.1,-5.6 5.1,-5.4 5.1,-5.3 5.1,-5.2 5.1,-5 5.1,-5 5.1,-4.9 5.1,-4.9 5.1,-4.8 5.1,-4.8 5.1,-4.9 5.1,-4.9 5.1,-4.9 5.1,-5 5.1,-5 5.1,-5.2 5.1,-5.3 5.1,-5.3 5.1,-5.5 5.1,-5.6 5.1,-5.7 5.1,-5.8 5.1,-6 5.1,-6.1 5.1,-6.3 5.1,-6.3 5.1,-6.5 5.1,-6.5 5.1,-6.7 5.1,-6.8 5,-6.8 5.1,-6.9 5.1,-7 5.1,-7.1 5.1,-7.1 5.1,-7.1 5.1,-7.2 5.1,-7.2 5.1,-7.2 5.1,-7.2 5.1,-7.2 5.1,-7.2 5.1,-7.1 5.1,-7.1 5.1,-7.1 5.1,-7 5.1,-7 5.1,-6.9 5.1,-6.9 5.1,-6.7 5.1,-6.7 5.1,-6.6 5.1,-6.5 5.1,-6.5 5.1,-6.3 5.1,-6.2 5.1,-6.1 5.1,-6 5.1,-5.8 5.1,-5.8 5.1,-5.6 5.1,-5.5 5.1,-5.4 5.1,-5.2 5.1,-5.1 5.1,-4.9 5.1,-4.8 5.1,-4.6 5.1,-4.6 5.1,-4.3 5.1,-4.3 5.1,-4.1 5.1,-4 5.1,-3.9 5.1,-3.8 5.1,-3.6 5.1,-3.6 5.1,-3.4 5.1,-3.4 5.1,-3.4 5.1,-3.2 5.1,-3.3 5.1,-3.1 5.1,-3.2 5.1,-3.2 5.1,-3.1 5.1,-3.2 5,-3.2 5.1,-3.2 5.1,-3.3 5.1,-3.3 5.1,-3.4 5.1,-3.5 5.1,-3.5 5.1,-3.6 5.1,-3.8 5.1,-3.8 5.1,-3.9 5.1,-4 5.1,-4.1 5.1,-4.1 5.1,-4.3 5.1,-4.4 5.1,-4.4 5.1,-4.5 5.1,-4.6 5.1,-4.6 5.1,-4.7 5.1,-4.7 5.1,-4.7 5.1,-4.7 5.1,-4.8 5.1,-4.7 5.1,-4.7 5.1,-4.6 5.1,-4.6 5.1,-4.5 5.1,-4.5 5.1,-4.4 5.1,-4.2 5.1,-4.2 5.1,-4.1 5.1,-3.902 5.1,-3.796 5.1,-3.704 5.1,-3.597 5.1,-3.403 5.1,-3.296 5.1,-3.102 5.1,-3 5.1,-2.801 5.1,-2.801 5.1,-2.5 5.1,-2.398 5.1,-2.398 5.1,-2.102 5.1,-2.102 5.1,-1.898 5.1,-1.898 5.1,-1.704 5.1,-1.699 5.1,-1.5 5.1,-1.5 5.1,-1.301 5,-1.398 5.1,-1.199 5.1,-1.199 5.1,-1.204 5.1,-1.097 5.1,-1.102 5.1,-1.097 5.1,-1 5.1,-1.102 5.1,-1 5.1,-1 5.1,-1.102 5.1,-1 5.1,-1.097 5.1,-1.102 5.1,-1.097 5.1,-1.102 5.1,-1.199 5.1,-1.301 5.1,-1.199 5.1,-1.403 5.1,-1.296 5.1,-1.5 5.1,-1.5 5.1,-1.5 5.1,-1.704 5.1,-1.597 5.1,-1.801 5.1,-1.801 5.1,-1.801 5.1,-1.898 5.1,-2 5.1,-2 5.1,-2 5.1,-2.102 5.1,-2.097 5.1,-2.199 5.1,-2.102 5.1,-2.199 5.1,-2.199 5.1,-2.204 5.1,-2.097 5.1,-2.102 5.1,-2.097 5.1,-2.102 5.1,-2 5.1,-2 5.1,-1.801 5.1,-1.801 5.1,-1.796 5.1,-1.602 5.1,-1.5 5.1,-1.5 5.1,-1.301 5.1,-1.199 5.1,-1.102 5.1,-1 5,-0.796 5.1,-0.801 5.1,-0.602 5.1,-0.597 5.1,-0.403 5.1,-0.301 5.1,-0.199 5.1,-0.097 10.2,0 5.1,0.097 5.1,0.199 5.1,0.301 5.1,0.301 5.1,0.301 5.1,0.398 5.1,0.403 5.1,0.398 5.1,0.398 5.1,0.403 5.1,0.398 5.1,0.403 5.1,0.398 5.1,0.301 5.1,0.301 5.1,0.296 5.1,0.301 5.1,0.102 5.1,0.199 5.1,0.102 15.3,0 5.1,-0.102 5.1,-0.199 5.1,-0.199 5.1,-0.301 5.1,-0.301 5.1,-0.398 5.1,-0.403 5.1,-0.398 5.1,-0.5 5.1,-0.602 5.1,-0.5 5.1,-0.597 5.1,-0.704 5.1,-0.597 5.1,-0.699 5.1,-0.704 5.1,-0.699 5.1,-0.801 5.1,-0.699 5.1,-0.801 5.1,-0.699 5.1,-0.801 5.1,-0.796 5.1,-0.704 5.1,-0.796 5,-0.704 5.1,-0.699 5.1,-0.699 5.1,-0.699 5.1,-0.699 5.1,-0.704 5.1,-0.597 5.1,-0.602 5.1,-0.597 5.1,-0.602 5.1,-0.5 5.1,-0.5 5.1,-0.398 5.1,-0.5 5.1,-0.403 5.1,-0.301 5.1,-0.296 5.1,-0.301 5.1,-0.301 5.1,-0.199 5.1,-0.199 5.1,-0.102 5.1,-0.102 5.1,-0.097 15.3,0 5.1,0.097 5.1,0.102 5.1,0.102 5.1,0.199 5.1,0.199 5.1,0.199 5.1,0.199 5.1,0.204 5.1,0.296 5.1,0.301 5.1,0.199 5.1,0.301 5.1,0.301 5.1,0.301 5.1,0.301 5.1,0.296 5.1,0.204 5.1,0.296 5.1,0.204 5.1,0.199 5.1,0.199 5.1,0.199 5.1,0.102 5.1,0.199 5.1,0 5.1,0.102 10.2,0 5.1,-0.102 5.1,-0.102 5,-0.097 5.1,-0.199 5.1,-0.204 5.1,-0.199 5.1,-0.301 5.1,-0.296 5.1,-0.301 5.1,-0.403 5.1,-0.296 5.1,-0.403 5.1,-0.398 5.1,-0.403 5.1,-0.398 5.1,-0.5 5.1,-0.398 5.1,-0.403 5.1,-0.5 5.1,-0.398 5.1,-0.403 5.1,-0.5 5.1,-0.398 5.1,-0.398 5.1,-0.403 5.1,-0.398 5.1,-0.403 5.1,-0.398 5.1,-0.301 5.1,-0.398 5.1,-0.403 5.1,-0.296 5.1,-0.403 5.1,-0.301 5.1,-0.296 5.1,-0.403 5.1,-0.301 5.1,-0.296 5.1,-0.301 5.1,-0.301 5.1,-0.398 5.1,-0.301 5.1,-0.301 5.1,-0.301 5.1,-0.301 5.1,-0.296 5.1,-0.301 5.1,-0.301 5.1,-0.301 5.1,-0.199 5.1,-0.301 5.1,-0.301 5.1,-0.199 5.1,-0.199 5.1,-0.301 5.1,-0.199 5.1,-0.199 5.1,-0.199 5.1,-0.102 5,-0.199 5.1,-0.102 5.1,-0.097 5.1,-0.204 5.1,-0.097 5.1,-0.102 5.1,0 5.1,-0.097 5.1,-0.102 5.1,0 5.1,-0.102 5.1,0 5.1,-0.097 10.2,0 5.1,-0.102 5.1,0 5.1,-0.097 5.1,0 5.1,-0.102 5.1,-0.102 5.1,-0.097 5.1,-0.102 5.1,-0.097 5.1,-0.102 5.1,-0.102 5.1,-0.199 5.1,-0.097 5.1,-0.204 5.1,-0.097 5.1,-0.199 5.1,-0.204 5.1,-0.199 5.1,-0.199 5.1,-0.199 5.1,-0.199 5.1,-0.204 5.1,-0.199 5.1,-0.199 5.1,-0.199 5.1,-0.199 5.1,-0.204 5.1,-0.199 5.1,-0.199 5.1,-0.199 5.1,-0.102 5.1,-0.199 5.1,-0.102 5.1,-0.097 5.1,-0.102 5.1,-0.097 5.1,-0.102 5.1,0 5.1,-0.102 30.5,0 5.1,0.102 5.1,0 5.1,0.102 5.1,0 5.1,0.097 5.1,0 5.1,0.102 5.1,0.097 5.1,0 5.1,0.102 5.1,0.102 5.1,0.097 5.1,0 5.1,0.102 5.1,0.097 5.1,0.102 5.1,0 5.1,0.102 5.1,0.097 5.1,0 5.1,0.102 5.1,0.097 5.1,0.102 5.1,0.102 5.1,0 5.1,0.097 5.1,0.102 5.1,0.097 5.1,0.102 5.1,0.102 5.1,0.097 5.1,0.102 5.1,0.199 5.1,0.102 5.1,0.097 5.1,0.102 5.1,0.199 5.1,0.102 5.1,0.097 5.1,0.199 5.1,0.102 5.1,0.102 5.1,0.097 5.1,0.199 5.1,0.102 5.1,0.102 5.1,0.097 5.1,0.102 5.1,0.097 5.1,0 5.1,0.102 5.1,0 5.1,0.102 15.2,0 5.1,-0.102 5.1,0 5.1,-0.102 5.1,-0.097 5.1,-0.102 5.1,-0.097 5.1,-0.102 5.1,-0.199 5.1,-0.102 5.1,-0.199 5.1,-0.199 5.1,-0.199 5.1,-0.204 5.1,-0.199 5.1,-0.199 5.1,-0.301 5.1,-0.199 5.1,-0.301 5.1,-0.199 5.1,-0.301 5.1,-0.301 5.1,-0.199 5.1,-0.301 5.1,-0.296 5.1,-0.204 5.1,-0.296 5.1,-0.204 5.1,-0.296 5.1,-0.204 5.1,-0.199 5.1,-0.301 5.1,-0.199 5.1,-0.199 5.1,-0.199 5.1,-0.102 5.1,-0.199 5.1,-0.199 5.1,-0.102 5.1,-0.097 5.1,-0.102 5.1,-0.102 5.1,-0.097 5.1,0 5.1,-0.102 20.4,0 5.1,0.102 5.1,0.097 5.1,0 5.1,0.102 5.1,0.102 5.1,0.097 5.1,0.199 5.1,0.102 5,0.199 5.1,0.102 5.1,0.199 5.1,0.199 5.1,0.199 5.1,0.102 5.1,0.199 5.1,0.199 5.1,0.204 5.1,0.199 5.1,0.097 5.1,0.204 5.1,0.097 5.1,0.199 5.1,0.102 5.1,0.102 5.1,0.097 5.1,0.102 5.1,0 5.1,0.097 20.4,0 5.1,-0.097 5.1,-0.102 5.1,-0.097 5.1,-0.102 5.1,-0.102 5.1,-0.097 5.1,-0.199 5.1,-0.102 5.1,-0.199 5.1,-0.199 5.1,-0.204 5.1,-0.199 5.1,-0.199 5.1,-0.199 5.1,-0.199 5.1,-0.204 5.1,-0.199 5.1,-0.199 5.1,-0.199 5.1,-0.199 5.1,-0.204 5.1,-0.097 5.1,-0.199 5.1,-0.204 5.1,-0.097 5.1,-0.199 5.1,-0.102 5.1,-0.102 5.1,-0.199 5.1,-0.097 5.1,-0.102 5.1,-0.102 5.1,0" /><path
           inkscape:connector-curvature="0"
           id="path42208"
           style="fill:none;stroke:#fb0006;stroke-width:15;stroke-linecap:round;stroke-linejoin:round;stroke-miterlimit:10;stroke-opacity:1;stroke-dasharray:45, 75;stroke-dashoffset:0"
           d="m 1846.4,720 0,2448" /><path
           inkscape:connector-curvature="0"
           id="path42210"
           style="fill:#ffffff;fill-opacity:1;fill-rule:nonzero;stroke:none"
           d="m 1980,2270.9 2974.4,0 0,806.402 -2974.4,0 0,-806.402 z" /><path
           inkscape:connector-curvature="0"
           id="path42212"
           style="fill:none;stroke:#000000;stroke-width:7.5;stroke-linecap:round;stroke-linejoin:round;stroke-miterlimit:10;stroke-opacity:1;stroke-dasharray:none"
           d="m 1980,2270.9 2974.4,0 0,806.402 -2974.4,0 0,-806.402 z" /><path
           inkscape:connector-curvature="0"
           id="path42214"
           style="fill:none;stroke:#000000;stroke-width:22.5;stroke-linecap:round;stroke-linejoin:round;stroke-miterlimit:10;stroke-opacity:1;stroke-dasharray:none"
           d="m 2131.2,2875.7 302.4,0" /><path
           inkscape:connector-curvature="0"
           id="path42216"
           style="fill:none;stroke:#5581b4;stroke-width:22.5;stroke-linecap:round;stroke-linejoin:round;stroke-miterlimit:10;stroke-opacity:1;stroke-dasharray:none"
           d="m 2131.2,2674.1 302.4,0" /><path
           inkscape:connector-curvature="0"
           id="path42218"
           style="fill:none;stroke:#fb0006;stroke-width:22.5;stroke-linecap:round;stroke-linejoin:round;stroke-miterlimit:10;stroke-opacity:1;stroke-dasharray:none"
           d="m 2131.2,2472.5 302.4,0" /><g
           transform="scale(10,10)"
           id="g42220"><text
             id="text42222"
             transform="matrix(1,0,0,-1,258.48,281.47)"><tspan
               id="tspan42224"
               sodipodi:role="line"
               y="0"
               x="0 12.274 21.726 26.452 35.903999 39.678001 48.178001 52.903999 58.394932 67.846931 76.346931 81.072929 90.524933 96.185928 100.91193 106.57293 120.73393 130.18593 139.63794 149.08994 153.81593 163.26793 172.71992 182.17194 186.89793 196.34993 201.07593 215.23694 223.73694"
               style="font-size:17px;font-variant:normal;font-weight:normal;writing-mode:lr-tb;fill:#000000;fill-opacity:1;fill-rule:nonzero;stroke:none;font-family:Arial;-inkscape-font-specification:Arial">No distractor (mean 295.1 ms)</tspan><tspan
               id="tspan42226"
               sodipodi:role="line"
               y="20.1598"
               x="0 11.339 19.839001 29.291 37.791 47.243 52.903999 62.355999 71.807999 81.260002 90.711998 99.211998 103.938 109.599 119.051 128.50301 137.955 142.681 152.133 156.85899 171.02 179.52"
               style="font-size:17px;font-variant:normal;font-weight:normal;writing-mode:lr-tb;fill:#000000;fill-opacity:1;fill-rule:nonzero;stroke:none;font-family:Arial;-inkscape-font-specification:Arial">Synchronous (336.0 ms)</tspan><tspan
               id="tspan42228"
               sodipodi:role="line"
               y="40.319599"
               x="0 11.339 19.839001 28.339001 37.791 46.291 55.743 61.403999 70.856003 80.307999 89.760002 99.211998 107.712 112.438 118.099 127.551 137.00301 146.455 151.181 160.633 165.35899 179.52 188.02"
               style="font-size:17px;font-variant:normal;font-weight:normal;writing-mode:lr-tb;fill:#000000;fill-opacity:1;fill-rule:nonzero;stroke:none;font-family:Arial;-inkscape-font-specification:Arial">Asynchronous (345.0 ms)</tspan></text>
</g></g></g></g></svg>