<?xml version="1.0" encoding="UTF-8" standalone="no"?>
<!-- Created with Inkscape (http://www.inkscape.org/) -->

<svg
   xmlns:dc="http://purl.org/dc/elements/1.1/"
   xmlns:cc="http://creativecommons.org/ns#"
   xmlns:rdf="http://www.w3.org/1999/02/22-rdf-syntax-ns#"
   xmlns:svg="http://www.w3.org/2000/svg"
   xmlns="http://www.w3.org/2000/svg"
   xmlns:sodipodi="http://sodipodi.sourceforge.net/DTD/sodipodi-0.dtd"
   xmlns:inkscape="http://www.inkscape.org/namespaces/inkscape"
   id="svg2"
   version="1.1"
   inkscape:version="0.91 r13725"
   xml:space="preserve"
   width="720"
   height="450"
   viewBox="0 0 720 450"
   sodipodi:docname="data_density_altmethod.svg"
   inkscape:export-filename="/home/seb/models/linetask2014/paper/figures/data_density_altmethod.png"
   inkscape:export-xdpi="300"
   inkscape:export-ydpi="300"><metadata
     id="metadata8"><rdf:RDF><cc:Work
         rdf:about=""><dc:format>image/svg+xml</dc:format><dc:type
           rdf:resource="http://purl.org/dc/dcmitype/StillImage" /><dc:title></dc:title></cc:Work></rdf:RDF></metadata><defs
     id="defs6"><clipPath
       clipPathUnits="userSpaceOnUse"
       id="clipPath18"><path
         d="m 720,720 4320,0 0,2448 -4320,0 0,-2448 z"
         id="path20"
         inkscape:connector-curvature="0" /></clipPath><clipPath
       clipPathUnits="userSpaceOnUse"
       id="clipPath90"><path
         d="m 720,720 4320,0 0,2448 -4320,0 0,-2448 z"
         id="path92"
         inkscape:connector-curvature="0" /></clipPath></defs><sodipodi:namedview
     pagecolor="#ffffff"
     bordercolor="#666666"
     borderopacity="1"
     objecttolerance="10"
     gridtolerance="10"
     guidetolerance="10"
     inkscape:pageopacity="0"
     inkscape:pageshadow="2"
     inkscape:window-width="1600"
     inkscape:window-height="828"
     id="namedview4"
     showgrid="false"
     inkscape:zoom="0.96111111"
     inkscape:cx="334.28857"
     inkscape:cy="245.67086"
     inkscape:window-x="0"
     inkscape:window-y="25"
     inkscape:window-maximized="1"
     inkscape:current-layer="g10" /><g
     id="g10"
     inkscape:groupmode="layer"
     inkscape:label="ink_ext_XXXXXX"
     transform="matrix(1.25,0,0,-1.25,0,450)"><g
       id="g14"
       transform="scale(0.1,0.1)"><g
         clip-path="url(#clipPath18)"
         id="g16"><path
           inkscape:connector-curvature="0"
           id="path22"
           style="fill:none;stroke:#000000;stroke-width:22.5;stroke-linecap:round;stroke-linejoin:round;stroke-miterlimit:10;stroke-dasharray:none;stroke-opacity:1"
           d="m 542.801,810.699 3.801,0 3.699,0.102 11.199,0 3.699,0.097 7.403,0 3.699,0.102 3.801,0.102 3.699,0 3.699,0.097 3.699,0.102 3.699,0.097 3.801,0.102 3.699,0.102 3.704,0.097 3.699,0.199 3.801,0.102 3.699,0.199 3.699,0.199 3.699,0.204 3.699,0.199 3.801,0.199 3.699,0.301 3.704,0.199 3.699,0.301 3.801,0.301 3.699,0.296 3.699,0.301 3.699,0.403 3.699,0.296 3.801,0.403 3.699,0.398 3.704,0.403 3.699,0.398 3.801,0.398 3.699,0.5 3.699,0.403 3.699,0.5 3.699,0.5 3.801,0.398 3.699,0.5 3.704,0.602 3.699,0.5 3.801,0.597 3.699,0.602 3.699,0.602 3.699,0.597 3.699,0.602 3.801,0.699 3.699,0.801 3.704,0.699 3.699,0.898 3.801,0.801 3.699,1 3.699,0.903 3.699,1.097 3.699,1.102 3.801,1.199 3.699,1.301 3.704,1.398 3.699,1.403 3.801,1.597 3.699,1.699 3.699,1.801 3.699,1.903 3.699,2 3.801,2.097 3.699,2.301 3.704,2.398 3.699,2.602 3.699,2.699 3.801,2.903 3.699,3 3.699,3.199 3.699,3.301 3.801,3.398 3.699,3.699 3.704,3.801 3.699,3.898 3.699,4.102 3.801,4.301 3.699,4.398 3.699,4.602 3.699,4.801 3.801,4.796 3.699,5.102 3.704,5.199 3.699,5.301 3.699,5.602 3.801,5.699 3.699,5.801 3.699,6 3.699,6.199 3.801,6.398 3.699,6.5 3.704,6.699 3.699,6.903 3.699,7.199 3.801,7.398 3.699,7.502 3.699,7.9 3.699,8 3.801,8.4 3.699,8.6 3.704,8.8 3.699,9.1 3.699,9.5 3.801,9.7 3.699,10 3.699,10.3 3.699,10.6 3.801,10.8 3.699,11.2 3.704,11.4 3.699,11.7 3.699,12 3.801,12.2 3.699,12.5 3.699,12.7 3.699,12.9 3.802,13.1 3.7,13.4 3.7,13.5 3.7,13.7 3.7,13.9 3.8,14.1 3.7,14.2 3.7,14.5 3.7,14.6 3.8,14.7 3.7,15 3.7,15.1 3.7,15.3 3.7,15.5 3.8,15.7 3.7,15.9 3.7,16.2 3.7,16.4 3.7,16.7 3.8,16.9 3.7,17.2 3.7,17.5 3.7,17.7 3.8,18.1 3.7,18.4 3.7,18.7 3.7,19 3.7,19.4 3.8,19.6 3.7,20 3.7,20.3 3.7,20.5 3.8,20.8 3.7,21.1 3.7,21.4 3.7,21.5 3.7,21.8 3.8,21.9 3.7,22.1 3.7,22.1 3.7,22.3 3.8,22.3 3.7,22.3 3.7,22.2 3.7,22.2 3.7,22.1 3.8,22 3.7,21.8 3.7,21.6 3.7,21.4 3.8,21.2 3.7,20.9 3.7,20.5 3.7,20.3 3.7,20 3.8,19.6 3.7,19.4 3.7,19 3.7,18.6 3.8,18.4 3.7,18 3.7,17.7 3.7,17.4 3.7,17 3.8,16.8 3.7,16.4 3.7,16.1 3.7,15.8 3.8,15.5 3.7,15.1 3.7,14.7 3.7,14.3 3.7,13.8 3.8,13.4 3.7,12.9 3.7,12.3 3.7,11.7 3.7,11 3.8,10.4 3.7,9.6 3.7,8.6 3.7,7.8 3.8,6.9 3.7,5.9 3.7,5 3.7,3.9 3.7,2.8 3.8,1.8 3.7,0.7 3.7,-0.4 3.7,-1.5 3.8,-2.5 3.7,-3.4 3.7,-4.4 3.7,-5.2 3.7,-6 3.8,-6.7 3.7,-7.3 3.7,-7.9 3.7,-8.3 3.8,-8.6 3.7,-8.8 3.7,-9 3.7,-8.9 3.7,-8.9 3.8,-8.7 3.7,-8.5 3.7,-8.1 3.7,-7.8 3.8,-7.3 3.7,-6.8 3.7,-6.3 3.7,-5.8 3.7,-5.3 3.8,-4.7 3.7,-4.3 3.7,-3.9 3.7,-3.3 3.8,-3 3.7,-2.7 3.7,-2.5 3.7,-2.2 3.7,-2.1 3.8,-2.1 3.7,-2.1 3.7,-2.2 3.7,-2.3 3.8,-2.6 3.7,-2.8 3.7,-3.2 3.7,-3.5 3.7,-3.9 3.8,-4.3 3.7,-4.9 3.7,-5.2 3.7,-5.8 3.8,-6.3 3.7,-6.8 3.7,-7.3 3.7,-7.8 3.7,-8.2 3.8,-8.6 3.7,-9.1 3.7,-9.4 3.7,-9.9 3.7,-10.1 3.8,-10.5 3.7,-10.8 3.7,-11 3.7,-11.2 3.8,-11.4 3.7,-11.5 3.7,-11.7 3.7,-11.8 3.7,-11.9 3.8,-12 3.7,-12.1 3.7,-12 3.7,-12.2 3.8,-12.1 3.7,-12.1 3.7,-12.2 3.7,-12.2 3.7,-12.2 3.8,-12.2 3.7,-12.3 3.7,-12.3 3.7,-12.3 3.8,-12.4 3.7,-12.4 3.7,-12.5 3.7,-12.5 3.7,-12.7 3.8,-12.8 3.7,-12.8 3.7,-13 3.7,-13.1 3.8,-13.2 3.7,-13.3 3.7,-13.5 3.7,-13.6 3.7,-13.6 3.8,-13.8 3.7,-13.9 3.7,-13.9 3.7,-14 3.8,-14.1 3.7,-14 3.7,-14.1 3.7,-14.1 3.7,-14 3.8,-14 3.7,-14 3.7,-13.8 3.7,-13.7 3.8,-13.7 3.7,-13.5 3.7,-13.3 3.7,-13.2 3.7,-13 3.8,-12.9 3.7,-12.7 3.7,-12.4 3.7,-12.3 3.7,-12.1 3.8,-11.9 3.7,-11.7 3.7,-11.5 3.7,-11.4 3.8,-11.1 3.7,-10.9 3.7,-10.7 3.7,-10.5 3.7,-10.4 3.8,-10.1 3.7,-9.9 3.7,-9.8 3.7,-9.6 3.8,-9.4 3.7,-9.2 3.7,-9.1 3.7,-8.9 3.7,-8.7 3.8,-8.6 3.7,-8.5 3.7,-8.3 3.7,-8.2 3.8,-8.1 3.7,-8 3.7,-7.9 3.7,-7.8 3.7,-7.8 3.8,-7.7 3.7,-7.7 3.7,-7.6 3.7,-7.6 3.8,-7.6 3.7,-7.6 3.7,-7.5 3.7,-7.5 3.7,-7.6 3.8,-7.5 3.7,-7.5 3.7,-7.5 3.7,-7.4 3.8,-7.4 3.7,-7.3 3.7,-7.3 3.7,-7.2 3.7,-7.1 3.8,-7 3.7,-6.8 3.7,-6.7 3.7,-6.6 3.8,-6.4 3.7,-6.3 3.7,-6 3.7,-5.9 3.7,-5.7 3.8,-5.5 3.7,-5.3 3.7,-5.1 3.7,-4.9 3.8,-4.7 3.7,-4.6 3.7,-4.4 3.7,-4.3 3.7,-4.1 3.8,-4 3.7,-3.9 3.7,-3.8 3.7,-3.7 3.7,-3.7 3.8,-3.6 3.7,-3.5 3.7,-3.5 3.7,-3.5 3.8,-3.4 3.7,-3.4 3.7,-3.4 3.7,-3.4 3.7,-3.3 3.8,-3.4 3.7,-3.3 3.7,-3.2 3.7,-3.2 3.8,-3.2 3.7,-3.1 3.7,-3 3.7,-2.9 3.7,-2.8 3.8,-2.7 3.7,-2.6 3.7,-2.4 3.7,-2.3 3.8,-2.2 3.7,-2 3.7,-1.8 3.7,-1.6 3.7,-1.5 3.8,-1.3 3.7,-1.2 3.7,-1 3.7,-0.801 3.8,-0.699 3.7,-0.5 3.7,-0.398 3.7,-0.301 3.7,-0.102 3.8,-0.097 3.7,0 3.7,0.097 3.7,0.102 3.8,0.199 3.7,0.199 3.7,0.102 3.7,0.199 3.7,0 3.8,0.102 3.7,-0.102 3.7,-0.102 3.7,-0.296 3.8,-0.403 3.7,-0.5 3.7,-0.699 3.7,-0.898 3.7,-1 3.8,-1.301 3.7,-1.403 3.7,-1.597 3.7,-1.801 3.7,-2.102 3.8,-2.199 3.7,-2.398 3.7,-2.602 3.7,-2.801 3.8,-3 3.7,-3.199 3.7,-3.199 3.7,-3.398 3.7,-3.5 3.8,-3.602 3.7,-3.602 3.7,-3.699 3.7,-3.699 3.8,-3.699 3.7,-3.699 3.7,-3.602 3.7,-3.5 3.7,-3.398 3.8,-3.301 3.7,-3.102 3.7,-3 3.7,-2.801 3.8,-2.597 3.7,-2.403 3.7,-2.199 3.7,-2.097 3.7,-1.801 3.8,-1.602 3.7,-1.398 3.7,-1.199 3.7,-1 3.8,-0.801 3.7,-0.699 3.7,-0.5 3.7,-0.403 3.7,-0.301 3.8,-0.097 3.7,-0.102 3.7,0 3.7,0.102 3.8,0.097 3.7,0.102 3.7,0.102 3.7,0.097 3.7,0.102 11.2,0 3.7,-0.199 3.8,-0.204 3.7,-0.296 3.7,-0.403 3.7,-0.5 3.7,-0.5 3.8,-0.699 3.7,-0.801 3.7,-0.801 3.7,-1 3.7,-1.097 3.8,-1.102 3.7,-1.301 3.7,-1.296 3.7,-1.301 3.8,-1.5 3.7,-1.403 3.7,-1.597 3.7,-1.5 3.7,-1.602 3.8,-1.597 3.7,-1.602 3.7,-1.602 3.7,-1.597 3.8,-1.602 3.7,-1.5 3.7,-1.5 3.7,-1.398 3.7,-1.403 3.8,-1.296 3.7,-1.204 3.7,-1.199 3.7,-1.097 3.8,-1 3.7,-0.903 3.7,-0.898 3.7,-0.801 3.7,-0.699 3.8,-0.602 3.7,-0.5 3.7,-0.5 3.7,-0.5 3.8,-0.301 3.7,-0.398 3.7,-0.301 3.7,-0.301 3.7,-0.199 3.8,-0.199 3.7,-0.301 3.7,-0.199 3.7,-0.301 3.8,-0.199 3.7,-0.301 3.7,-0.301 3.7,-0.296 3.7,-0.301 3.8,-0.403 3.7,-0.398 3.7,-0.5 3.7,-0.398 3.8,-0.5 3.7,-0.602 3.7,-0.5 3.7,-0.602 3.7,-0.597 3.8,-0.602 3.7,-0.597 3.7,-0.602 3.7,-0.602 3.8,-0.597 3.7,-0.602 3.7,-0.597 3.7,-0.602 3.7,-0.5 3.8,-0.5 3.7,-0.5 3.7,-0.5 3.7,-0.5 3.7,-0.398 3.8,-0.403 3.7,-0.398 3.7,-0.403 3.7,-0.296 3.8,-0.301 3.7,-0.301 3.7,-0.301 3.7,-0.199 3.7,-0.301 3.8,-0.199 3.7,-0.199 3.7,-0.199 3.7,-0.204 3.8,-0.199 3.7,-0.199 3.7,-0.199 3.7,-0.102 3.7,-0.199 3.8,-0.102 3.7,-0.097 3.7,-0.199 3.7,-0.102 3.8,-0.102 3.7,0 3.7,-0.097 3.7,0 3.7,-0.102 3.8,0 3.7,0.102 7.4,0 3.8,0.097 3.7,0.102 3.7,0.102 3.7,0.097 3.7,0.102 3.8,0.097 3.7,0.102 3.7,0.102 3.7,0.199 3.8,0.097 3.7,0.102 3.7,0.102 3.7,0.097 3.7,0 3.8,0.102 11.1,0 3.8,-0.102 3.7,-0.097 3.7,-0.102 3.7,-0.199 3.7,-0.199 3.8,-0.204 3.7,-0.296 3.7,-0.301 3.7,-0.301 3.7,-0.398 3.8,-0.403 3.7,-0.398 3.7,-0.403 3.7,-0.5 3.8,-0.5 3.7,-0.5 3.7,-0.5 3.7,-0.5 3.7,-0.5 3.8,-0.5 3.7,-0.5 3.7,-0.398 3.7,-0.5 3.8,-0.398 3.7,-0.403 3.7,-0.398 3.7,-0.301 3.7,-0.301 3.8,-0.301 3.7,-0.199 3.7,-0.199 3.7,-0.102 11.2,0 3.7,0.102 3.7,0.102 3.8,0.199 3.7,0.199 3.7,0.301 3.7,0.301 3.8,0.398 3.7,0.398 3.7,0.403 3.7,0.398 3.7,0.5 3.8,0.5 3.7,0.403 3.7,0.5 3.7,0.5 3.8,0.5 3.7,0.5 3.7,0.398 3.7,0.5 3.7,0.398 3.8,0.403 3.7,0.398 3.7,0.301 3.7,0.301 3.8,0.301 3.7,0.199 3.7,0.097 3.7,0.102 3.7,0.102 7.5,0 3.7,-0.102 3.7,-0.102 3.8,-0.199 3.7,-0.199 3.7,-0.199 3.7,-0.403 3.7,-0.296 3.8,-0.403 3.7,-0.398 3.7,-0.5 3.7,-0.5 3.7,-0.5 3.8,-0.5 3.7,-0.602 3.7,-0.5 3.7,-0.597 3.8,-0.602 3.7,-0.602 3.7,-0.597 3.7,-0.5 3.7,-0.602 3.8,-0.5 3.7,-0.597 3.7,-0.5 3.7,-0.5 3.8,-0.403 3.7,-0.398 3.7,-0.403 3.7,-0.398 3.7,-0.301 3.8,-0.301 3.7,-0.199 3.7,-0.199 3.7,-0.199 3.8,-0.102 3.7,-0.097 11.1,0 3.8,0.097 3.7,0.102 3.7,0.097 3.7,0.204 3.8,0.199 3.7,0.199 3.7,0.199 3.7,0.199 3.7,0.204 3.8,0.296 3.7,0.301 3.7,0.199 3.7,0.301 3.8,0.199 3.7,0.301 3.7,0.199 3.7,0.301 3.7,0.199 3.8,0.204 3.7,0.199 3.7,0.097 3.7,0.204 3.8,0.097 3.7,0.102 3.7,0.097 14.9,0 3.7,-0.097 3.7,-0.102 3.7,-0.097 3.8,-0.102 3.7,-0.102 3.7,-0.199 3.7,-0.199 3.8,-0.199 3.7,-0.301 3.7,-0.199 3.7,-0.301 3.7,-0.199 3.8,-0.301 3.7,-0.301 3.7,-0.199 3.7,-0.301 3.8,-0.301 3.7,-0.199 3.7,-0.301 3.7,-0.199 3.7,-0.301 3.8,-0.199 3.7,-0.199 3.7,-0.102 3.7,-0.199 3.8,-0.097 3.7,-0.102 3.7,-0.102 3.7,-0.097 14.9,0 3.7,0.097 3.8,0.102 3.7,0 3.7,0.199 3.7,0.102 3.7,0.097 3.8,0.102 3.7,0.199 3.7,0.102 3.7,0.097 3.8,0.102 3.7,0.199 3.7,0.102 3.7,0 3.7,0.097 3.8,0.102 18.6,0 3.7,-0.102 3.7,-0.097 3.7,-0.102 3.8,-0.199 3.7,-0.102 3.7,-0.199 3.7,-0.199 3.7,-0.102 3.8,-0.199 3.7,-0.301 3.7,-0.199 3.7,-0.199 3.8,-0.199 3.7,-0.199 3.7,-0.301 3.7,-0.199 3.7,-0.204 3.8,-0.199 3.7,-0.097 3.7,-0.204 3.7,-0.199 3.8,-0.097 3.7,-0.102 3.7,-0.102 3.7,-0.097 3.7,-0.102 3.8,-0.097 18.6,0 3.7,0.097 3.7,0.102 3.7,0.097 3.8,0.102 3.7,0.102 3.7,0.199 3.7,0.097 3.8,0.204 3.7,0.199 3.7,0.199 3.7,0.199 3.7,0.199 3.8,0.204 3.7,0.296 3.7,0.204 3.7,0.199 3.8,0.199 3.7,0.199 3.7,0.199 3.7,0.204 3.7,0.199 3.8,0.097 3.7,0.204 3.7,0.097 3.7,0.102 3.8,0.097 18.6,0 3.7,-0.097 3.7,-0.102 3.7,-0.097 3.8,-0.102 3.7,-0.199 3.7,-0.102 3.7,-0.199 3.7,-0.199 3.8,-0.199 3.7,-0.301 3.7,-0.199 3.7,-0.204 3.7,-0.199 3.8,-0.301 3.7,-0.199 3.7,-0.199 3.7,-0.199 3.8,-0.199 3.7,-0.204 3.7,-0.199 3.7,-0.199 3.7,-0.199 3.8,-0.199 3.7,-0.102 3.7,-0.199 3.7,-0.102 3.8,-0.097 3.7,-0.102 3.7,-0.102 3.7,-0.097 3.7,-0.102 3.8,-0.097 3.7,0 3.7,-0.102 3.7,0 3.8,-0.102 3.7,0 3.7,-0.097 18.6,0 3.7,-0.102 22.4,0 3.7,0.102 14.9,0 3.7,0.097 7.4,0 3.8,0.102 3.7,0 3.7,0.102 3.7,0 3.8,0.097 3.7,0.102 3.7,0.097 3.7,0.102 3.7,0.102 3.8,0.097 3.7,0.199 3.7,0.102 3.7,0.199 3.7,0.102 3.8,0.199 3.7,0.199 3.7,0.199 3.7,0.204 3.8,0.199 3.7,0.199 3.7,0.199 3.7,0.301 3.7,0.199 3.8,0.199 3.7,0.204 3.7,0.296 3.7,0.204 3.8,0.199 3.7,0.199 3.7,0.199 3.7,0.102 3.7,0.199 3.8,0.102 3.7,0.097 3.7,0.102 3.7,0.097 18.6,0 3.8,-0.097 3.7,-0.102 3.7,-0.199 3.7,-0.102 3.8,-0.199 3.7,-0.097 3.7,-0.204 3.7,-0.199 3.7,-0.199 3.8,-0.301 3.7,-0.199 3.7,-0.199 3.7,-0.199 3.8,-0.301 3.7,-0.199 3.7,-0.204 3.7,-0.199 3.7,-0.199 3.8,-0.199" /><path
           inkscape:connector-curvature="0"
           id="path24"
           style="fill:none;stroke:#000000;stroke-width:22.5;stroke-linecap:round;stroke-linejoin:round;stroke-miterlimit:10;stroke-dasharray:none;stroke-opacity:1"
           d="m 4261.2,812.801 3.7,-0.199 3.7,-0.204 3.7,-0.199 3.8,-0.097 3.7,-0.204 3.7,-0.097 3.7,-0.199 3.7,-0.102 3.8,-0.102 3.7,-0.097 3.7,-0.102 3.7,0 3.8,-0.097 3.7,-0.102 3.7,0 3.7,-0.102 7.5,0 3.7,-0.097 11.1,0 3.8,-0.102 3.7,0" /></g></g><path
       inkscape:connector-curvature="0"
       id="path26"
       style="fill:none;stroke:#000000;stroke-width:0.75;stroke-linecap:round;stroke-linejoin:round;stroke-miterlimit:10;stroke-dasharray:none;stroke-opacity:1"
       d="m 88,72 400,0" /><path
       inkscape:connector-curvature="0"
       id="path28"
       style="fill:none;stroke:#000000;stroke-width:0.75;stroke-linecap:round;stroke-linejoin:round;stroke-miterlimit:10;stroke-dasharray:none;stroke-opacity:1"
       d="m 88,72 0,-7.2" /><path
       inkscape:connector-curvature="0"
       id="path30"
       style="fill:none;stroke:#000000;stroke-width:0.75;stroke-linecap:round;stroke-linejoin:round;stroke-miterlimit:10;stroke-dasharray:none;stroke-opacity:1"
       d="m 154.67,72 0,-7.2" /><path
       inkscape:connector-curvature="0"
       id="path32"
       style="fill:none;stroke:#000000;stroke-width:0.75;stroke-linecap:round;stroke-linejoin:round;stroke-miterlimit:10;stroke-dasharray:none;stroke-opacity:1"
       d="m 221.33,72 0,-7.2" /><path
       inkscape:connector-curvature="0"
       id="path34"
       style="fill:none;stroke:#000000;stroke-width:0.75;stroke-linecap:round;stroke-linejoin:round;stroke-miterlimit:10;stroke-dasharray:none;stroke-opacity:1"
       d="m 288,72 0,-7.2" /><path
       inkscape:connector-curvature="0"
       id="path36"
       style="fill:none;stroke:#000000;stroke-width:0.75;stroke-linecap:round;stroke-linejoin:round;stroke-miterlimit:10;stroke-dasharray:none;stroke-opacity:1"
       d="m 354.67,72 0,-7.2" /><path
       inkscape:connector-curvature="0"
       id="path38"
       style="fill:none;stroke:#000000;stroke-width:0.75;stroke-linecap:round;stroke-linejoin:round;stroke-miterlimit:10;stroke-dasharray:none;stroke-opacity:1"
       d="m 421.33,72 0,-7.2" /><path
       inkscape:connector-curvature="0"
       id="path40"
       style="fill:none;stroke:#000000;stroke-width:0.75;stroke-linecap:round;stroke-linejoin:round;stroke-miterlimit:10;stroke-dasharray:none;stroke-opacity:1"
       d="m 488,72 0,-7.2" /><g
       id="g42"><text
         id="text44"
         style="font-variant:normal;font-weight:normal;font-size:22px;font-family:Helvetica;-inkscape-font-specification:Helvetica;writing-mode:lr-tb;fill:#000000;fill-opacity:1;fill-rule:nonzero;stroke:none"
         transform="matrix(1,0,0,-1,69.6523,46.0801)"><tspan
           id="tspan46"
           sodipodi:role="line"
           y="0"
           x="0 12.232 24.464001 66.670341 78.902344 91.134338 133.33012 145.56212 157.79411 200.00002 212.23203 224.46402 266.67035 278.90237 291.13437 333.33014 345.56213 357.79413 400.00003 412.23203 424.46405">200300400500600700800</tspan></text>
</g><path
       inkscape:connector-curvature="0"
       id="path48"
       style="fill:none;stroke:#000000;stroke-width:0.75;stroke-linecap:round;stroke-linejoin:round;stroke-miterlimit:10;stroke-dasharray:none;stroke-opacity:1"
       d="M 72,81.0699 72,307.73" /><path
       inkscape:connector-curvature="0"
       id="path50"
       style="fill:none;stroke:#000000;stroke-width:0.75;stroke-linecap:round;stroke-linejoin:round;stroke-miterlimit:10;stroke-dasharray:none;stroke-opacity:1"
       d="m 72,81.0699 -7.2,0" /><path
       inkscape:connector-curvature="0"
       id="path52"
       style="fill:none;stroke:#000000;stroke-width:0.75;stroke-linecap:round;stroke-linejoin:round;stroke-miterlimit:10;stroke-dasharray:none;stroke-opacity:1"
       d="m 72,118.84 -7.2,0" /><path
       inkscape:connector-curvature="0"
       id="path54"
       style="fill:none;stroke:#000000;stroke-width:0.75;stroke-linecap:round;stroke-linejoin:round;stroke-miterlimit:10;stroke-dasharray:none;stroke-opacity:1"
       d="m 72,156.62 -7.2,0" /><path
       inkscape:connector-curvature="0"
       id="path56"
       style="fill:none;stroke:#000000;stroke-width:0.75;stroke-linecap:round;stroke-linejoin:round;stroke-miterlimit:10;stroke-dasharray:none;stroke-opacity:1"
       d="m 72,194.4 -7.2,0" /><path
       inkscape:connector-curvature="0"
       id="path58"
       style="fill:none;stroke:#000000;stroke-width:0.75;stroke-linecap:round;stroke-linejoin:round;stroke-miterlimit:10;stroke-dasharray:none;stroke-opacity:1"
       d="m 72,232.18 -7.2,0" /><path
       inkscape:connector-curvature="0"
       id="path60"
       style="fill:none;stroke:#000000;stroke-width:0.75;stroke-linecap:round;stroke-linejoin:round;stroke-miterlimit:10;stroke-dasharray:none;stroke-opacity:1"
       d="m 72,269.96 -7.2,0" /><path
       inkscape:connector-curvature="0"
       id="path62"
       style="fill:none;stroke:#000000;stroke-width:0.75;stroke-linecap:round;stroke-linejoin:round;stroke-miterlimit:10;stroke-dasharray:none;stroke-opacity:1"
       d="m 72,307.73 -7.2,0" /><g
       id="g64"><text
         id="text66"
         style="font-variant:normal;font-weight:normal;font-size:22px;font-family:Helvetica;-inkscape-font-specification:Helvetica;writing-mode:lr-tb;fill:#000000;fill-opacity:1;fill-rule:nonzero;stroke:none"
         transform="matrix(0,1,1,0,54.7199,53.5488)"><tspan
           id="tspan68"
           sodipodi:role="line"
           y="0"
           x="0 12.232 18.348 30.58 42.812 75.550003 87.782005 93.898003 106.13 118.362 151.11017 163.34216 169.45816 181.69017 193.92216 226.66017 238.89217 245.00816 257.24017 269.47217">0.0000.0040.0080.012</tspan></text>
</g><path
       inkscape:connector-curvature="0"
       id="path70"
       style="fill:none;stroke:#000000;stroke-width:0.75;stroke-linecap:round;stroke-linejoin:round;stroke-miterlimit:10;stroke-dasharray:none;stroke-opacity:1"
       d="m 72,72 432,0 0,244.8 -432,0 L 72,72" /><text
       transform="scale(1,-1)"
       style="font-variant:normal;font-weight:normal;font-size:22px;font-family:Helvetica;-inkscape-font-specification:Helvetica;writing-mode:lr-tb;fill:#000000;fill-opacity:1;fill-rule:nonzero;stroke:none"
       id="text78"
       x="224.4321"
       y="-17.280001"><tspan
         x="224.4321 236.66409 248.8961 255.0121 267.24411 279.4761 290.4761 301.4761 307.5921 314.91809 333.24411 344.24411"
         y="-17.280001"
         sodipodi:role="line"
         id="tspan80">Latency (ms)</tspan></text>
<text
       transform="matrix(0,1,1,0,0,0)"
       style="font-variant:normal;font-weight:normal;font-size:22px;font-family:Helvetica;-inkscape-font-specification:Helvetica;writing-mode:lr-tb;fill:#000000;fill-opacity:1;fill-rule:nonzero;stroke:none"
       id="text82"
       x="157.72701"
       y="25.919901"><tspan
         x="157.72701 173.61099 185.843 198.075 209.075 213.959 220.075"
         y="25.919901"
         sodipodi:role="line"
         id="tspan84">Density</tspan></text>
<g
       id="g86"
       transform="scale(0.1,0.1)"><g
         clip-path="url(#clipPath90)"
         id="g88"><path
           inkscape:connector-curvature="0"
           id="path94"
           style="fill:none;stroke:#bebebe;stroke-width:0.80000001;stroke-linecap:round;stroke-linejoin:round;stroke-miterlimit:10;stroke-dasharray:none;stroke-opacity:1"
           d="m 720,810.699 4320,0" /><path
           inkscape:connector-curvature="0"
           id="path96"
           style="fill:none;stroke:#000000;stroke-width:15;stroke-linecap:round;stroke-linejoin:round;stroke-miterlimit:10;stroke-dasharray:45, 75;stroke-dashoffset:0;stroke-opacity:1"
           d="m 1497.5,720 0,2448" /><path
           inkscape:connector-curvature="0"
           id="path98"
           style="fill:none;stroke:#4682b5;stroke-width:22.5;stroke-linecap:round;stroke-linejoin:round;stroke-miterlimit:10;stroke-dasharray:none;stroke-opacity:1"
           d="m 672.398,810.801 4,0 3.903,0.097 3.898,0 3.903,0.102 4,0 3.898,0.102 3.898,0.097 3.903,0 4,0.102 3.898,0.097 3.903,0.102 3.898,0.199 4,0.102 3.898,0.199 3.903,0.199 3.898,0.199 4,0.204 3.903,0.296 3.898,0.301 3.898,0.301 4,0.301 3.903,0.398 3.898,0.403 3.903,0.5 4,0.398 3.898,0.602 3.898,0.5 3.903,0.597 4,0.699 3.898,0.704 3.903,0.699 3.898,0.801 4,0.796 3.898,0.801 3.903,0.903 3.898,1 4,1 3.903,1 3.898,1.097 3.898,1.102 3.903,1.097 4,1.204 3.898,1.199 3.903,1.301 3.898,1.296 4,1.301 3.898,1.403 3.903,1.398 3.898,1.398 4,1.403 3.903,1.5 3.898,1.5 3.898,1.5 4,1.597 3.903,1.602 3.898,1.602 3.903,1.699 4,1.699 3.898,1.699 3.898,1.801 3.903,1.801 4,1.898 3.898,1.903 3.903,1.898 3.898,2.102 4,2.097 3.898,2.102 3.903,2.301 3.898,2.296 4,2.301 3.903,2.5 3.898,2.602 3.898,2.597 4,2.704 3.903,2.898 3.898,2.898 3.903,3 4,3.204 3.898,3.199 3.898,3.398 3.903,3.403 4,3.597 3.898,3.699 3.901,3.801 3.9,3.903 4,4 3.9,4.199 3.9,4.199 3.9,4.398 4,4.403 3.9,4.597 3.9,4.704 3.9,4.796 4,4.801 3.9,5 3.9,5 3.9,5.199 4,5.204 3.9,5.199 3.9,5.398 3.9,5.401 4,5.4 3.9,5.5 3.9,5.6 3.9,5.5 4,5.6 3.9,5.6 3.9,5.7 3.9,5.6 4,5.7 3.9,5.7 3.9,5.7 3.9,5.7 4,5.7 3.9,5.7 3.9,5.8 3.9,5.8 4,5.8 3.9,5.9 3.9,5.9 3.9,6 4,6.1 3.9,6.2 3.9,6.3 3.9,6.4 4,6.6 3.9,6.7 3.9,6.9 3.9,7.2 4,7.3 3.9,7.6 3.9,7.8 3.9,8.1 4,8.5 3.9,8.7 3.9,9 3.9,9.3 4,9.7 3.9,10 3.9,10.3 3.9,10.7 4,11.1 3.9,11.4 3.9,11.7 3.9,12 4,12.3 3.9,12.6 3.9,12.9 3.9,13.2 4,13.4 3.9,13.6 3.9,13.8 3.9,14 4,14.2 3.9,14.2 3.9,14.4 3.9,14.5 4,14.5 3.9,14.5 3.9,14.5 3.9,14.6 4,14.4 3.9,14.4 3.9,14.4 3.9,14.2 4,14.1 3.9,14 3.9,13.8 3.9,13.6 4,13.5 3.9,13.4 3.9,13.1 3.9,12.9 4,12.8 3.9,12.5 3.9,12.3 3.9,12.1 4,11.9 3.9,11.7 3.9,11.5 3.9,11.3 4,11 3.9,10.9 3.9,10.7 3.9,10.5 4,10.3 3.9,10.1 3.9,10 3.9,9.9 4,9.6 3.9,9.6 3.9,9.4 3.9,9.4 4,9.2 3.9,9.2 3.9,9 3.9,9.1 4,9 3.9,9 3.9,8.9 3.9,9 4,8.9 3.9,9 3.9,9 3.9,9.1 4,9.1 3.9,9.1 3.9,9.3 3.9,9.2 4,9.3 3.9,9.4 3.9,9.4 3.9,9.5 4,9.5 3.9,9.5 3.9,9.6 3.9,9.5 4,9.6 3.9,9.5 3.9,9.5 3.9,9.4 4,9.4 3.9,9.3 3.9,9.2 3.9,9.1 4,9 3.9,8.8 3.9,8.7 3.9,8.5 3.9,8.3 4,8.1 3.9,7.9 3.9,7.7 3.9,7.4 4,7.2 3.9,7 3.9,6.6 3.9,6.4 4,6.2 3.9,5.7 3.9,5.5 3.9,5.2 4,4.8 3.9,4.5 3.9,4.1 3.9,3.8 4,3.5 3.9,3 3.9,2.6 3.9,2.2 4,1.8 3.9,1.5 3.9,1 3.9,0.6 4,0.2 3.9,-0.3 3.9,-0.7 3.9,-1.1 4,-1.5 3.9,-2 3.9,-2.3 3.9,-2.8 4,-3.1 3.9,-3.5 3.9,-3.9 3.9,-4.3 4,-4.6 3.9,-4.9 3.9,-5.2 3.9,-5.5 4,-5.8 3.9,-6 3.9,-6.2 3.9,-6.5 4,-6.6 3.9,-6.8 3.9,-7 3.9,-7.1 4,-7.2 3.9,-7.2 3.9,-7.4 3.9,-7.5 4,-7.5 3.9,-7.5 3.9,-7.6 3.9,-7.6 4,-7.6 3.9,-7.6 3.9,-7.6 3.9,-7.6 4,-7.6 3.9,-7.6 3.9,-7.6 3.9,-7.7 4,-7.6 3.9,-7.6 3.9,-7.7 3.9,-7.7 4,-7.7 3.9,-7.8 3.9,-7.8 3.9,-7.9 4,-8 3.9,-8.1 3.9,-8.1 3.9,-8.3 4,-8.4 3.9,-8.6 3.9,-8.7 3.9,-8.8 4,-9 3.9,-9.2 3.9,-9.4 3.9,-9.5 4,-9.7 3.9,-9.9 3.9,-10 3.9,-10.3 4,-10.4 3.9,-10.5 3.9,-10.7 3.9,-10.8 4,-11 3.9,-11 3.9,-11.2 3.9,-11.2 4,-11.2 3.9,-11.3 3.9,-11.2 3.9,-11.3 4,-11.2 3.9,-11.1 3.9,-11 3.9,-11 4,-10.8 3.9,-10.6 3.9,-10.5 3.9,-10.4 4,-10.1 3.9,-9.9 3.9,-9.7 3.9,-9.5 4,-9.3 3.9,-9.1 3.9,-8.9 3.9,-8.7 4,-8.5 3.9,-8.3 3.9,-8.2 3.9,-7.9 4,-7.9 3.9,-7.7 3.9,-7.6 3.9,-7.6 4,-7.4 3.9,-7.5 3.9,-7.4 3.9,-7.4 4,-7.4 3.9,-7.4 3.9,-7.5 3.9,-7.5 4,-7.6 3.9,-7.7 3.9,-7.8 3.9,-7.9 4,-8.1 3.9,-8.1 3.9,-8.3 3.9,-8.4 4,-8.5 3.9,-8.7 3.9,-8.7 3.9,-8.9 4,-9 3.9,-9.2 3.9,-9.2 3.9,-9.3 4,-9.3 3.9,-9.5 3.9,-9.5 3.9,-9.5 4,-9.6 3.9,-9.6 3.9,-9.5 3.9,-9.6 4,-9.6 3.9,-9.5 3.9,-9.4 3.9,-9.4 4,-9.3 3.9,-9.2 3.9,-9.1 3.9,-8.9 4,-8.9 3.9,-8.7 3.9,-8.5 3.9,-8.4 4,-8.2 3.9,-8 3.9,-7.9 3.9,-7.6 4,-7.5 3.9,-7.3 3.9,-7.1 3.9,-6.8 4,-6.7 3.9,-6.5 3.9,-6.2 3.9,-6.1 4,-5.9 3.9,-5.7 3.9,-5.6 3.9,-5.3 4,-5.2 3.9,-5 3.9,-4.8 3.9,-4.7 3.9,-4.6 4,-4.4 3.9,-4.3 3.9,-4.2 3.9,-4.1 4,-4 3.9,-3.9 3.9,-3.8 3.9,-3.8 4,-3.7 3.9,-3.6 3.9,-3.6 3.9,-3.5 4,-3.5 3.9,-3.4 3.9,-3.4 3.9,-3.4 4,-3.3 3.9,-3.3 3.9,-3.3 3.9,-3.2 4,-3.2 3.9,-3.2 3.9,-3.1 3.9,-3.098 4,-3.102 3.9,-3 3.9,-2.898 3.9,-2.903 4,-2.801 3.9,-2.796 3.9,-2.704 3.9,-2.597 4,-2.602 3.9,-2.5 3.9,-2.398 3.9,-2.301 4,-2.199 3.9,-2.102 3.9,-2 3.9,-2 4,-1.898 3.9,-1.801 3.9,-1.699 3.9,-1.602 4,-1.597 3.9,-1.5 3.9,-1.5 3.9,-1.403 4,-1.398 3.9,-1.301 3.9,-1.301 3.9,-1.301 4,-1.296 3.9,-1.301 3.9,-1.301 3.9,-1.301 4,-1.301 3.9,-1.398 3.9,-1.398 3.9,-1.403 4,-1.5 3.9,-1.5 3.9,-1.597 3.9,-1.704 4,-1.699 3.9,-1.699 3.9,-1.801 3.9,-1.801 4,-1.898 3.9,-2 3.9,-1.898 3.9,-2 4,-2 3.9,-2 3.9,-2 3.9,-2 4,-2 3.9,-1.903 3.9,-1.898 3.9,-1.903 4,-1.796 3.9,-1.704 3.9,-1.597 3.9,-1.602 4,-1.5 3.9,-1.301 3.9,-1.296 3.9,-1.102 4,-1.102 3.9,-0.898 3.9,-0.898 3.9,-0.704 4,-0.597 3.9,-0.602 3.9,-0.398 3.9,-0.301 4,-0.301 3.9,-0.199 3.9,-0.199 3.9,-0.102 4,0 3.9,-0.097 11.8,0 3.9,-0.102 3.9,0 3.9,-0.199 4,-0.102 3.9,-0.199 3.9,-0.301 3.9,-0.301 4,-0.398 3.9,-0.5 3.9,-0.602 3.9,-0.597 4,-0.699 3.9,-0.801 3.9,-0.801 3.9,-1 4,-0.898 3.9,-1 3.9,-1.102 3.9,-1.102 4,-1.199 3.9,-1.097 3.9,-1.204 3.9,-1.199 4,-1.199 3.9,-1.199 3.9,-1.199 3.9,-1.102 4,-1.102 3.9,-1.097 3.9,-1.102 3.9,-1 4,-0.898 3.9,-0.903 3.9,-0.898 3.9,-0.801 4,-0.699 3.9,-0.699 3.9,-0.699 3.9,-0.5 4,-0.602 3.9,-0.5 3.9,-0.398 3.9,-0.403 4,-0.398 3.9,-0.301 3.9,-0.301 3.9,-0.301 4,-0.199 3.9,-0.301 3.9,-0.199 3.9,-0.199 4,-0.199 3.9,-0.199 3.9,-0.204 3.9,-0.097 4,-0.199 3.9,-0.204 3.9,-0.097 3.9,-0.199 4,-0.204 3.9,-0.199 3.9,-0.199 3.9,-0.199 4,-0.199 3.9,-0.204 3.9,-0.199 3.9,-0.199 4,-0.301 3.9,-0.199 3.9,-0.301 3.9,-0.199 4,-0.301 3.9,-0.301 3.9,-0.199 3.9,-0.301 4,-0.296 3.9,-0.301 3.9,-0.301 3.9,-0.398 4,-0.301 3.9,-0.403 3.9,-0.296 3.9,-0.403 3.9,-0.398 4,-0.301 3.9,-0.398 3.9,-0.403 3.9,-0.5 4,-0.398 3.9,-0.403 3.9,-0.5 3.9,-0.398 4,-0.5 3.9,-0.398 3.9,-0.5 3.9,-0.403 4,-0.5 3.9,-0.398 3.9,-0.403 3.9,-0.5 4,-0.398 3.9,-0.398 3.9,-0.403 3.9,-0.398 4,-0.403 3.9,-0.296 3.9,-0.403 3.9,-0.301 4,-0.296 3.9,-0.301 3.9,-0.199 3.9,-0.301 4,-0.199 3.9,-0.204 3.9,-0.097 3.9,-0.199 4,-0.102 3.9,-0.102 3.9,-0.097 3.9,0 4,-0.102 15.7,0 3.9,0.102 3.9,0 3.9,0.097 4,0.102 3.9,0.102 3.9,0.097 3.9,0.102 4,0.097 3.9,0.102 3.9,0.199 3.9,0.102 4,0.199 3.9,0.199 3.9,0.199 3.9,0.102 4,0.199 3.9,0.199 3.9,0.301 3.9,0.199 4,0.204 3.9,0.199 3.9,0.301 3.9,0.199 4,0.301 3.9,0.199 3.9,0.301 3.9,0.199 4,0.301 3.9,0.199 3.9,0.301 3.9,0.199 4,0.301 3.9,0.199 3.9,0.199 3.9,0.199 4,0.199 3.9,0.204 3.9,0.097 3.9,0.199 4,0.102 3.9,0.102 3.9,0 3.9,0.097 7.9,0 3.9,-0.097 3.9,0 4,-0.102 3.9,-0.102 3.9,-0.199 3.9,-0.097 4,-0.204 3.9,-0.199 3.9,-0.301 3.9,-0.199 4,-0.199 3.9,-0.301 3.9,-0.301 3.9,-0.296 4,-0.301 3.9,-0.301 3.9,-0.301 3.9,-0.301 4,-0.296 3.9,-0.301 3.9,-0.301 3.9,-0.199 4,-0.301 3.9,-0.301 3.9,-0.301 3.9,-0.199 4,-0.301 3.9,-0.199 3.9,-0.199 3.9,-0.301 4,-0.199 3.9,-0.199 3.9,-0.199 3.9,-0.204 4,-0.199 3.9,-0.199 3.9,-0.199 3.9,-0.199 4,-0.204 3.9,-0.296 3.9,-0.204 3.9,-0.199 4,-0.199 3.9,-0.199 3.9,-0.199 3.9,-0.204 4,-0.199 3.9,-0.301 3.9,-0.199 3.9,-0.199 4,-0.199 3.9,-0.301 3.9,-0.199 3.9,-0.199 4,-0.204 3.9,-0.199 3.9,-0.301 3.9,-0.199 4,-0.199 3.9,-0.199 3.9,-0.199 3.9,-0.102 4,-0.199 3.9,-0.199 3.9,-0.102 3.9,-0.199 4,-0.102 3.9,-0.199 3.9,-0.102 3.9,-0.097 4,-0.102 3.9,-0.097 3.9,-0.102 3.9,-0.102 4,-0.097 3.9,-0.102 3.9,0 3.9,-0.097 4,0 3.9,-0.102 3.9,0 3.9,-0.102 15.7,0 4,-0.097 15.7,0 3.9,0.097 15.7,0 3.9,0.102 7.9,0 3.9,0.102 3.9,0 3.9,0.097 3.9,0.102 4,0 3.9,0.097 3.9,0.102 3.9,0.102 4,0.097 3.9,0.102 3.9,0.097 3.9,0.204 4,0.097 3.9,0.102 3.9,0.199 3.9,0.102 4,0.199 3.9,0.199 3.9,0.199 3.9,0.102 4,0.199 3.9,0.199 3.9,0.199 3.9,0.204 4,0.199 3.9,0.199 3.9,0.102 3.9,0.199 4,0.199 3.9,0.199 3.9,0.102 3.9,0.199 4,0.102 3.9,0.097 3.9,0.102 3.9,0.097 4,0.102 3.9,0.102 3.9,0 3.9,0.097 7.9,0 3.9,-0.097 7.9,0 3.9,-0.102 3.9,-0.102 3.9,-0.097 4,-0.102 3.9,-0.199 3.9,-0.102 3.9,-0.199 4,-0.097 3.9,-0.204 3.9,-0.199 3.9,-0.199 4,-0.102 3.9,-0.199 3.9,-0.199 3.9,-0.199 4,-0.199 3.9,-0.204 3.9,-0.199 3.9,-0.097 4,-0.204 3.9,-0.199 3.9,-0.097 3.9,-0.204 4,-0.097 3.9,-0.199 3.9,-0.102 3.9,-0.102 4,-0.097 3.9,-0.199 3.9,-0.102 3.9,0 4,-0.102 3.9,-0.097 3.9,-0.102 3.9,0 4,-0.097 3.9,-0.102 7.8,0 4,-0.102 7.8,0 3.9,-0.097 15.7,0 4,-0.102 125.6,0 3.9,0.102 19.6,0 3.9,0.097 7.9,0 3.9,0.102 3.9,0 4,0.102 3.9,0 3.9,0.097 3.9,0.102 4,0 3.9,0.097 3.9,0.102 3.9,0.102 4,0.097 3.9,0.102 3.9,0.199 3.9,0.102 4,0.097 3.9,0.199 3.9,0.102 3.9,0.199 4,0.102 3.9,0.199 3.9,0.199 3.9,0.199 4,0.102 3.9,0.199 3.9,0.199 3.9,0.204 4,0.199 3.9,0.199 3.9,0.199 3.9,0.102 4,0.199 3.9,0.199 3.9,0.102 3.9,0.199 4,0.102 3.9,0.097 3.9,0.199 3.9,0 4,0.102 3.9,0.102 3.9,0 3.9,0.097 7.9,0 3.9,-0.097 3.9,0 4,-0.102 3.9,0 3.9,-0.102 3.9,-0.097 4,-0.102 3.9,-0.199 3.9,-0.102 3.9,-0.199 4,-0.097 3.9,-0.204 3.9,-0.199 3.9,-0.199 3.9,-0.199 4,-0.102 3.9,-0.199 3.9,-0.199 3.9,-0.199 4,-0.204 3.9,-0.199 3.9,-0.199 3.9,-0.102 4,-0.199 3.9,-0.199 3.9,-0.102 3.9,-0.199 4,-0.097" /><path
           inkscape:connector-curvature="0"
           id="path100"
           style="fill:none;stroke:#4682b5;stroke-width:22.5;stroke-linecap:round;stroke-linejoin:round;stroke-miterlimit:10;stroke-dasharray:none;stroke-opacity:1"
           d="m 4593.4,812.102 3.9,-0.102 3.9,-0.102 3.9,-0.199 4,-0.097 3.9,-0.102 3.9,-0.102 3.9,0 4,-0.097 3.9,-0.102 3.9,0 3.9,-0.097 4,-0.102 7.8,0 3.9,-0.102 7.9,0 3.9,-0.097 15.7,0 3.9,-0.102 4,0" /><path
           inkscape:connector-curvature="0"
           id="path102"
           style="fill:none;stroke:#4682b5;stroke-width:15;stroke-linecap:round;stroke-linejoin:round;stroke-miterlimit:10;stroke-dasharray:45, 75;stroke-dashoffset:0;stroke-opacity:1"
           d="m 1746.2,720 0,2448" /><path
           inkscape:connector-curvature="0"
           id="path104"
           style="fill:none;stroke:#ff0000;stroke-width:22.5;stroke-linecap:round;stroke-linejoin:round;stroke-miterlimit:10;stroke-dasharray:none;stroke-opacity:1"
           d="m 491.801,810.699 12.5,0 4.199,0.102 16.699,0 4.199,0.097 12.5,0 4.204,0.102 4.199,0 4.199,0.102 4.199,0 4.102,0.097 4.199,0 4.199,0.102 4.199,0 4.204,0.097 4.097,0.102 4.199,0.102 4.204,0.097 4.199,0.102 4.199,0.097 4.102,0.102 4.199,0.102 4.199,0.199 4.199,0.097 4.199,0.204 4.102,0.097 4.199,0.199 4.199,0.204 4.204,0.199 4.199,0.199 4.097,0.199 4.204,0.199 4.199,0.204 4.199,0.296 4.199,0.204 4.102,0.296 4.199,0.204 4.199,0.296 4.199,0.301 4.204,0.301 4.097,0.301 4.199,0.301 4.204,0.296 4.199,0.301 4.199,0.301 4.199,0.398 4.102,0.301 4.199,0.301 4.199,0.398 4.199,0.403 4.204,0.301 4.097,0.398 4.199,0.398 4.204,0.301 4.199,0.403 4.199,0.398 4.102,0.398 4.199,0.403 4.199,0.398 4.199,0.5 4.199,0.403 4.102,0.398 4.199,0.5 4.199,0.5 4.204,0.5 4.199,0.398 4.097,0.602 4.204,0.5 4.199,0.5 4.199,0.602 4.199,0.597 4.102,0.602 4.199,0.597 4.199,0.704 4.199,0.699 4.204,0.699 4.097,0.801 4.199,0.801 4.204,0.796 4.199,0.903 4.199,0.898 4.102,1 4.199,1 4.199,1.102 4.199,1.199 4.199,1.199 4.102,1.199 4.199,1.403 4.199,1.398 4.204,1.5 4.199,1.5 4.097,1.699 4.204,1.704 4.199,1.796 4.199,2 4.199,2 4.102,2.102 4.199,2.199 4.199,2.403 4.199,2.5 4.204,2.597 4.097,2.699 4.199,2.801 4.204,3 4.199,3.102 4.199,3.301 4.102,3.398 4.199,3.5 4.199,3.699 4.199,3.801 4.199,4 4.204,4.102 4.097,4.398 4.199,4.398 4.204,4.602 4.198,4.801 4.2,4.898 4.1,5 4.2,5.199 4.2,5.403 4.2,5.5 4.2,5.699 4.1,5.801 4.2,5.898 4.2,6.102 4.2,6.199 4.2,6.398 4.1,6.5 4.2,6.602 4.2,6.8 4.2,6.9 4.2,7 4.1,7.1 4.2,7.3 4.2,7.4 4.2,7.5 4.2,7.6 4.1,7.7 4.2,7.8 4.2,7.9 4.2,8 4.2,8.1 4.1,8.2 4.2,8.3 4.2,8.4 4.2,8.4 4.2,8.5 4.1,8.6 4.2,8.7 4.2,8.7 4.2,8.8 4.2,8.8 4.1,8.9 4.2,8.9 4.2,8.9 4.2,8.9 4.2,9 4.1,8.9 4.2,9 4.2,9 4.2,8.9 4.2,8.9 4.1,8.9 4.2,8.9 4.2,8.8 4.2,8.8 4.2,8.7 4.1,8.7 4.2,8.6 4.2,8.6 4.2,8.5 4.2,8.4 4.1,8.5 4.2,8.3 4.2,8.4 4.2,8.2 4.2,8.3 4.2,8.2 4.1,8.2 4.2,8.3 4.2,8.2 4.2,8.2 4.2,8.3 4.1,8.3 4.2,8.4 4.2,8.5 4.2,8.5 4.2,8.6 4.1,8.8 4.2,8.9 4.2,9 4.2,9.2 4.2,9.4 4.1,9.6 4.2,9.8 4.2,10 4.2,10.2 4.2,10.4 4.1,10.7 4.2,10.9 4.2,11.2 4.2,11.4 4.2,11.7 4.1,11.9 4.2,12.2 4.2,12.4 4.2,12.6 4.2,12.9 4.1,13.1 4.2,13.3 4.2,13.4 4.2,13.6 4.2,13.8 4.1,13.9 4.2,14 4.2,14 4.2,14.1 4.2,14.2 4.1,14.1 4.2,14 4.2,14 4.2,13.9 4.2,13.7 4.1,13.6 4.2,13.3 4.2,13.2 4.2,12.8 4.2,12.6 4.1,12.2 4.2,11.8 4.2,11.5 4.2,11 4.2,10.6 4.1,10.2 4.2,9.6 4.2,9.2 4.2,8.6 4.2,8.1 4.1,7.5 4.2,7 4.2,6.5 4.2,6 4.2,5.4 4.2,4.8 4.1,4.2 4.2,3.8 4.2,3.2 4.2,2.7 4.2,2.3 4.1,1.8 4.2,1.4 4.2,0.8 4.2,0.5 4.2,0.2 4.1,-0.3 4.2,-0.5 4.2,-0.8 4.2,-1.1 4.2,-1.4 4.1,-1.6 4.2,-1.9 4.2,-1.9 4.2,-2.2 4.2,-2.2 4.1,-2.4 4.2,-2.4 4.2,-2.6 4.2,-2.6 4.2,-2.6 4.1,-2.7 4.2,-2.7 4.2,-2.8 4.2,-2.7 4.2,-2.7 4.1,-2.8 4.2,-2.7 4.2,-2.8 4.2,-2.8 4.2,-2.8 4.1,-2.7 4.2,-2.9 4.2,-2.8 4.2,-2.9 4.2,-3 4.1,-3 4.2,-3 4.2,-3.2 4.2,-3.2 4.2,-3.3 4.1,-3.4 4.2,-3.6 4.2,-3.6 4.2,-3.8 4.2,-3.9 4.1,-4 4.2,-4.2 4.2,-4.3 4.2,-4.4 4.2,-4.6 4.1,-4.7 4.2,-4.9 4.2,-5 4.2,-5.1 4.2,-5.2 4.1,-5.3 4.2,-5.5 4.2,-5.5 4.2,-5.6 4.2,-5.7 4.2,-5.8 4.1,-5.8 4.2,-5.9 4.2,-5.9 4.2,-5.9 4.2,-6 4.1,-5.9 4.2,-6 4.2,-6 4.2,-5.9 4.2,-6 4.1,-5.9 4.2,-5.9 4.2,-5.9 4.2,-5.9 4.2,-5.8 4.1,-5.8 4.2,-5.9 4.2,-5.8 4.2,-5.7 4.2,-5.8 4.1,-5.8 4.2,-5.8 4.2,-5.8 4.2,-5.8 4.2,-5.8 4.1,-5.9 4.2,-5.9 4.2,-5.9 4.2,-6 4.2,-6 4.1,-6.2 4.2,-6.1 4.2,-6.3 4.2,-6.3 4.2,-6.4 4.1,-6.5 4.2,-6.5 4.2,-6.7 4.2,-6.7 4.2,-6.8 4.1,-6.9 4.2,-7 4.2,-7.1 4.2,-7.2 4.2,-7.2 4.1,-7.3 4.2,-7.4 4.2,-7.4 4.2,-7.5 4.2,-7.6 4.1,-7.6 4.2,-7.7 4.2,-7.8 4.2,-7.7 4.2,-7.9 4.1,-7.8 4.2,-7.9 4.2,-7.9 4.2,-7.9 4.2,-7.9 4.1,-7.9 4.2,-8 4.2,-7.9 4.2,-7.9 4.2,-7.9 4.2,-7.9 4.1,-7.8 4.2,-7.9 4.2,-7.7 4.2,-7.8 4.2,-7.7 4.1,-7.6 4.2,-7.5 4.2,-7.5 4.2,-7.4 4.2,-7.3 4.1,-7.2 4.2,-7.2 4.2,-7 4.2,-6.9 4.2,-6.8 4.1,-6.6 4.2,-6.5 4.2,-6.4 4.2,-6.3 4.2,-6.1 4.1,-5.9 4.2,-5.8 4.2,-5.6 4.2,-5.5 4.2,-5.3 4.1,-5.2 4.2,-5 4.2,-4.8 4.2,-4.6 4.2,-4.5 4.1,-4.4 4.2,-4.2 4.2,-4.1 4.2,-3.9 4.2,-3.8 4.1,-3.7 4.2,-3.6 4.2,-3.4 4.2,-3.4 4.2,-3.4 4.1,-3.2 4.2,-3.2 4.2,-3.2 4.2,-3.2 4.2,-3.1 4.1,-3.2 4.2,-3.1 4.2,-3.2 4.2,-3.2 4.2,-3.3 4.1,-3.4 4.2,-3.4 4.2,-3.5 4.2,-3.5 4.2,-3.7 4.1,-3.8 4.2,-3.8 4.2,-4 4.2,-4.1 4.2,-4.1 4.1,-4.3 4.2,-4.3 4.2,-4.5 4.2,-4.5 4.2,-4.6 4.2,-4.7 4.1,-4.7 4.2,-4.8 4.2,-4.8 4.2,-4.9 4.2,-4.9 4.1,-4.8 4.2,-4.9 4.2,-4.9 4.2,-4.8 4.2,-4.8 4.1,-4.7 4.2,-4.7 4.2,-4.6 4.2,-4.5 4.2,-4.5 4.1,-4.3 4.2,-4.3 4.2,-4.1 4.2,-4 4.2,-3.9 4.1,-3.8 4.2,-3.7 4.2,-3.5 4.2,-3.4 4.2,-3.3 4.1,-3.2 4.2,-3.1 4.2,-3 4.2,-2.8 4.2,-2.8 4.1,-2.7 4.2,-2.6 4.2,-2.5 4.2,-2.4 4.2,-2.4 4.1,-2.3 4.2,-2.3 4.2,-2.2 4.2,-2.2 4.2,-2.1 4.1,-2.2 4.2,-2.1 4.2,-2.1 4.2,-2.1 4.2,-2.1 4.1,-2.1 4.2,-2.1 4.2,-2.2 4.2,-2.1 4.2,-2.2 4.1,-2.1 4.2,-2.2 4.2,-2.3 4.2,-2.2 4.2,-2.2 4.1,-2.3 4.2,-2.3 4.2,-2.2 4.2,-2.298 4.2,-2.301 4.1,-2.301 4.2,-2.301 4.2,-2.301 4.2,-2.296 4.2,-2.204 4.2,-2.296 4.1,-2.204 4.2,-2.199 4.2,-2.097 4.2,-2.204 4.2,-2.097 4.1,-2 4.2,-2.102 4.2,-1.898 4.2,-2 4.2,-1.903 4.1,-1.898 4.2,-1.801 4.2,-1.801 4.2,-1.699 4.2,-1.699 4.1,-1.699 4.2,-1.602 4.2,-1.597 4.2,-1.602 4.2,-1.602 4.1,-1.5 4.2,-1.5 4.2,-1.5 4.2,-1.398 4.2,-1.398 4.1,-1.5 4.2,-1.403 4.2,-1.398 4.2,-1.301 4.2,-1.398 4.1,-1.301 4.2,-1.403 4.2,-1.296 4.2,-1.301 4.2,-1.301 4.1,-1.301 4.2,-1.301 4.2,-1.199 4.2,-1.199 4.2,-1.199 4.1,-1.199 4.2,-1.102 4.2,-1.102 4.2,-1.097 4.2,-1.102 4.1,-1 4.2,-0.898 4.2,-1 4.2,-0.801 4.2,-0.898 4.1,-0.801 4.2,-0.699 4.2,-0.704 4.2,-0.699 4.2,-0.597 4.1,-0.602 4.2,-0.602 4.2,-0.5 4.2,-0.398 4.2,-0.5 4.1,-0.398 4.2,-0.403 4.2,-0.398 4.2,-0.301 4.2,-0.398 4.2,-0.301 4.1,-0.301 4.2,-0.398 4.2,-0.301 4.2,-0.301 4.2,-0.398 4.1,-0.403 4.2,-0.301 4.2,-0.398 4.2,-0.5 4.2,-0.398 4.1,-0.5 4.2,-0.403 4.2,-0.597 4.2,-0.5 4.2,-0.5 4.1,-0.602 4.2,-0.602 4.2,-0.699 4.2,-0.597 4.2,-0.602 4.1,-0.699 4.2,-0.699 4.2,-0.704 4.2,-0.699 4.2,-0.699 4.1,-0.699 4.2,-0.699 4.2,-0.704 4.2,-0.597 4.2,-0.699 4.1,-0.704 4.2,-0.597 4.2,-0.602 4.2,-0.597 4.2,-0.602 4.1,-0.602 4.2,-0.5 4.2,-0.5 4.2,-0.5 4.2,-0.5 4.1,-0.5 4.2,-0.398 4.2,-0.398 4.2,-0.403 4.2,-0.398 4.1,-0.403 4.2,-0.398 4.2,-0.398 4.2,-0.301 4.2,-0.403 4.1,-0.398 4.2,-0.301 4.2,-0.398 4.2,-0.403 4.2,-0.398 4.1,-0.398 4.2,-0.403 4.2,-0.398 4.2,-0.5 4.2,-0.403 4.1,-0.5 4.2,-0.5 4.2,-0.5 4.2,-0.5 4.2,-0.5 4.2,-0.597 4.1,-0.5 4.2,-0.602 4.2,-0.5 4.2,-0.597 4.2,-0.602 4.1,-0.602 4.2,-0.5 4.2,-0.597 4.2,-0.602 4.2,-0.597 4.1,-0.5 4.2,-0.602 4.2,-0.602 4.2,-0.5 4.2,-0.5 4.1,-0.597 4.2,-0.5 4.2,-0.5 4.2,-0.5 4.2,-0.5 4.1,-0.403 4.2,-0.5 4.2,-0.5 4.2,-0.398 4.2,-0.5 4.1,-0.398 4.2,-0.5 4.2,-0.403 4.2,-0.5 4.2,-0.398 4.1,-0.5 4.2,-0.403 4.2,-0.5 4.2,-0.398 4.2,-0.5 4.1,-0.5 4.2,-0.398 4.2,-0.5 4.2,-0.5 4.2,-0.5 4.1,-0.5 4.2,-0.5 4.2,-0.5 4.2,-0.5 4.2,-0.5 4.1,-0.5 4.2,-0.5 4.2,-0.602 4.2,-0.5 4.2,-0.5 4.1,-0.398 4.2,-0.5 4.2,-0.5 4.2,-0.403 4.2,-0.5 4.1,-0.398 4.2,-0.403 4.2,-0.398 4.2,-0.398 4.2,-0.301 4.1,-0.403 4.2,-0.296 4.2,-0.301 4.2,-0.301 4.2,-0.199 4.2,-0.199 4.1,-0.301 4.2,-0.199 4.2,-0.102 4.2,-0.199 4.2,-0.199 4.1,-0.102 4.2,-0.102 4.2,-0.097 4.2,-0.102 4.2,-0.097 4.1,-0.102 4.2,-0.102 4.2,-0.097 4.2,-0.102 4.2,-0.097 4.1,-0.102 4.2,0 4.2,-0.102 4.2,-0.097 4.2,-0.102 4.1,-0.097 4.2,-0.102 4.2,-0.199 4.2,-0.102 4.2,-0.097 4.1,-0.102 4.2,-0.199 4.2,-0.102 4.2,-0.199 4.2,-0.102 4.1,-0.199 4.2,-0.199 4.2,-0.102 4.2,-0.199 4.2,-0.199 4.1,-0.199 4.2,-0.199 4.2,-0.204 4.2,-0.097 4.2,-0.199 4.1,-0.204 4.2,-0.199 4.2,-0.199 4.2,-0.102 4.2,-0.199 4.1,-0.199 4.2,-0.199 4.2,-0.102 4.2,-0.199 4.2,-0.199 4.1,-0.102 4.2,-0.199 4.2,-0.102 4.2,-0.199 4.2,-0.097 4.1,-0.102 4.2,-0.199 4.2,-0.102 4.2,-0.097 4.2,-0.204 4.1,-0.097 4.2,-0.102 4.2,-0.097 4.2,-0.102 4.2,-0.102 4.2,-0.097 4.1,-0.102 4.2,-0.097 4.2,-0.102 4.2,-0.102 4.2,-0.097 4.1,-0.102 4.2,0 4.2,-0.097 4.2,-0.102 4.2,0 4.1,-0.102 8.4,0 4.2,-0.097 33.4,0 4.2,0.097 8.4,0 4.1,0.102 4.2,0 4.2,0.102 4.2,0 4.2,0.097 4.1,0.102 4.2,0 4.2,0.097 4.2,0 4.2,0.102 4.1,0 4.2,0.102 4.2,0 4.2,0.097 4.2,0 4.1,0.102 25.1,0 4.2,-0.102 4.2,0 4.2,-0.097 4.1,-0.102 4.2,0 4.2,-0.102 4.2,-0.097 4.2,-0.199 4.1,-0.102 4.2,-0.199 4.2,-0.102 4.2,-0.199 4.2,-0.199 4.1,-0.199 4.2,-0.301 4.2,-0.199 4.2,-0.204 4.2,-0.296 4.2,-0.301 4.1,-0.301 4.2,-0.301 4.2,-0.301 4.2,-0.296 4.2,-0.301 4.1,-0.301 4.2,-0.398 4.2,-0.301 4.2,-0.301 4.2,-0.398 4.1,-0.301 4.2,-0.403 4.2,-0.296 4.2,-0.403 4.2,-0.301 4.1,-0.398 4.2,-0.301 4.2,-0.301 4.2,-0.398 4.2,-0.301 4.1,-0.301 4.2,-0.296 4.2,-0.301 4.2,-0.301 4.2,-0.301 4.1,-0.301 4.2,-0.199 4.2,-0.301 4.2,-0.199 4.2,-0.301 4.1,-0.199 4.2,-0.199 4.2,-0.199 4.2,-0.199 4.2,-0.204 4.1,-0.199 4.2,-0.097 4.2,-0.204 4.2,-0.097 4.2,-0.199 4.1,-0.102 4.2,-0.102 4.2,-0.097 4.2,-0.102 4.2,-0.097 4.1,-0.102 4.2,-0.102 4.2,-0.097 4.2,0 4.2,-0.102 4.1,0 4.2,-0.097 4.2,0 4.2,-0.102 8.3,0 4.2,-0.102 46,0 4.2,0.102 12.5,0 4.2,0.102 4.2,0 4.2,0.097 4.2,0 4.1,0.102 4.2,0 4.2,0.097 4.2,0 4.2,0.102 4.1,0.102 4.2,0.097 4.2,0.102 4.2,0.097 4.2,0.102 4.1,0.102 4.2,0.097 4.2,0.102 4.2,0.097 4.2,0.102 4.1,0.102 4.2,0.097 4.2,0.199 4.2,0.102 4.2,0.102 4.1,0.199 4.2,0.097 4.2,0.102 4.2,0.199 4.2,0.102 4.1,0.097 4.2,0.102 4.2,0.199 4.2,0.102 4.2,0.097 4.1,0.102 4.2,0.102 4.2,0.097 4.2,0.102 4.2,0 4.1,0.097 4.2,0.102 4.2,0 4.2,0.102 25.1,0 4.1,-0.102 4.2,0 4.2,-0.102 4.2,-0.097 4.2,0 4.1,-0.102 4.2,-0.097 4.2,-0.102 4.2,-0.102 4.2,-0.097 4.2,-0.102 4.1,-0.097 4.2,-0.204 4.2,-0.097 4.2,-0.102 4.2,-0.199 4.1,-0.102 4.2,-0.097 4.2,-0.199 4.2,-0.102 4.2,-0.102 4.1,-0.097 4.2,-0.199 4.2,-0.102 4.2,-0.102 4.2,-0.097 4.1,-0.102 4.2,-0.097 4.2,-0.102 4.2,-0.102 4.2,-0.097 4.1,-0.102 4.2,-0.097 4.2,-0.102" /><path
           inkscape:connector-curvature="0"
           id="path106"
           style="fill:none;stroke:#ff0000;stroke-width:22.5;stroke-linecap:round;stroke-linejoin:round;stroke-miterlimit:10;stroke-dasharray:none;stroke-opacity:1"
           d="m 4667.9,811.5 4.2,-0.102 4.2,0 4.1,-0.097 4.2,0 4.2,-0.102 4.2,-0.097 8.3,0 4.2,-0.102 4.2,0 4.2,-0.102 12.5,0 4.2,-0.097 20.9,0 4.2,-0.102 12.5,0" /><path
           inkscape:connector-curvature="0"
           id="path108"
           style="fill:none;stroke:#ff0000;stroke-width:15;stroke-linecap:round;stroke-linejoin:round;stroke-miterlimit:10;stroke-dasharray:45, 75;stroke-dashoffset:0;stroke-opacity:1"
           d="m 1823.8,720 0,2448" /><path
           inkscape:connector-curvature="0"
           id="path110"
           style="fill:#ffffff;fill-opacity:1;fill-rule:nonzero;stroke:none"
           d="m 1980,2270.9 2974.4,0 0,806.402 -2974.4,0 0,-806.402 z" /><path
           inkscape:connector-curvature="0"
           id="path112"
           style="fill:none;stroke:#000000;stroke-width:7.5;stroke-linecap:round;stroke-linejoin:round;stroke-miterlimit:10;stroke-dasharray:none;stroke-opacity:1"
           d="m 1980,2270.9 2974.4,0 0,806.402 -2974.4,0 0,-806.402 z" /><path
           inkscape:connector-curvature="0"
           id="path114"
           style="fill:none;stroke:#000000;stroke-width:22.5;stroke-linecap:round;stroke-linejoin:round;stroke-miterlimit:10;stroke-dasharray:none;stroke-opacity:1"
           d="m 2131.2,2875.7 302.4,0" /><path
           inkscape:connector-curvature="0"
           id="path116"
           style="fill:none;stroke:#4682b5;stroke-width:22.5;stroke-linecap:round;stroke-linejoin:round;stroke-miterlimit:10;stroke-dasharray:none;stroke-opacity:1"
           d="m 2131.2,2674.1 302.4,0" /><path
           inkscape:connector-curvature="0"
           id="path118"
           style="fill:none;stroke:#ff0000;stroke-width:22.5;stroke-linecap:round;stroke-linejoin:round;stroke-miterlimit:10;stroke-dasharray:none;stroke-opacity:1"
           d="m 2131.2,2472.5 302.4,0" /><g
           transform="scale(10,10)"
           id="g120"><text
             id="text122"
             style="font-variant:normal;font-weight:normal;font-size:17px;font-family:Helvetica;-inkscape-font-specification:Helvetica;writing-mode:lr-tb;fill:#000000;fill-opacity:1;fill-rule:nonzero;stroke:none"
             transform="matrix(1,0,0,-1,258.48,281.47)"><tspan
               id="tspan124"
               sodipodi:role="line"
               y="0"
               x="0 12.274 21.726 26.452 35.903999 39.678001 48.178001 52.903999 58.394932 67.846931 76.346931 81.072929 90.524933 96.185928 100.91193 106.57293 120.73393 130.18593 139.63794 149.08994 153.81593 163.26793 172.71992 182.17194 186.89793 196.34993 201.07593 215.23694 223.73694">No distractor (mean 292.6 ms)</tspan><tspan
               id="tspan126"
               sodipodi:role="line"
               y="20.1598"
               x="0 11.339 19.839001 29.291 37.791 47.243 52.903999 62.355999 71.807999 81.260002 90.711998 99.211998 103.938 109.599 119.051 128.50301 137.955 142.681 152.133 156.85899 171.02 179.52">Synchronous (329.9 ms)</tspan><tspan
               id="tspan128"
               sodipodi:role="line"
               y="40.319599"
               x="0 11.339 19.839001 28.339001 37.791 46.291 55.743 61.403999 70.856003 80.307999 89.760002 99.211998 107.712 112.438 118.099 127.551 137.00301 146.455 151.181 160.633 165.35899 179.52 188.02">Asynchronous (341.6 ms)</tspan></text>
</g></g></g></g></svg>