<?xml version="1.0" encoding="UTF-8" standalone="no"?>
<!-- Created with Inkscape (http://www.inkscape.org/) -->

<svg
   xmlns:dc="http://purl.org/dc/elements/1.1/"
   xmlns:cc="http://creativecommons.org/ns#"
   xmlns:rdf="http://www.w3.org/1999/02/22-rdf-syntax-ns#"
   xmlns:svg="http://www.w3.org/2000/svg"
   xmlns="http://www.w3.org/2000/svg"
   xmlns:sodipodi="http://sodipodi.sourceforge.net/DTD/sodipodi-0.dtd"
   xmlns:inkscape="http://www.inkscape.org/namespaces/inkscape"
   id="svg42629"
   version="1.1"
   inkscape:version="0.91 r13725"
   width="720"
   height="450"
   xml:space="preserve"
   sodipodi:docname="meanmad.svg"
   inkscape:export-filename="/home/seb/models/linetask2014/paper/figures/meanmad.png"
   inkscape:export-xdpi="300"
   inkscape:export-ydpi="300"><metadata
     id="metadata42635"><rdf:RDF><cc:Work
         rdf:about=""><dc:format>image/svg+xml</dc:format><dc:type
           rdf:resource="http://purl.org/dc/dcmitype/StillImage" /><dc:title /></cc:Work></rdf:RDF></metadata><defs
     id="defs42633"><clipPath
       clipPathUnits="userSpaceOnUse"
       id="clipPath42645"><path
         d="m 720,720 4320,0 0,2448 -4320,0 0,-2448 z"
         id="path42647" /></clipPath><clipPath
       clipPathUnits="userSpaceOnUse"
       id="clipPath42715"><path
         d="m 720,720 4320,0 0,2448 -4320,0 0,-2448 z"
         id="path42717" /></clipPath></defs><sodipodi:namedview
     pagecolor="#ffffff"
     bordercolor="#666666"
     borderopacity="1"
     objecttolerance="10"
     gridtolerance="10"
     guidetolerance="10"
     inkscape:pageopacity="0"
     inkscape:pageshadow="2"
     inkscape:window-width="1600"
     inkscape:window-height="828"
     id="namedview42631"
     showgrid="false"
     inkscape:zoom="0.92777778"
     inkscape:cx="143.28684"
     inkscape:cy="240.9164"
     inkscape:window-x="0"
     inkscape:window-y="25"
     inkscape:window-maximized="1"
     inkscape:current-layer="g42637" /><g
     id="g42637"
     inkscape:groupmode="layer"
     inkscape:label="ink_ext_XXXXXX"
     transform="matrix(1.25,0,0,-1.25,0,450)"><g
       id="g42641"
       transform="scale(0.1,0.1)"><g
         clip-path="url(#clipPath42645)"
         id="g42643"><path
           inkscape:connector-curvature="0"
           id="path42649"
           style="fill:#000000;fill-opacity:1;fill-rule:nonzero;stroke:none"
           d="m 934,887.898 c 0,29.821 -24.18,54 -54,54 -29.82,0 -54,-24.179 -54,-54 0,-29.82 24.18,-54 54,-54 29.82,0 54,24.18 54,54" /><path
           inkscape:connector-curvature="0"
           id="path42651"
           style="fill:none;stroke:#000000;stroke-width:7.5;stroke-linecap:round;stroke-linejoin:round;stroke-miterlimit:10;stroke-opacity:1;stroke-dasharray:none"
           d="m 934,887.898 c 0,29.821 -24.18,54 -54,54 -29.82,0 -54,-24.179 -54,-54 0,-29.82 24.18,-54 54,-54 29.82,0 54,24.18 54,54" /><path
           inkscape:connector-curvature="0"
           id="path42653"
           style="fill:#000000;fill-opacity:1;fill-rule:nonzero;stroke:none"
           d="m 2934,2585.8 c 0,29.82 -24.18,54 -54,54 -29.82,0 -54,-24.18 -54,-54 0,-29.82 24.18,-54 54,-54 29.82,0 54,24.18 54,54" /><path
           inkscape:connector-curvature="0"
           id="path42655"
           style="fill:none;stroke:#000000;stroke-width:7.5;stroke-linecap:round;stroke-linejoin:round;stroke-miterlimit:10;stroke-opacity:1;stroke-dasharray:none"
           d="m 2934,2585.8 c 0,29.82 -24.18,54 -54,54 -29.82,0 -54,-24.18 -54,-54 0,-29.82 24.18,-54 54,-54 29.82,0 54,24.18 54,54" /><path
           inkscape:connector-curvature="0"
           id="path42657"
           style="fill:#000000;fill-opacity:1;fill-rule:nonzero;stroke:none"
           d="m 4934,2956.3 c 0,29.82 -24.18,54 -54,54 -29.82,0 -54,-24.18 -54,-54 0,-29.82 24.18,-54 54,-54 29.82,0 54,24.18 54,54" /><path
           inkscape:connector-curvature="0"
           id="path42659"
           style="fill:none;stroke:#000000;stroke-width:7.5;stroke-linecap:round;stroke-linejoin:round;stroke-miterlimit:10;stroke-opacity:1;stroke-dasharray:none"
           d="m 4934,2956.3 c 0,29.82 -24.18,54 -54,54 -29.82,0 -54,-24.18 -54,-54 0,-29.82 24.18,-54 54,-54 29.82,0 54,24.18 54,54" /></g></g><path
       inkscape:connector-curvature="0"
       id="path42661"
       style="fill:none;stroke:#000000;stroke-width:0.75;stroke-linecap:round;stroke-linejoin:round;stroke-miterlimit:10;stroke-opacity:1;stroke-dasharray:none"
       d="m 72,108.97 0,207.61" /><path
       inkscape:connector-curvature="0"
       id="path42663"
       style="fill:none;stroke:#000000;stroke-width:0.75;stroke-linecap:round;stroke-linejoin:round;stroke-miterlimit:10;stroke-opacity:1;stroke-dasharray:none"
       d="m 72,108.97 -7.2,0" /><path
       inkscape:connector-curvature="0"
       id="path42665"
       style="fill:none;stroke:#000000;stroke-width:0.75;stroke-linecap:round;stroke-linejoin:round;stroke-miterlimit:10;stroke-opacity:1;stroke-dasharray:none"
       d="m 72,150.49 -7.2,0" /><path
       inkscape:connector-curvature="0"
       id="path42667"
       style="fill:none;stroke:#000000;stroke-width:0.75;stroke-linecap:round;stroke-linejoin:round;stroke-miterlimit:10;stroke-opacity:1;stroke-dasharray:none"
       d="m 72,192.01 -7.2,0" /><path
       inkscape:connector-curvature="0"
       id="path42669"
       style="fill:none;stroke:#000000;stroke-width:0.75;stroke-linecap:round;stroke-linejoin:round;stroke-miterlimit:10;stroke-opacity:1;stroke-dasharray:none"
       d="m 72,233.53 -7.2,0" /><path
       inkscape:connector-curvature="0"
       id="path42671"
       style="fill:none;stroke:#000000;stroke-width:0.75;stroke-linecap:round;stroke-linejoin:round;stroke-miterlimit:10;stroke-opacity:1;stroke-dasharray:none"
       d="m 72,275.05 -7.2,0" /><path
       inkscape:connector-curvature="0"
       id="path42673"
       style="fill:none;stroke:#000000;stroke-width:0.75;stroke-linecap:round;stroke-linejoin:round;stroke-miterlimit:10;stroke-opacity:1;stroke-dasharray:none"
       d="m 72,316.58 -7.2,0" /><g
       id="g42675"><text
         id="text42677"
         transform="matrix(0,1,1,0,54.7199,90.6227)"><tspan
           id="tspan42679"
           sodipodi:role="line"
           y="0"
           x="0 12.232 24.464001 83.039879 95.271881 107.50388 166.07976 178.31177 190.54376"
           style="font-size:22px;font-variant:normal;font-weight:normal;writing-mode:lr-tb;fill:#000000;fill-opacity:1;fill-rule:nonzero;stroke:none;font-family:Arial;-inkscape-font-specification:Arial">300320340</tspan></text>
</g><path
       inkscape:connector-curvature="0"
       id="path42681"
       style="fill:none;stroke:#000000;stroke-width:0.75;stroke-linecap:round;stroke-linejoin:round;stroke-miterlimit:10;stroke-opacity:1;stroke-dasharray:none"
       d="m 72,72 432,0 0,244.8 -432,0 L 72,72" /><text
       transform="scale(1,-1)"
       id="text42685"
       x="81.980103"
       y="-330.5"><tspan
         style="font-size:22px;font-variant:normal;font-weight:bold;writing-mode:lr-tb;fill:#000000;fill-opacity:1;fill-rule:nonzero;stroke:none;font-family:Arial;-inkscape-font-specification:Arial"
         x="81.980103 100.3061 112.5381 124.7701 138.2121 144.32809 150.44409 162.6761 170.00211 182.2341 195.6761 207.9081 214.02411 226.2561 238.4881 244.6041 261.72009 267.83609 275.16211 288.6041 294.72009 306.95209 319.18408 338.7421 344.85809 357.09009 370.5321 383.97409 391.08011 397.19611 403.3121 409.4281 422.87012 430.19611 442.4281 451.20627 462.99847 475.23047 481.34647"
         y="-330.5"
         sodipodi:role="line"
         id="tspan42687">Mean latencies with 95% conf. intervals</tspan></text>
<text
       transform="scale(1,-1)"
       id="text42689"
       x="241.53709"
       y="-10.08"><tspan
         style="font-size:22px;font-variant:normal;font-weight:normal;writing-mode:lr-tb;fill:#000000;fill-opacity:1;fill-rule:nonzero;stroke:none;font-family:Arial;-inkscape-font-specification:Arial"
         x="241.53709 257.42111 269.65311 281.8851 294.1171 299.0011 305.1171 310.0011 322.23309"
         y="-10.08"
         sodipodi:role="line"
         id="tspan42691">Condition</tspan></text>
<text
       transform="matrix(0,1,1,0,0,0)"
       id="text42693"
       x="43.410198"
       y="18.7199"><tspan
         style="font-size:22px;font-variant:normal;font-weight:normal;writing-mode:lr-tb;fill:#000000;fill-opacity:1;fill-rule:nonzero;stroke:none;font-family:Arial;-inkscape-font-specification:Arial"
         x="43.410198 55.6422 67.874199 73.990196 86.222198 98.454201 109.4542 120.4542 126.57021 132.6862 144.9182 151.03419 157.15019 162.03419 169.3602 180.3602 186.4762 192.59221 210.9182 222.82037 233.27037 245.50237 263.82837 276.06036 288.29236 294.40836 300.52435 307.85034 326.17636 337.17636"
         y="18.7199"
         sodipodi:role="line"
         id="tspan42695">Latency to first movement (ms)</tspan></text>
<path
       inkscape:connector-curvature="0"
       id="path42697"
       style="fill:none;stroke:#000000;stroke-width:0.75;stroke-linecap:round;stroke-linejoin:round;stroke-miterlimit:10;stroke-opacity:1;stroke-dasharray:none"
       d="m 88,72 400,0" /><path
       inkscape:connector-curvature="0"
       id="path42699"
       style="fill:none;stroke:#000000;stroke-width:0.75;stroke-linecap:round;stroke-linejoin:round;stroke-miterlimit:10;stroke-opacity:1;stroke-dasharray:none"
       d="m 88,72 0,-4.9" /><path
       inkscape:connector-curvature="0"
       id="path42701"
       style="fill:none;stroke:#000000;stroke-width:0.75;stroke-linecap:round;stroke-linejoin:round;stroke-miterlimit:10;stroke-opacity:1;stroke-dasharray:none"
       d="m 288,72 0,-4.9" /><path
       inkscape:connector-curvature="0"
       id="path42703"
       style="fill:none;stroke:#000000;stroke-width:0.75;stroke-linecap:round;stroke-linejoin:round;stroke-miterlimit:10;stroke-opacity:1;stroke-dasharray:none"
       d="m 488,72 0,-4.9" /><g
       id="g42705"><text
         id="text42707"
         transform="matrix(1,0,0,-1,72.116,46.0801)"><tspan
           id="tspan42709"
           sodipodi:role="line"
           y="0"
           x="0 15.884 200.60503 215.27902 400.60504 415.27905"
           style="font-size:22px;font-variant:normal;font-weight:normal;writing-mode:lr-tb;fill:#000000;fill-opacity:1;fill-rule:nonzero;stroke:none;font-family:Arial;-inkscape-font-specification:Arial">NDSDAD</tspan></text>
</g><g
       id="g42711"
       transform="scale(0.1,0.1)"><g
         clip-path="url(#clipPath42715)"
         id="g42713"><path
           inkscape:connector-curvature="0"
           id="path42719"
           style="fill:none;stroke:#000000;stroke-width:22.5;stroke-linecap:round;stroke-linejoin:round;stroke-miterlimit:10;stroke-opacity:1;stroke-dasharray:none"
           d="m 880,810.699 0,154.5" /><path
           inkscape:connector-curvature="0"
           id="path42721"
           style="fill:none;stroke:#000000;stroke-width:22.5;stroke-linecap:round;stroke-linejoin:round;stroke-miterlimit:10;stroke-opacity:1;stroke-dasharray:none"
           d="m 808,810.699 144,0" /><path
           inkscape:connector-curvature="0"
           id="path42723"
           style="fill:none;stroke:#000000;stroke-width:22.5;stroke-linecap:round;stroke-linejoin:round;stroke-miterlimit:10;stroke-opacity:1;stroke-dasharray:none"
           d="m 952,965.199 -144,0" /><path
           inkscape:connector-curvature="0"
           id="path42725"
           style="fill:none;stroke:#000000;stroke-width:22.5;stroke-linecap:round;stroke-linejoin:round;stroke-miterlimit:10;stroke-opacity:1;stroke-dasharray:none"
           d="m 2880,2498.8 0,173.9" /><path
           inkscape:connector-curvature="0"
           id="path42727"
           style="fill:none;stroke:#000000;stroke-width:22.5;stroke-linecap:round;stroke-linejoin:round;stroke-miterlimit:10;stroke-opacity:1;stroke-dasharray:none"
           d="m 2808,2498.8 144,0" /><path
           inkscape:connector-curvature="0"
           id="path42729"
           style="fill:none;stroke:#000000;stroke-width:22.5;stroke-linecap:round;stroke-linejoin:round;stroke-miterlimit:10;stroke-opacity:1;stroke-dasharray:none"
           d="m 2952,2672.7 -144,0" /><path
           inkscape:connector-curvature="0"
           id="path42731"
           style="fill:none;stroke:#000000;stroke-width:22.5;stroke-linecap:round;stroke-linejoin:round;stroke-miterlimit:10;stroke-opacity:1;stroke-dasharray:none"
           d="m 4880,2835.2 0,242.1" /><path
           inkscape:connector-curvature="0"
           id="path42733"
           style="fill:none;stroke:#000000;stroke-width:22.5;stroke-linecap:round;stroke-linejoin:round;stroke-miterlimit:10;stroke-opacity:1;stroke-dasharray:none"
           d="m 4808,2835.2 144,0" /><path
           inkscape:connector-curvature="0"
           id="path42735"
           style="fill:none;stroke:#000000;stroke-width:22.5;stroke-linecap:round;stroke-linejoin:round;stroke-miterlimit:10;stroke-opacity:1;stroke-dasharray:none"
           d="m 4952,3077.3 -144,0" /></g></g></g></svg>